<svg preserveAspectRatio="none" viewBox="0 0 1440 993" fill="none" xmlns="http://www.w3.org/2000/svg">
<path d="M0 977.5V127.336C267 211.198 437 227.557 825 270.1C1213 312.644 1440 28 1440 28V909.325C1440.09 910.097 1440 910.5 1440 910.5V909.325C1438.79 899.425 1406.6 828.834 747.5 769C36.9999 704.5 0 977.5 0 977.5Z" fill="white"/>
<path fill-rule="evenodd" clip-rule="evenodd" d="M-156.488 51.0614C-158.326 56.093 -159.071 61.4586 -158.672 66.7995C-158.097 75.4736 -155.583 83.9064 -151.316 91.4762C-147.049 99.0461 -141.138 105.56 -134.018 110.537C-122.452 118.456 -108.521 122.173 -94.5445 121.07C-93.5927 126.326 -92.1101 131.471 -90.1194 136.427C-87.6303 142.603 -84.4096 148.457 -80.5265 153.865C-69.1786 167.02 -54.1503 176.471 -37.379 180.997C-37.1179 181.056 -36.8489 181.118 -36.5722 181.182C-27.7686 183.205 -11.2318 187.006 3.48391 178.74C9.34598 175.335 14.2841 170.543 17.8649 164.785C20.7472 159.975 22.1735 154.433 21.971 148.83C29.9256 157.116 41.012 162.216 50.8793 155.609C53.4939 153.847 55.7136 151.56 57.3967 148.893C67.6065 162.439 79.8749 174.299 93.7561 184.043C109.071 195.072 135.706 208.26 155.164 200.609C159.777 208.638 165.347 216.077 171.753 222.761C175.229 227.425 179.697 231.259 184.834 233.985C189.971 236.71 195.65 238.261 201.461 238.524C210.594 238.639 221.776 231.406 223.241 221.69C226.044 222.727 228.873 223.554 231.489 224.037C240.012 226.934 248.601 227.435 253.76 223.004C260.11 229.889 272.529 232.662 281.274 234.615C282.001 234.778 282.703 234.934 283.374 235.087C287.669 235.969 292.116 235.769 296.315 234.503C304.693 231.99 305.167 232.787 307.197 236.201C308.023 237.591 309.108 239.414 311.088 241.624C319.702 250.89 329.794 258.659 340.952 264.616C369.101 279.561 400.283 287.89 432.133 288.971C453.945 290.168 493.179 288.491 499.434 261.784C509.117 266.831 526.557 274.587 534.838 268.325C543.116 282.765 560.133 289.094 577.589 290.367C579.831 290.573 582.078 290.655 584.321 290.614C593.22 290.627 601.956 289.424 609.423 287.413C611.79 291.267 614.484 294.912 617.477 298.306C621.886 303.296 626.877 307.738 632.343 311.538C647.434 320.147 664.756 324.035 682.075 322.698L682.273 322.675C682.477 322.652 682.685 322.628 682.898 322.603C691.871 321.57 708.728 319.628 719.837 306.922C724.225 301.755 727.279 295.588 728.731 288.965C729.841 283.468 729.334 277.768 727.271 272.554C737.537 277.707 755.468 275.443 755.468 275.443C755.468 275.443 769.313 270.982 770.009 267.906C781.096 275.239 787.302 276.798 797.33 279.317C800.1 280.013 803.16 280.782 806.696 281.766C824.815 287.046 854.325 290.579 870.11 276.868C873.853 280.078 877.797 283.038 881.914 285.734C883.692 288.576 885.801 291.215 888.208 293.593C893.905 299.22 901.048 303.16 908.843 304.974C933.069 310.654 971.072 307.256 983.675 282.517C992.255 288.363 1009.29 279.756 1018.71 274.237C1026.28 300.603 1065.55 300.341 1087.27 298.07C1119.03 295.418 1149.76 285.56 1177.14 269.244C1187.99 262.744 1197.69 254.486 1205.83 244.807C1207.7 242.502 1208.7 240.627 1209.45 239.198C1211.31 235.688 1211.75 234.869 1220.24 236.965C1224.49 238.022 1228.95 238.003 1233.19 236.91C1233.85 236.726 1234.54 236.536 1235.25 236.339L1235.27 236.335C1243.9 233.953 1256.17 230.57 1262.17 223.38C1267.55 227.551 1276.1 226.627 1284.47 223.313C1294.67 220.901 1307.92 212.999 1309.94 208.464C1314.01 199.056 1309.5 184.185 1298.59 180.607C1292.02 178.807 1285.02 179.509 1278.94 182.579C1279.98 180.595 1280.66 178.447 1280.97 176.23C1282.38 165.875 1272.2 155.874 1262.76 154.241C1257 153.437 1251.13 153.923 1245.58 155.664C1240.03 157.404 1234.94 160.356 1230.67 164.306C1223.15 169.707 1216.31 176.001 1210.31 183.052C1192.58 171.972 1163.98 180.066 1146.91 188.11C1131.48 195.151 1117.25 204.568 1104.73 216.019C1103.57 213.089 1101.8 210.434 1099.55 208.224C1091.06 199.924 1079.23 202.911 1069.89 209.603C1071.12 204.132 1070.73 198.422 1068.77 193.166C1066.31 186.85 1062.33 181.236 1057.19 176.817C1044.23 165.999 1027.28 166.712 1018.25 167.092L1018.24 167.092L1017.82 167.11L1017.43 167.126C1000.11 168.509 983.607 175.052 970.045 185.911C965.238 190.517 961.001 195.684 957.425 201.3C954.562 205.808 952.163 210.596 950.266 215.59C936.727 211.949 922.352 213.056 909.532 218.727C906.916 219.915 904.399 221.292 902 222.845C896.677 221.497 891.06 220.864 886.447 220.343L886.443 220.342C885.704 220.259 884.99 220.179 884.308 220.098C879.943 219.682 875.543 220.357 871.504 222.065C863.444 225.462 862.887 224.72 860.503 221.543C859.532 220.25 858.259 218.553 856.053 216.567C846.496 208.278 835.63 201.634 823.899 196.908C794.311 185.064 762.415 180.122 730.633 182.459C708.818 183.606 669.99 189.475 666.631 216.699C656.463 212.718 638.293 206.875 630.731 213.988C620.129 199.382 600.332 195.359 581.446 196.911C576.673 197.089 571.912 197.825 567.262 199.121C566.45 199.308 565.645 199.504 564.849 199.708C562.718 194.859 560.104 190.237 557.047 185.912C553.198 180.478 548.712 175.527 543.684 171.164C529.602 160.987 512.796 155.267 495.433 154.74C495.165 154.742 494.889 154.744 494.606 154.747C485.573 154.813 468.605 154.938 456.199 166.381C451.282 171.048 447.585 176.852 445.433 183.282C443.74 188.628 443.634 194.35 445.126 199.754C435.471 193.531 423.506 191.132 415.433 199.841C415.196 200.099 414.96 200.351 414.728 200.6C412.868 202.593 411.201 204.379 410.293 207.032C397.229 196.213 382.903 188.359 367.145 182.088C349.696 174.897 320.734 168.224 303.571 180.165C297.227 173.419 290.088 167.47 282.311 162.447C277.851 158.713 272.618 156.016 266.99 154.551C261.362 153.087 255.478 152.891 249.764 153.978C241.622 155.804 233.234 163.993 232.47 172.862C225.73 169.255 218.795 167.727 213.529 170.444C208.941 162.277 197.501 156.709 189.444 152.787C188.774 152.461 188.127 152.146 187.509 151.842C183.534 149.992 179.161 149.159 174.784 149.42C166.052 149.928 165.775 149.043 164.589 145.252C164.106 143.709 163.473 141.685 162.057 139.076C155.818 128.071 147.795 118.179 138.317 109.805C114.385 88.758 85.9716 73.4463 55.2341 65.0322C34.2893 58.8262 -4.26933 51.3888 -16.5288 75.9268C-24.7828 68.7777 -39.957 57.201 -49.4615 61.3793C-57.3286 34.7537 -94.0694 24.4639 -118.925 25.6181C-126.921 25.9765 -134.663 28.5435 -141.293 33.0345C-147.924 37.5255 -153.183 43.7649 -156.488 51.0614Z" fill="white"/>
<path d="M1367.45 65.6536C1367.45 65.6536 1314.88 41.5968 1247 122.109L1249.19 123.971L1313.14 120.247L1324.63 128.998L1367.45 65.6536Z" fill="#EB5542"/>
<path d="M1367.45 65.6536C1367.45 65.6536 1314.88 41.5968 1247 122.109L1249.19 123.971L1313.14 120.247L1324.63 128.998L1367.45 65.6536Z" fill="#EB5542"/>
<g style="mix-blend-mode:multiply">
<path d="M1367.45 65.6536C1367.45 65.6536 1353.18 59.0994 1329.94 64.2012C1332.43 64.4992 1337.64 67.6645 1334.92 68.3348C1286 80.9591 1248.45 123.04 1248.26 123.189L1313.14 120.135L1324.63 128.887L1367.45 65.6536Z" fill="#9D3728"/>
</g>
<path d="M1387.49 82.5604C1387.49 82.5604 1420.17 130.413 1352.32 211.037L1350.13 209.175L1343.07 145.421L1332.51 135.552L1387.49 82.5604Z" fill="#EB5542"/>
<path d="M1388.05 125.088C1388.97 118.543 1391.31 112.278 1394.89 106.729C1394.28 98.2111 1391.74 89.945 1387.45 82.5604L1332.51 135.552L1343.07 145.421L1350.13 209.175L1351.69 210.479C1353.81 206.01 1384.03 162.477 1388.05 125.088Z" fill="#9D3728"/>
<path d="M1442.4 6.0329C1441.18 3.89094 1439.36 2.1557 1437.16 1.04278C1436.39 0.668333 1435.6 0.356975 1434.78 0.111787C1424.33 -0.633006 1402.99 1.93653 1377.04 27.9298L1288.86 133.542L1337.19 174.133L1425.23 68.5211C1446.9 37.6494 1445 15.9014 1442.4 6.0329Z" fill="#FBFBFB"/>
<g style="mix-blend-mode:color-dodge">
<path d="M1425.3 21.115C1424.93 20.4796 1424.33 20.0122 1423.63 19.8116C1417.12 18.4338 1395.89 16.758 1369.13 43.6078L1292.02 136.074L1334.51 171.601L1411.54 79.1344C1421.58 64.6482 1429.61 47.0711 1427.27 28.9354C1427.13 26.2247 1426.46 23.5679 1425.3 21.115Z" fill="white"/>
</g>
<path d="M1316.7 100.404L1314.13 103.491L1362.62 144.042L1365.19 140.955L1316.7 100.404Z" fill="#079BD7"/>
<path d="M1369.83 135.18L1321.35 94.6261L1322.65 93.0992L1371.13 133.616L1369.83 135.18Z" fill="#079BD7"/>
<g opacity="0.4">
<path d="M1442.4 6.0329C1441.18 3.89094 1439.36 2.1557 1437.16 1.04278C1436.39 0.668333 1435.6 0.356975 1434.78 0.111787C1424.33 -0.633006 1402.99 1.93653 1377.04 27.9298L1288.86 133.542L1337.19 174.133L1425.23 68.5211C1446.9 37.6494 1445 15.9014 1442.4 6.0329ZM1313.73 112.762L1381.39 31.5793C1392.92 17.8006 1417.38 6.21909 1425.08 6.59149C1432.77 6.96389 1435.26 26.254 1435.26 26.254L1333.92 129.631L1313.73 112.762Z" fill="#FF0000"/>
</g>
<path d="M1295.66 164.488C1300.79 157.84 1305.19 150.661 1308.79 143.075L1291.72 128.849C1284.95 133.746 1278.72 139.351 1273.14 145.57C1275.66 149.923 1279.04 153.722 1283.06 156.742C1286.72 160.123 1291 162.754 1295.66 164.488Z" fill="white"/>
<path d="M1303.73 152.385C1305.53 149.408 1307.17 146.338 1308.64 143.187L1291.58 128.961C1288.8 130.927 1286.13 133.04 1283.58 135.292C1288.49 142.834 1295.5 148.775 1303.73 152.385Z" fill="#ADAFB2"/>
<path d="M1276.15 142.405L1273.06 145.682C1275.59 150.034 1278.96 153.833 1282.99 156.854C1286.66 160.269 1290.97 162.927 1295.66 164.674C1296.59 163.482 1297.41 162.328 1298.23 161.173C1289.06 157.433 1281.32 150.857 1276.15 142.405Z" fill="#ADAFB2"/>
<path d="M1281.43 137.34L1278.34 140.245C1283.47 148.473 1291.05 154.882 1300.01 158.567C1300.83 157.338 1301.61 156.109 1302.32 154.843C1293.77 151.228 1286.49 145.132 1281.43 137.34Z" fill="#ADAFB2"/>
<g style="mix-blend-mode:screen" opacity="0.5">
<path d="M1296 132.536L1294.77 131.493C1291.05 134.398 1286.97 136.67 1283.62 139.686C1280.27 142.703 1277.56 145.16 1274.66 148.028L1276.18 150.002C1282.35 143.695 1288.97 137.857 1296 132.536Z" fill="white"/>
</g>
<g style="mix-blend-mode:multiply">
<path d="M1285.14 158.567C1288.3 161.111 1291.85 163.112 1295.66 164.488C1300.79 157.84 1305.19 150.661 1308.79 143.075L1301.98 137.414C1296.82 144.812 1291.19 151.876 1285.14 158.567Z" fill="#B3B5B8"/>
</g>
<path d="M1327.41 191.114C1332.53 184.481 1336.92 177.314 1340.5 169.739L1323.47 155.476C1316.7 160.375 1310.47 165.98 1304.88 172.196C1307.4 176.545 1310.76 180.344 1314.77 183.368C1318.44 186.758 1322.73 189.39 1327.41 191.114Z" fill="white"/>
<path d="M1335.63 178.899C1337.42 175.938 1339.05 172.88 1340.5 169.739L1323.47 155.476C1320.68 157.441 1317.99 159.567 1315.44 161.844C1320.38 169.365 1327.4 175.289 1335.63 178.899Z" fill="#ADAFB2"/>
<path d="M1307.9 168.956C1306.89 169.999 1305.85 171.042 1304.81 172.196C1307.33 176.545 1310.69 180.344 1314.7 183.368C1318.38 186.779 1322.7 189.425 1327.41 191.151L1329.94 187.688C1320.78 183.971 1313.05 177.405 1307.9 168.956Z" fill="#ADAFB2"/>
<path d="M1313.17 163.855C1312.17 164.748 1311.13 165.717 1310.09 166.759C1315.19 174.995 1322.75 181.417 1331.69 185.118C1332.54 183.852 1333.29 182.661 1334.03 181.394C1325.47 177.785 1318.2 171.672 1313.17 163.855Z" fill="#ADAFB2"/>
<g style="mix-blend-mode:screen" opacity="0.5">
<path d="M1327.75 159.051L1326.48 158.008C1322.77 160.95 1318.71 163.184 1315.33 166.238C1311.95 169.292 1309.27 171.675 1306.37 174.542C1306.78 175.138 1307.3 175.809 1307.9 176.553C1314.06 170.226 1320.7 164.375 1327.75 159.051Z" fill="white"/>
</g>
<g style="mix-blend-mode:multiply">
<path d="M1316.82 185.081C1319.97 187.692 1323.56 189.733 1327.41 191.114C1332.53 184.481 1336.92 177.315 1340.5 169.739L1333.73 164.078C1328.53 171.421 1322.88 178.435 1316.82 185.081Z" fill="#B3B5B8"/>
</g>
<path d="M1344.63 181.543C1349.82 173.379 1352.97 164.079 1353.81 154.433L1305.48 114.028C1296.16 116.575 1287.59 121.341 1280.5 127.918C1289.95 138.246 1300.21 147.809 1311.17 156.518C1321.65 165.72 1332.84 174.087 1344.63 181.543Z" fill="#3B3D3F"/>
<g style="mix-blend-mode:multiply">
<path d="M1308.12 116.262L1305.44 114.028C1296.12 116.575 1287.55 121.341 1280.46 127.918C1280.46 127.918 1281.35 128.961 1283.06 130.786C1290.49 124.499 1298.97 119.582 1308.12 116.262Z" fill="#B3B5B8"/>
</g>
<g style="mix-blend-mode:multiply">
<path d="M1326.3 168.845C1332.18 173.395 1338.3 177.634 1344.63 181.544C1349.82 173.379 1352.97 164.079 1353.81 154.433L1340.91 143.782C1337.37 152.845 1332.44 161.3 1326.3 168.845Z" fill="#B3B5B8"/>
</g>
<path d="M1360.2 100.696C1359.86 100.082 1359.45 99.5078 1358.98 98.9831C1358.38 98.6266 1357.74 98.3392 1357.08 98.1266C1353.81 97.0466 1347.82 97.0466 1338.01 103.191L1305.74 157.673C1304.23 160.274 1303.29 163.169 1302.99 166.163C1305.87 165.337 1308.55 163.902 1310.83 161.955L1358.57 120.433C1362.88 109.634 1361.84 103.75 1360.2 100.696Z" fill="#EB5542"/>
<g style="mix-blend-mode:multiply" opacity="0.4">
<path d="M1360.2 100.696C1359.86 100.082 1359.45 99.5079 1358.98 98.9832L1303.21 166.015C1303.19 166.113 1303.19 166.214 1303.21 166.312C1306.1 165.486 1308.77 164.051 1311.06 162.104L1358.79 120.582C1362.88 109.634 1361.84 103.75 1360.2 100.696Z" fill="#575A5C"/>
</g>
<g style="mix-blend-mode:color-dodge" opacity="0.4">
<path d="M1424.67 12.736C1424.67 12.736 1406.67 10.7251 1389.09 29.1587L1333.96 94.7005L1337.19 97.4563C1337.19 97.4563 1378.09 44.5759 1391.39 43.9801L1397.42 45.0973L1424.67 12.736Z" fill="#FBFBFB"/>
</g>
<g style="mix-blend-mode:multiply" opacity="0.7">
<path d="M1417.68 68.1859C1414.59 71.8657 1410.48 74.5444 1405.86 75.8833C1401.25 77.2221 1396.35 77.161 1391.77 75.7075C1387.19 74.254 1383.15 71.4736 1380.15 67.7178C1377.15 63.962 1375.33 59.3995 1374.92 54.6074C1374.51 49.8152 1375.52 45.0087 1377.84 40.7956C1380.16 36.5826 1383.67 33.1522 1387.93 30.9384C1392.19 28.7246 1397.02 27.8267 1401.79 28.3584C1406.56 28.8901 1411.07 30.8274 1414.74 33.9254C1419.67 38.0788 1422.74 44.0215 1423.29 50.4464C1423.84 56.8713 1421.82 63.2522 1417.68 68.1859Z" fill="#898B8E"/>
</g>
<path d="M1417.46 65.9516C1414.56 69.3837 1410.72 71.8796 1406.41 73.1238C1402.1 74.368 1397.52 74.3047 1393.25 72.9418C1388.98 71.579 1385.2 68.9777 1382.4 65.467C1379.61 61.9562 1377.91 57.6935 1377.53 53.2177C1377.15 48.7419 1378.11 44.254 1380.27 40.3212C1382.44 36.3883 1385.72 33.1872 1389.7 31.1224C1393.69 29.0576 1398.19 28.2219 1402.65 28.7208C1407.1 29.2197 1411.31 31.0309 1414.74 33.9254C1417.02 35.849 1418.9 38.2035 1420.27 40.8544C1421.64 43.5054 1422.47 46.4008 1422.73 49.3751C1422.98 52.3494 1422.64 55.3443 1421.74 58.1886C1420.83 61.0329 1419.38 63.6708 1417.46 65.9516Z" fill="#EB5542"/>
<path d="M1413.92 63.5309C1411.57 66.3068 1408.45 68.3233 1404.96 69.3263C1401.47 70.3292 1397.76 70.2737 1394.29 69.1667C1390.83 68.0597 1387.78 65.9508 1385.51 63.1058C1383.24 60.2608 1381.87 56.8072 1381.56 53.1804C1381.25 49.5535 1382.01 45.9158 1383.76 42.7259C1385.52 39.536 1388.17 36.9367 1391.39 35.2557C1394.62 33.5747 1398.26 32.8873 1401.88 33.2802C1405.49 33.673 1408.91 35.1285 1411.69 37.4631C1415.41 40.6414 1417.73 45.1593 1418.15 50.0384C1418.57 54.9176 1417.05 59.765 1413.92 63.5309Z" fill="white"/>
<g style="mix-blend-mode:multiply">
<path d="M1411.54 37.5376C1408.74 35.1409 1405.29 33.6337 1401.63 33.2076C1397.96 32.7815 1394.26 33.4558 1390.98 35.1447C1387.7 36.8335 1385 39.4608 1383.21 42.6924C1381.43 45.9239 1380.65 49.6139 1380.96 53.2933C1381.27 56.9726 1382.67 60.475 1384.98 63.3554C1387.29 66.2357 1390.4 68.3638 1393.92 69.4692C1397.43 70.5746 1401.2 70.6073 1404.74 69.5632C1408.27 68.519 1411.42 66.4452 1413.78 63.6054C1415.35 61.7509 1416.53 59.6033 1417.27 57.2865C1418.01 54.9697 1418.28 52.5295 1418.08 50.1064C1417.87 47.6833 1417.19 45.3253 1416.06 43.1681C1414.94 41.011 1413.41 39.0974 1411.54 37.5376ZM1390.43 62.6744C1388.04 60.6573 1386.31 57.9773 1385.44 54.9726C1384.57 51.968 1384.61 48.7735 1385.56 45.7924C1386.5 42.8114 1388.31 40.1774 1390.75 38.223C1393.18 36.2686 1396.14 35.0814 1399.25 34.8114C1402.37 34.5414 1405.49 35.2005 1408.22 36.7057C1410.96 38.2109 1413.19 40.4946 1414.63 43.2685C1416.07 46.0424 1416.66 49.1821 1416.33 52.2913C1415.99 55.4005 1414.74 58.3397 1412.73 60.738C1410.04 63.9125 1406.2 65.8955 1402.05 66.2579C1397.91 66.6203 1393.78 65.333 1390.58 62.6744H1390.43Z" fill="#C9CACC"/>
</g>
<g style="mix-blend-mode:screen">
<path d="M1394.52 30.7228C1391.58 31.3613 1388.85 32.7463 1386.6 34.7447C1386.79 35.2661 1387.01 35.8246 1387.23 36.346C1389.74 34.0615 1392.9 32.6167 1396.27 32.2124C1400.54 31.8034 1404.85 32.5233 1408.77 34.3003C1412.68 36.0774 1416.06 38.8497 1418.57 42.3416C1418.24 40.9637 1412.73 26.7009 1394.52 30.7228Z" fill="white"/>
</g>
<g style="mix-blend-mode:screen">
<path d="M1384.48 36.979C1381.22 41.4832 1379.41 46.8727 1379.28 52.4335C1379.94 47.3568 1381.97 42.5566 1385.15 38.5431L1384.48 36.979Z" fill="white"/>
</g>
<path fill-rule="evenodd" clip-rule="evenodd" d="M1598.11 964.073C1600.03 959.075 1600.87 953.723 1600.57 948.376C1600.14 939.693 1597.78 931.218 1593.64 923.574C1589.51 915.931 1583.71 909.315 1576.68 904.214C1565.26 896.094 1551.39 892.135 1537.4 892.994C1536.54 887.722 1535.15 882.551 1533.24 877.561C1530.86 871.343 1527.74 865.433 1523.96 859.959C1512.84 846.607 1497.98 836.895 1481.29 832.077C1481.03 832.013 1480.76 831.946 1480.49 831.878C1471.72 829.701 1455.25 825.612 1440.39 833.62C1434.47 836.921 1429.45 841.626 1425.77 847.321C1422.8 852.08 1421.28 857.597 1421.39 863.202C1413.58 854.778 1402.58 849.485 1392.6 855.919C1389.96 857.635 1387.7 859.883 1385.97 862.52C1375.99 848.798 1363.94 836.725 1350.23 826.74C1335.11 815.445 1308.71 801.794 1289.12 809.104C1284.65 800.995 1279.21 793.461 1272.92 786.665C1269.52 781.941 1265.12 778.03 1260.04 775.215C1254.95 772.4 1249.3 770.75 1243.49 770.386C1234.36 770.111 1223.05 777.148 1221.42 786.837C1218.64 785.751 1215.82 784.875 1213.21 784.346C1204.74 781.301 1196.16 780.65 1190.93 784.989C1184.7 777.995 1172.33 775.005 1163.62 772.9L1163.62 772.899C1162.89 772.724 1162.2 772.555 1161.53 772.391C1157.25 771.434 1152.8 771.557 1148.58 772.749C1140.16 775.116 1139.7 774.31 1137.73 770.861C1136.93 769.457 1135.88 767.615 1133.93 765.371C1125.48 755.956 1115.53 748.012 1104.48 741.861C1076.59 726.427 1045.56 717.554 1013.73 715.916C991.946 714.339 952.69 715.33 945.968 741.924C936.375 736.708 919.074 728.649 910.685 734.765C902.66 720.183 885.756 713.558 868.325 711.98C866.087 711.735 863.842 711.613 861.598 711.615C852.7 711.447 843.945 712.497 836.444 714.377C834.145 710.482 831.515 706.791 828.582 703.345C824.261 698.279 819.348 693.75 813.949 689.856C799.011 680.984 781.76 676.794 764.42 677.828L764.21 677.848L763.596 677.908C754.605 678.785 737.717 680.432 726.388 692.942C721.91 698.032 718.749 704.144 717.182 710.741C715.976 716.218 716.383 721.926 718.354 727.175C708.18 721.843 690.212 723.793 690.212 723.793C690.212 723.793 676.291 728.012 675.542 731.076C664.585 723.55 658.407 721.883 648.424 719.189C645.668 718.445 642.621 717.622 639.103 716.577C621.079 710.981 591.635 706.933 575.613 720.366C571.926 717.092 568.035 714.062 563.965 711.296C562.237 708.423 560.175 705.747 557.81 703.328C552.212 697.602 545.139 693.538 537.377 691.588C513.254 685.486 475.198 688.219 462.164 712.734C453.688 706.739 436.505 715.047 426.988 720.401C419.883 693.907 380.616 693.482 358.853 695.373C327.054 697.47 296.153 706.79 268.495 722.625C257.533 728.934 247.694 737.022 239.38 746.557C237.471 748.829 236.446 750.686 235.664 752.102C233.744 755.579 233.295 756.391 224.842 754.146C220.605 753.015 216.153 752.956 211.889 753.975C211.223 754.149 210.526 754.328 209.804 754.514C201.126 756.745 188.802 759.912 182.675 766.996C177.377 762.732 168.809 763.507 160.382 766.674C150.137 768.907 136.756 776.576 134.651 781.076C130.417 790.411 134.673 805.359 145.513 809.127C152.05 811.041 159.064 810.461 165.197 807.499C164.127 809.464 163.404 811.599 163.058 813.811C161.463 824.14 171.469 834.317 180.883 836.115C186.629 837.019 192.503 836.635 198.081 834.992C203.66 833.349 208.804 830.486 213.143 826.612C220.756 821.343 227.702 815.169 233.827 808.225C251.362 819.613 280.097 812.019 297.308 804.275C312.857 797.505 327.25 788.337 339.962 777.107C341.078 780.057 342.795 782.742 345.005 784.991C353.351 793.438 365.234 790.658 374.685 784.131C373.366 789.58 373.655 795.295 375.517 800.585C377.874 806.943 381.754 812.626 386.816 817.134C399.582 828.176 416.544 827.759 425.575 827.538C425.859 827.531 426.135 827.524 426.402 827.518C443.74 826.437 460.355 820.184 474.105 809.563C478.991 805.042 483.317 799.95 486.991 794.397C489.933 789.939 492.415 785.194 494.398 780.235C507.872 784.111 522.264 783.255 535.181 777.81C537.818 776.668 540.359 775.334 542.785 773.824C548.083 775.264 553.688 775.996 558.291 776.597L558.295 776.598C559.033 776.694 559.745 776.787 560.426 776.879C564.782 777.372 569.194 776.773 573.262 775.136C581.38 771.881 581.924 772.632 584.252 775.851C585.2 777.161 586.444 778.879 588.614 780.903C598.025 789.358 608.773 796.191 620.42 801.122C649.797 813.481 681.601 818.979 713.42 817.198C735.251 816.432 774.176 811.242 778.01 784.081C788.107 788.239 806.171 794.399 813.857 787.419C824.202 802.207 843.925 806.576 862.836 805.354C867.612 805.259 872.385 804.607 877.057 803.392C877.872 803.219 878.68 803.038 879.479 802.847C881.526 807.733 884.058 812.4 887.039 816.778C890.792 822.278 895.192 827.306 900.143 831.757C914.044 842.178 930.747 848.191 948.099 849.021C948.367 849.024 948.643 849.026 948.927 849.029C957.959 849.121 974.926 849.292 987.531 838.067C992.528 833.487 996.326 827.749 998.59 821.357C1000.38 816.041 1000.58 810.322 999.185 804.893C1008.73 811.283 1020.65 813.892 1028.87 805.325C1029.12 805.071 1029.36 804.823 1029.59 804.578C1031.49 802.618 1033.19 800.861 1034.14 798.225C1047.01 809.271 1061.2 817.373 1076.84 823.919C1094.17 831.413 1123.01 838.592 1140.38 826.952C1146.6 833.807 1153.63 839.881 1161.32 845.039C1165.72 848.85 1170.9 851.638 1176.5 853.201C1182.11 854.763 1187.98 855.062 1193.72 854.075C1201.89 852.391 1210.42 844.35 1211.34 835.497C1218.01 839.221 1224.92 840.87 1230.23 838.245C1234.68 846.49 1246.02 852.258 1254.01 856.319C1254.67 856.657 1255.31 856.983 1255.93 857.298C1259.87 859.218 1264.23 860.127 1268.61 859.943C1277.35 859.587 1277.61 860.476 1278.73 864.287C1279.18 865.839 1279.78 867.874 1281.15 870.507C1287.2 881.62 1295.05 891.65 1304.38 900.188C1327.94 921.65 1356.08 937.456 1386.66 946.406C1407.5 952.977 1445.92 961.087 1458.61 936.767C1466.73 944.059 1481.7 955.899 1491.28 951.887C1498.68 978.646 1535.24 989.576 1560.11 988.857C1568.11 988.638 1575.89 986.207 1582.6 981.832C1589.31 977.458 1594.68 971.311 1598.11 964.073Z" fill="white"/>
<path d="M74.6624 923.048C74.6624 923.048 126.703 948.004 196.064 868.339L193.909 866.437L129.969 869.16L118.664 860.202L74.6624 923.048Z" fill="#EB5542"/>
<path d="M74.6624 923.048C74.6624 923.048 126.703 948.004 196.064 868.339L193.909 866.437L129.969 869.16L118.664 860.202L74.6624 923.048Z" fill="#EB5542"/>
<g style="mix-blend-mode:multiply">
<path d="M74.6691 923.212C74.6691 923.212 88.7732 930.006 112.064 925.21C109.585 924.875 104.46 921.618 107.182 920.983C156.264 908.993 194.622 867.223 194.81 867.076L130.02 869.215L118.744 860.251L74.6691 923.212Z" fill="#9D3728"/>
</g>
<path d="M54.8868 905.698C54.8868 905.698 23.2568 857.297 92.3977 777.69L94.5467 779.588L100.354 843.496L110.681 853.538L54.8868 905.698Z" fill="#EB5542"/>
<path d="M55.1533 863.133C54.1086 869.667 51.6625 875.9 47.9852 881.396C48.4291 889.929 50.8029 898.241 54.9259 905.698L110.683 853.538L100.356 843.496L94.5484 779.588L93.0181 778.259C90.8211 782.697 59.8738 825.783 55.1533 863.133Z" fill="#9D3728"/>
<path d="M-1.31467 981.409C-0.137321 983.574 1.64795 985.34 3.81929 986.489C4.57695 986.876 5.3649 987.2 6.17534 987.459C16.5845 988.37 37.9262 986.134 64.32 960.516L154.347 856.156L106.908 814.747L17.0296 919.109C-5.19251 949.68 -3.7207 971.487 -1.31467 981.409Z" fill="#FBFBFB"/>
<g style="mix-blend-mode:color-dodge">
<path d="M16.0381 966.601C16.3927 967.243 16.9822 967.72 17.6821 967.932C24.147 969.415 45.2955 971.428 72.5219 944.965L151.241 853.594L109.528 817.348L30.8833 908.721C20.5882 923.068 12.2364 940.542 14.2231 958.739C14.311 961.455 14.9276 964.126 16.0381 966.601Z" fill="white"/>
</g>
<path d="M125.994 889.001L128.63 885.949L80.8707 844.567L78.2343 847.619L125.994 889.001Z" fill="#079BD7"/>
<path d="M73.5675 853.3L121.179 894.694L119.851 896.203L72.2384 854.846L73.5675 853.3Z" fill="#079BD7"/>
<g opacity="0.4">
<path d="M-1.30655 981.63C-0.135953 983.795 1.64207 985.561 3.80653 986.708C4.56182 987.095 5.34744 987.418 6.15566 987.676C16.5408 988.572 37.8415 986.301 64.2293 960.61L154.269 855.979L107.012 814.588L17.1207 919.221C-5.11398 949.865 -3.68803 971.698 -1.30655 981.63ZM129.065 876.458L59.9761 956.889C48.2092 970.539 23.608 981.801 15.9539 981.318C8.29991 980.834 6.22949 961.457 6.22949 961.457L109.325 859.255L129.065 876.458Z" fill="#FF0000"/>
</g>
<path d="M148.202 825.273C142.959 831.85 138.429 838.97 134.691 846.511L151.446 861.027C158.298 856.23 164.625 850.715 170.321 844.575C167.882 840.176 164.586 836.318 160.63 833.229C157.046 829.786 152.824 827.083 148.202 825.273Z" fill="white"/>
<path d="M139.917 837.247C138.064 840.2 136.37 843.249 134.841 846.383L151.598 860.901C154.406 858.975 157.11 856.901 159.699 854.686C154.943 847.054 148.067 840.993 139.917 837.247Z" fill="#ADAFB2"/>
<path d="M167.253 847.721L170.397 844.487C167.957 840.087 164.661 836.228 160.704 833.139C157.104 829.659 152.856 826.929 148.2 825.105C147.249 826.284 146.41 827.427 145.572 828.571C154.652 832.462 162.248 839.172 167.253 847.721Z" fill="#ADAFB2"/>
<path d="M161.888 852.692L165.024 849.831C160.06 841.507 152.616 834.968 143.742 831.136C142.902 832.354 142.099 833.572 141.37 834.829C149.837 838.586 156.983 844.807 161.888 852.692Z" fill="#ADAFB2"/>
<g style="mix-blend-mode:screen" opacity="0.5">
<path d="M147.269 857.269L148.473 858.333C152.241 855.482 156.367 853.271 159.765 850.302C163.164 847.334 165.921 844.914 168.871 842.088L167.387 840.087C161.113 846.306 154.388 852.05 147.269 857.269Z" fill="white"/>
</g>
<g style="mix-blend-mode:multiply">
<path d="M158.565 831.368C155.467 828.77 151.957 826.711 148.182 825.273C142.94 831.849 138.412 838.967 134.674 846.506L141.353 852.282C146.65 844.957 152.399 837.972 158.565 831.368Z" fill="#B3B5B8"/>
</g>
<path d="M116.923 798.096C111.688 804.658 107.171 811.766 103.45 819.297L120.167 833.85C127.017 829.05 133.344 823.535 139.042 817.398C136.614 813.003 133.331 809.145 129.388 806.053C125.797 802.601 121.561 799.897 116.923 798.096Z" fill="white"/>
<path d="M108.487 810.179C106.642 813.117 104.96 816.154 103.449 819.278L120.169 833.833C122.999 831.908 125.717 829.821 128.308 827.582C123.521 819.97 116.636 813.925 108.487 810.179Z" fill="#ADAFB2"/>
<path d="M135.973 820.618C136.995 819.589 138.054 818.561 139.116 817.421C136.687 813.025 133.404 809.166 129.46 806.074C125.85 802.599 121.587 799.881 116.918 798.077L114.328 801.506C123.402 805.374 130.99 812.074 135.973 820.618Z" fill="#ADAFB2"/>
<path d="M130.607 825.627C131.627 824.747 132.684 823.794 133.744 822.766C128.81 814.436 121.392 807.884 112.537 804.034C111.659 805.289 110.893 806.471 110.127 807.728C118.599 811.478 125.737 817.717 130.607 825.627Z" fill="#ADAFB2"/>
<g style="mix-blend-mode:screen" opacity="0.5">
<path d="M115.988 830.204L117.23 831.268C120.998 828.38 125.086 826.206 128.522 823.2C131.959 820.195 134.677 817.85 137.627 815.023C137.23 814.42 136.724 813.74 136.144 812.985C129.866 819.226 123.128 824.982 115.988 830.204Z" fill="white"/>
</g>
<g style="mix-blend-mode:multiply">
<path d="M127.359 804.304C124.26 801.64 120.722 799.54 116.903 798.096C111.67 804.657 107.153 811.764 103.433 819.293L110.075 825.067C115.408 817.797 121.18 810.863 127.359 804.304Z" fill="#B3B5B8"/>
</g>
<path d="M99.6129 807.371C94.2688 815.466 90.9447 824.732 89.9236 834.381L137.383 875.617C146.738 873.212 155.385 868.575 162.588 862.098C153.349 851.604 143.298 841.863 132.527 832.966C122.238 823.583 111.234 815.026 99.6129 807.371Z" fill="#3B3D3F"/>
<g style="mix-blend-mode:multiply">
<path d="M134.869 873.335L137.499 875.617C146.86 873.211 155.511 868.569 162.719 862.087C162.719 862.087 161.848 861.027 160.175 859.171C152.634 865.356 144.066 870.151 134.869 873.335Z" fill="#B3B5B8"/>
</g>
<g style="mix-blend-mode:multiply">
<path d="M117.584 820.372C111.804 815.724 105.784 811.384 99.5497 807.371C94.2098 815.461 90.8885 824.722 89.8682 834.365L102.529 845.231C106.237 836.214 111.316 827.828 117.584 820.372Z" fill="#B3B5B8"/>
</g>
<path d="M82.5192 888.04C82.8523 888.66 83.2516 889.242 83.7102 889.775C84.2995 890.141 84.9286 890.439 85.5853 890.662C88.8285 891.795 94.8001 891.89 104.711 885.893L137.958 831.851C139.516 829.271 140.508 826.387 140.867 823.393C137.973 824.175 135.277 825.569 132.959 827.483L84.5324 868.304C80.0213 879.049 80.9462 884.957 82.5192 888.04Z" fill="#EB5542"/>
<g style="mix-blend-mode:multiply" opacity="0.4">
<path d="M82.5167 888.042C82.8498 888.662 83.2491 889.244 83.7077 889.776L140.641 823.539C140.661 823.441 140.663 823.34 140.646 823.241C137.753 824.023 135.056 825.417 132.739 827.33L84.3102 868.152C80.0187 879.05 80.9436 884.958 82.5167 888.042Z" fill="#575A5C"/>
</g>
<g style="mix-blend-mode:color-dodge" opacity="0.4">
<path d="M16.5252 974.92C16.5252 974.92 34.4461 977.219 52.3537 959.033L108.65 894.256L105.474 891.444C105.474 891.444 63.6352 943.765 50.3394 944.151L44.3497 942.937L16.5252 974.92Z" fill="#FBFBFB"/>
</g>
<g style="mix-blend-mode:multiply" opacity="0.7">
<path d="M24.5451 919.455C27.702 915.818 31.8574 913.201 36.4859 911.933C41.1144 910.665 46.0081 910.803 50.548 912.331C55.0879 913.859 59.0702 916.708 61.9912 920.517C64.9122 924.326 66.6407 928.924 66.9581 933.73C67.2756 938.536 66.1676 943.333 63.7745 947.516C61.3813 951.699 57.8105 955.079 53.5134 957.229C49.2164 959.379 44.3863 960.202 39.6339 959.594C34.8815 958.986 30.4203 956.974 26.8145 953.814C21.9801 949.576 19.0252 943.576 18.5996 937.133C18.1741 930.689 20.3127 924.331 24.5451 919.455Z" fill="#898B8E"/>
</g>
<path d="M24.7253 921.692C27.6789 918.301 31.5632 915.862 35.8875 914.684C40.2118 913.506 44.7818 913.642 49.0198 915.074C53.2579 916.507 56.9737 919.171 59.6977 922.732C62.4216 926.292 64.0314 930.588 64.3235 935.076C64.6155 939.565 63.5768 944.045 61.3386 947.949C59.1004 951.854 55.7632 955.008 51.7488 957.013C47.7344 959.018 43.2231 959.784 38.7851 959.214C34.347 958.644 30.1816 956.763 26.8152 953.81C24.5782 951.848 22.7494 949.46 21.4336 946.783C20.1177 944.107 19.3405 941.194 19.1464 938.211C18.9523 935.228 19.3451 932.234 20.3024 929.4C21.2597 926.565 22.7626 923.946 24.7253 921.692Z" fill="#EB5542"/>
<path d="M28.2029 924.174C30.6026 921.431 33.754 919.46 37.2597 918.511C40.7654 917.562 44.4685 917.676 47.9021 918.839C51.3356 920.003 54.3459 922.163 56.5535 925.048C58.761 927.933 60.067 931.414 60.3066 935.051C60.5463 938.688 59.709 942.319 57.9003 945.487C56.0915 948.654 53.3923 951.215 50.143 952.848C46.8937 954.48 43.2397 955.111 39.6417 954.66C36.0438 954.21 32.663 952.698 29.9255 950.316C26.2752 947.074 24.0475 942.513 23.7251 937.62C23.4026 932.727 25.0114 927.896 28.2029 924.174Z" fill="white"/>
<g style="mix-blend-mode:multiply">
<path d="M30.0761 950.245C32.8289 952.689 36.2456 954.253 39.892 954.738C43.5385 955.222 47.2498 954.606 50.5543 952.966C53.8588 951.327 56.6073 948.738 58.4502 945.53C60.2931 942.321 61.1473 938.638 60.9041 934.948C60.661 931.258 59.3315 927.729 57.0847 924.807C54.8379 921.886 51.7752 919.706 48.2861 918.543C44.7969 917.38 41.0388 917.288 37.4895 918.278C33.9403 919.268 30.7602 921.295 28.3535 924.102C26.7502 925.935 25.5224 928.067 24.7408 930.375C23.9591 932.684 23.6392 935.123 23.7993 937.554C23.9594 939.984 24.5965 942.356 25.6738 944.534C26.751 946.712 28.2472 948.653 30.0761 950.245ZM51.6359 925.403C53.9783 927.461 55.6591 930.173 56.466 933.196C57.273 936.218 57.17 939.417 56.17 942.388C55.17 945.359 53.3179 947.968 50.8474 949.887C48.3769 951.806 45.3989 952.948 42.2893 953.169C39.1797 953.39 36.0779 952.681 33.3755 951.13C30.6731 949.58 28.4914 947.257 27.1056 944.456C25.7198 941.655 25.1922 938.502 25.5893 935.393C25.9865 932.284 27.2905 929.36 29.3369 926.99C32.0911 923.853 35.9592 921.928 40.1045 921.631C44.2498 921.333 48.3389 922.688 51.4875 925.401L51.6359 925.403Z" fill="#C9CACC"/>
</g>
<g style="mix-blend-mode:screen">
<path d="M46.9691 957.322C49.919 956.728 52.6703 955.38 54.9587 953.409C54.7831 952.883 54.571 952.319 54.3582 951.792C51.8067 954.046 48.6239 955.446 45.2521 955.799C40.9706 956.142 36.6786 955.351 32.803 953.504C28.9274 951.658 25.6032 948.821 23.161 945.276C23.4687 946.664 28.6904 961.071 46.9691 957.322Z" fill="white"/>
</g>
<g style="mix-blend-mode:screen">
<path d="M57.1273 951.241C60.4567 946.786 62.3669 941.423 62.6048 935.861C61.841 940.93 59.7284 945.7 56.4914 949.666L57.1273 951.241Z" fill="white"/>
</g>
</svg>
