<svg width="1162" height="256" viewBox="0 0 1162 256" fill="none" xmlns="http://www.w3.org/2000/svg">
<path opacity="0.5" fill-rule="evenodd" clip-rule="evenodd" d="M380 117C349.5 136.5 287.649 138.646 287.649 138.646C240.5 143 171 92.0006 185.299 39.0008C199.599 -13.999 92.6414 -10.9808 34.9998 39.0008C-22.6419 88.9824 0.999741 127.869 34.9998 142.935C46.8922 148.204 55.8484 151.7 62.9996 154.491L62.9998 154.491C76.2934 159.679 83.3497 162.433 91.4358 169.625C98.7422 176.124 105.698 183.415 112.753 190.808C151.494 231.411 193.195 275.115 312.106 207.829C319.62 203.571 335.801 196.008 350.981 188.913C362.763 183.406 373.942 178.181 380 175.001V175.001C405.711 162.19 473.241 146.54 495.932 149.388C536.976 154.517 567.45 178.248 598.158 202.16C626.776 224.445 655.596 246.888 693.364 254.58C710.055 257.948 765 254.58 792 234.001V174.001C776.5 181.501 736.5 200.001 682.823 187.104C652.036 171.927 648.589 151.749 642.287 114.852C639.619 99.2285 636.438 80.608 630.454 58.1005C628.737 51.5031 625 39.0004 617.031 29.5004C579.251 -15.538 491 4.99998 466.5 29.5004C453.354 42.6464 440.051 56.9401 427.744 70.1634C407.337 92.0904 389.669 111.074 380 117.001V117ZM1080.5 178.72C930.432 152.79 837.5 205.501 792 234.001V174.001C824.5 160.501 841.327 133.501 857 107.633C858.038 105.92 859.123 104.101 860.26 102.195C870.497 85.0378 884.969 60.7811 907.457 42.5008C960.652 -0.7415 1071.62 -25.1021 1083 42.5008C1085.4 56.7686 1071.71 71.3826 1059.96 83.9179C1046.4 98.3837 1035.44 110.081 1054.8 115.285C1058 116.143 1058.1 117.284 1057.06 118.31C1061.41 116.688 1068.73 114.185 1080.5 110.5C1136 93.1264 1230.57 204.65 1080.5 178.72Z" fill="url(#paint0_linear_1811_1192)" fill-opacity="0.65"/>
<defs>
<linearGradient id="paint0_linear_1811_1192" x1="982.354" y1="277.795" x2="1018.33" y2="-56.8857" gradientUnits="userSpaceOnUse">
<stop offset="0.03" stop-color="#E4EAF8" stop-opacity="0"/>
<stop offset="0.13" stop-color="#DFE9F9" stop-opacity="0.13"/>
<stop offset="0.37" stop-color="#D2E5FA" stop-opacity="0.44"/>
<stop offset="0.59" stop-color="#C8E3FB" stop-opacity="0.68"/>
<stop offset="0.77" stop-color="#C1E1FC" stop-opacity="0.85"/>
<stop offset="0.92" stop-color="#BDDFFD" stop-opacity="0.96"/>
<stop offset="1" stop-color="#BBDFFD"/>
</linearGradient>
</defs>
</svg>
