<svg width="348" height="227" viewBox="0 0 348 227" fill="none" xmlns="http://www.w3.org/2000/svg">
<g filter="url(#filter0_d_1811_1135)">
<path d="M343.373 211.33C343.373 215.559 282.185 219 206.686 219C131.188 219 70 215.559 70 211.33C70 207.101 131.206 203.625 206.686 203.625C282.167 203.625 343.373 207.101 343.373 211.33Z" fill="#E4EAF8"/>
<path d="M295.007 13.6483L294.539 13.2326C293.431 12.2485 291.737 12.3518 290.756 13.4633L287.973 16.6163C286.992 17.7278 287.095 19.4266 288.203 20.4106L288.672 20.8263C289.78 21.8104 291.473 21.7071 292.454 20.5956L295.237 17.4426C296.218 16.3311 296.115 14.6324 295.007 13.6483Z" fill="#FDB527"/>
<path d="M247.231 20.8446L247.699 20.4287C248.807 19.4445 248.91 17.7457 247.928 16.6344L245.145 13.4819C244.164 12.3706 242.47 12.2676 241.362 13.2518L240.894 13.6676C239.786 14.6519 239.683 16.3507 240.665 17.462L243.448 20.6145C244.429 21.7258 246.123 21.8288 247.231 20.8446Z" fill="#FDB527"/>
<path d="M272.547 8.30085V6.31177H263.365V8.30085C263.359 8.5351 263.272 8.7601 263.119 8.93684C262.966 9.11358 262.756 9.23091 262.525 9.26851C253.691 10.6388 245.698 15.3034 240.144 22.3297C234.591 29.356 231.886 38.2261 232.571 47.1662C233.256 56.1064 237.28 64.4577 243.839 70.5502C250.398 76.6426 259.008 80.0273 267.947 80.0273C276.886 80.0273 285.496 76.6426 292.055 70.5502C298.614 64.4577 302.638 56.1064 303.323 47.1662C304.008 38.2261 301.303 29.356 295.75 22.3297C290.196 15.3034 282.203 10.6388 273.369 9.26851C273.142 9.22718 272.936 9.10822 272.786 8.93183C272.636 8.75545 272.552 8.53251 272.547 8.30085Z" fill="#A62017"/>
<path d="M294.219 48.6968C296.585 34.1428 286.74 20.4209 272.23 18.048C257.72 15.6751 244.04 25.5499 241.675 40.1039C239.309 54.6579 249.154 68.3797 263.663 70.7526C278.173 73.1255 291.853 63.2508 294.219 48.6968Z" fill="#E4EAF8"/>
<path d="M267.956 44.4266H291.645C291.645 49.1226 290.257 53.7132 287.656 57.6178C285.055 61.5224 281.358 64.5657 277.033 66.3628C272.707 68.1598 267.948 68.6301 263.356 67.7139C258.764 66.7978 254.546 64.5364 251.236 61.2158C247.925 57.8952 245.671 53.6645 244.758 49.0588C243.844 44.453 244.313 39.6789 246.105 35.3404C247.896 31.0018 250.93 27.2936 254.823 24.6846C258.716 22.0756 263.292 20.6831 267.974 20.6831L267.956 44.4266Z" fill="#FDB527"/>
<path d="M274.388 4.93176H261.525C260.918 4.93176 260.337 4.69009 259.908 4.25994C259.479 3.82979 259.238 3.24637 259.238 2.63804C259.236 2.33532 259.293 2.03513 259.407 1.75477C259.521 1.47441 259.689 1.21943 259.901 1.00454C260.114 0.789648 260.367 0.6191 260.645 0.502711C260.924 0.386322 261.223 0.326407 261.525 0.326416H274.388C274.996 0.331145 275.577 0.576773 276.006 1.00978C276.434 1.44278 276.674 2.02805 276.674 2.63804C276.674 3.24637 276.433 3.82979 276.005 4.25994C275.576 4.69009 274.994 4.93176 274.388 4.93176Z" fill="#FDB527"/>
<path d="M271.994 4.93195H263.918V6.3476H271.994V4.93195Z" fill="#A62017"/>
<path d="M191.767 40.716L132.734 66.9432L136.503 75.4795L195.536 49.2522L191.767 40.716Z" fill="#EF8216"/>
<path d="M191.779 40.7712L191.064 48.1362C191.074 48.2674 191.074 48.3992 191.064 48.5304C190.94 49.0612 190.697 49.5566 190.354 49.9789C190.01 50.4012 189.575 50.7393 189.081 50.9675L142.114 71.7901C141.558 72.0475 140.943 72.1468 140.335 72.0773C139.727 72.0078 139.149 71.7721 138.666 71.3959L132.752 66.9877L157.764 55.8954L191.779 40.7712Z" fill="#FDB527"/>
<path d="M191.011 48.5303C190.887 49.0611 190.644 49.5565 190.3 49.9788C189.956 50.4011 189.521 50.7392 189.028 50.9674L142.114 71.79C141.558 72.0474 140.943 72.1467 140.335 72.0772C139.727 72.0077 139.149 71.772 138.666 71.3958L132.752 66.9876L157.764 55.8953L166.41 56.7196C169.706 57.023 173.024 56.4867 176.058 55.1606L191.011 48.5303Z" fill="#EF8216"/>
<path d="M166.088 57.2752C166.201 57.5317 166.263 57.8079 166.269 58.0882C166.275 58.3685 166.226 58.6473 166.125 58.9086C166.024 59.1699 165.872 59.4086 165.679 59.6111C165.486 59.8136 165.255 59.9758 164.999 60.0886C164.614 60.2582 164.188 60.3095 163.774 60.2362C163.36 60.1628 162.977 59.9681 162.673 59.6765C162.37 59.3849 162.159 59.0096 162.068 58.598C161.977 58.1864 162.01 57.757 162.162 57.364C162.314 56.971 162.579 56.6321 162.923 56.3901C163.268 56.1481 163.675 56.0139 164.096 56.0044C164.516 55.9949 164.929 56.1105 165.284 56.3367C165.639 56.5629 165.919 56.8895 166.088 57.2752Z" fill="#EF8216"/>
<path d="M239.443 92.0573H232.012C231.628 92.0573 231.26 91.9044 230.988 91.6322C230.717 91.36 230.564 90.9907 230.564 90.6058C230.564 90.2208 230.717 89.8516 230.988 89.5794C231.26 89.3072 231.628 89.1543 232.012 89.1543H239.443C239.827 89.1543 240.195 89.3072 240.467 89.5794C240.738 89.8516 240.891 90.2208 240.891 90.6058C240.891 90.9907 240.738 91.36 240.467 91.6322C240.195 91.9044 239.827 92.0573 239.443 92.0573Z" fill="#EEA840"/>
<path d="M229.492 177.158H154.995V183.609H229.492C232.491 183.612 235.446 182.883 238.101 181.484C240.756 180.085 243.032 178.059 244.731 175.581L250.448 167.23C252.797 163.757 254.042 159.653 254.021 155.457L244.66 169.112C242.968 171.582 240.704 173.605 238.063 175.006C235.421 176.407 232.481 177.146 229.492 177.158Z" fill="#BC7B1A"/>
<path d="M229.493 183.447H175.147C174.722 183.447 174.302 183.531 173.909 183.694C173.517 183.857 173.16 184.096 172.86 184.397C172.56 184.698 172.322 185.056 172.159 185.45C171.997 185.843 171.913 186.265 171.913 186.691C171.918 187.548 172.261 188.368 172.867 188.973C173.472 189.577 174.292 189.916 175.147 189.916H229.493C232.493 189.916 235.448 189.183 238.103 187.781C240.758 186.38 243.033 184.351 244.732 181.87L250.448 173.52C252.8 170.049 254.046 165.943 254.021 161.747L244.66 175.401C242.968 177.872 240.705 179.895 238.063 181.296C235.422 182.697 232.481 183.435 229.493 183.447Z" fill="#09C8B1"/>
<path d="M151.462 204.046C165.214 198.198 171.637 182.276 165.807 168.481C159.977 154.687 144.103 148.245 130.351 154.093C116.599 159.94 110.176 175.863 116.006 189.657C121.836 203.451 137.71 209.893 151.462 204.046Z" fill="#BC7B1A"/>
<path d="M124.642 186.959C125.407 190.962 127.539 194.572 130.67 197.168C133.802 199.764 137.738 201.184 141.801 201.184C145.864 201.184 149.8 199.764 152.932 197.168C156.064 194.572 158.195 190.962 158.961 186.959H124.642Z" fill="#BBDFFD"/>
<path d="M141.81 193.106C147.04 193.106 151.279 188.854 151.279 183.609C151.279 178.363 147.04 174.111 141.81 174.111C136.581 174.111 132.342 178.363 132.342 183.609C132.342 188.854 136.581 193.106 141.81 193.106Z" fill="#BC7B1A"/>
<path d="M303.849 189.862C307.263 175.264 298.232 160.655 283.679 157.231C269.126 153.808 254.562 162.866 251.148 177.463C247.735 192.06 256.765 206.669 271.318 210.093C285.871 213.517 300.436 204.459 303.849 189.862Z" fill="#BC7B1A"/>
<path d="M260.256 186.959C261.021 190.962 263.153 194.572 266.285 197.168C269.416 199.764 273.352 201.184 277.415 201.184C281.478 201.184 285.414 199.764 288.546 197.168C291.678 194.572 293.81 190.962 294.575 186.959H260.256Z" fill="#BBDFFD"/>
<path d="M277.425 193.106C282.654 193.106 286.893 188.854 286.893 183.609C286.893 178.363 282.654 174.111 277.425 174.111C272.195 174.111 267.956 178.363 267.956 183.609C267.956 188.854 272.195 193.106 277.425 193.106Z" fill="#BC7B1A"/>
<path d="M242.927 183.609C243.999 184.702 307.509 183.609 307.509 183.609C307.509 183.609 309.564 149.561 277.424 147.178C245.285 144.795 242.927 183.609 242.927 183.609Z" fill="#EEA840"/>
<path d="M267.366 132.09L265.115 130.799C264.131 130.245 263.32 129.426 262.775 128.434L245.41 96.5372C243.623 92.9532 246.321 92.2364 248 93.5804C250.305 95.2561 253.024 96.2664 255.861 96.5013C255.927 96.5063 255.994 96.4974 256.057 96.4753C256.119 96.4532 256.177 96.4183 256.226 96.3729C256.274 96.3275 256.313 96.2725 256.339 96.2113C256.366 96.1501 256.379 96.0841 256.379 96.0175V77.9187C256.382 77.8521 256.37 77.7857 256.346 77.7237C256.322 77.6617 256.285 77.6054 256.238 77.5583C256.191 77.5112 256.135 77.4743 256.073 77.45C256.011 77.4256 255.945 77.4144 255.879 77.4169C253.904 77.5195 251.978 78.0694 250.245 79.0252C248.513 79.9811 247.018 81.3182 245.874 82.9361C245.04 84.0606 243.879 84.8992 242.552 85.3374L238.979 86.5559C238.376 86.7664 237.821 87.0952 237.346 87.5232C236.871 87.9512 236.486 88.4698 236.213 89.0486C235.941 89.6275 235.786 90.2551 235.757 90.8947C235.729 91.5343 235.828 92.1732 236.049 92.774L247.393 127.341C249.165 132.772 248.748 138.682 246.232 143.809L238.603 159.435C237.222 162.271 235.075 164.662 232.406 166.334C229.737 168.007 226.654 168.895 223.507 168.897H212.341C208.469 168.976 204.616 168.332 200.979 166.997C187.902 161.89 186.187 143.917 197.746 135.925L212.341 125.818H140.613C130.412 130.926 121.404 138.141 114.18 146.989C106.957 155.838 101.682 166.119 98.7012 177.158H229.474C232.475 177.157 235.43 176.425 238.085 175.023C240.74 173.621 243.014 171.592 244.713 169.112L254.074 155.457C256.679 151.66 260.44 148.812 264.794 147.339L265.651 147.071C266.902 146.659 268.039 145.958 268.97 145.024C269.901 144.09 270.6 142.949 271.011 141.695C271.588 139.917 271.54 137.995 270.878 136.247C270.215 134.5 268.975 133.033 267.366 132.09Z" fill="#09C8B1"/>
<path d="M256.844 77.3988H259.238C259.996 77.3988 260.723 77.7009 261.259 78.2386C261.795 78.7763 262.096 79.5055 262.096 80.2659V93.6698C262.096 94.4302 261.795 95.1595 261.259 95.6972C260.723 96.2349 259.996 96.537 259.238 96.537H256.844C256.726 96.537 256.612 96.4898 256.528 96.4058C256.445 96.3217 256.397 96.2078 256.397 96.089V77.8468C256.397 77.728 256.445 77.614 256.528 77.53C256.612 77.446 256.726 77.3988 256.844 77.3988Z" fill="#EEA840"/>
<path d="M237.174 97.0747H229.51C229.208 97.1021 228.904 97.0663 228.617 96.9693C228.33 96.8724 228.067 96.7165 227.843 96.5117C227.619 96.3068 227.441 96.0575 227.319 95.7796C227.196 95.5016 227.133 95.2012 227.133 94.8974C227.133 94.5937 227.196 94.2932 227.319 94.0153C227.441 93.7374 227.619 93.488 227.843 93.2832C228.067 93.0783 228.33 92.9225 228.617 92.8255C228.904 92.7286 229.208 92.6927 229.51 92.7202H237.174C237.288 92.7216 237.4 92.6964 237.503 92.6466C237.605 92.5969 237.694 92.5239 237.764 92.4335C237.836 92.3445 237.885 92.2391 237.907 92.1266C237.928 92.0141 237.922 91.8979 237.889 91.7884C237.787 91.2467 237.893 90.6866 238.186 90.2201C238.478 89.7535 238.936 89.415 239.466 89.2723C239.997 89.1296 240.562 89.1932 241.048 89.4504C241.534 89.7076 241.905 90.1395 242.087 90.6594C242.29 91.415 242.317 92.2075 242.165 92.9751C242.014 93.7428 241.688 94.4651 241.212 95.0857C240.737 95.7064 240.125 96.2087 239.425 96.5537C238.725 96.8986 237.954 97.0769 237.174 97.0747Z" fill="#BC7B1A"/>
<path d="M165.642 125.818L169.555 117.396C170.262 115.87 171.39 114.579 172.805 113.674C174.22 112.769 175.863 112.288 177.54 112.289H215.736C217.866 112.291 219.923 113.068 221.526 114.474C223.129 115.881 224.169 117.823 224.454 119.94C224.554 120.664 224.498 121.401 224.289 122.101C224.081 122.801 223.725 123.448 223.245 123.999C222.766 124.549 222.175 124.99 221.511 125.291C220.847 125.593 220.127 125.748 219.398 125.746L165.642 125.818Z" fill="#BC7B1A"/>
<path d="M128.787 121.875H171.216C171.737 121.875 172.237 122.083 172.606 122.453C172.974 122.822 173.181 123.324 173.181 123.847C173.181 124.369 172.974 124.871 172.606 125.24C172.237 125.61 171.737 125.818 171.216 125.818H128.787C128.265 125.818 127.765 125.61 127.397 125.24C127.028 124.871 126.821 124.369 126.821 123.847C126.821 123.324 127.028 122.822 127.397 122.453C127.765 122.083 128.265 121.875 128.787 121.875Z" fill="#BC7B1A"/>
<path d="M175.182 183.609L179.452 171.549C185.491 154.471 174.093 135.512 153.905 138.398C133.717 141.283 107.456 156.46 100.31 183.609H175.182Z" fill="#EEA840"/>
<path d="M154.834 46.0397C154.397 45.5298 153.78 45.2109 153.112 45.1507C152.445 45.0904 151.781 45.2937 151.261 45.7171L113.744 77.2199C113.236 77.6576 112.918 78.277 112.858 78.9463C112.797 79.6156 113 80.282 113.422 80.8038L115.209 83.0258L156.745 48.2259L154.834 46.0397Z" fill="#A62017"/>
<path d="M175.897 109.117L168.143 71.9694L115.155 83.0795L122.909 120.227C123.05 120.898 123.451 121.486 124.024 121.862C124.596 122.238 125.293 122.372 125.964 122.234L173.896 112.235C174.234 112.167 174.555 112.032 174.84 111.837C175.125 111.642 175.368 111.392 175.555 111.101C175.742 110.81 175.868 110.485 175.927 110.144C175.986 109.803 175.975 109.454 175.897 109.117Z" fill="#A62017"/>
<path d="M115.155 83.8499C115.579 83.8499 115.923 83.5049 115.923 83.0793C115.923 82.6538 115.579 82.3088 115.155 82.3088C114.731 82.3088 114.387 82.6538 114.387 83.0793C114.387 83.5049 114.731 83.8499 115.155 83.8499Z" fill="#A62017"/>
<path d="M162.623 167.122H120.979C120.778 167.122 120.579 167.082 120.394 167.005C120.208 166.927 120.04 166.813 119.899 166.67C119.758 166.527 119.646 166.357 119.571 166.17C119.496 165.983 119.458 165.783 119.461 165.581C119.461 165.176 119.62 164.786 119.904 164.498C120.189 164.209 120.575 164.045 120.979 164.04H162.623C163.027 164.045 163.413 164.209 163.698 164.498C163.982 164.786 164.141 165.176 164.141 165.581C164.144 165.783 164.106 165.983 164.031 166.17C163.956 166.357 163.844 166.527 163.703 166.67C163.562 166.813 163.393 166.927 163.208 167.005C163.023 167.082 162.824 167.122 162.623 167.122Z" fill="#BC7B1A"/>
<path d="M162.623 172.606H120.979C120.778 172.606 120.579 172.566 120.394 172.488C120.208 172.411 120.04 172.297 119.899 172.154C119.758 172.01 119.646 171.84 119.571 171.653C119.496 171.466 119.458 171.266 119.461 171.065C119.461 170.659 119.62 170.27 119.904 169.981C120.189 169.693 120.575 169.529 120.979 169.524H162.623C163.027 169.529 163.413 169.693 163.698 169.981C163.982 170.27 164.141 170.659 164.141 171.065C164.144 171.266 164.106 171.466 164.031 171.653C163.956 171.84 163.844 172.01 163.703 172.154C163.562 172.297 163.393 172.411 163.208 172.488C163.023 172.566 162.824 172.606 162.623 172.606Z" fill="#BC7B1A"/>
<path d="M162.623 178.089H120.979C120.778 178.089 120.579 178.049 120.394 177.972C120.208 177.894 120.04 177.78 119.899 177.637C119.758 177.494 119.646 177.323 119.571 177.137C119.496 176.95 119.458 176.75 119.461 176.548C119.461 176.144 119.621 175.757 119.905 175.471C120.19 175.186 120.576 175.025 120.979 175.025H162.623C163.026 175.025 163.412 175.186 163.697 175.471C163.981 175.757 164.141 176.144 164.141 176.548C164.144 176.75 164.106 176.95 164.031 177.137C163.956 177.323 163.844 177.494 163.703 177.637C163.562 177.78 163.393 177.894 163.208 177.972C163.023 178.049 162.824 178.089 162.623 178.089Z" fill="#BC7B1A"/>
<path d="M221.597 68.9827L157.87 58.5839L156.376 67.7989L220.103 78.1977L221.597 68.9827Z" fill="#EF8216"/>
<path d="M216.951 74.8185L221.578 69.0484L157.835 58.6371L160.39 65.5899C160.611 66.1585 160.973 66.6611 161.442 67.0499C161.911 67.4388 162.471 67.7011 163.07 67.812L213.717 76.0729C214.319 76.1689 214.935 76.1033 215.503 75.883C216.071 75.6627 216.57 75.2954 216.951 74.8185Z" fill="#FDB527"/>
<path d="M191.047 68.7976C190.979 69.2123 190.79 69.5977 190.505 69.9053C190.219 70.2129 189.849 70.429 189.441 70.5264C189.034 70.6238 188.607 70.5982 188.213 70.4528C187.82 70.3074 187.479 70.0488 187.232 69.7093C186.985 69.3698 186.843 68.9646 186.825 68.5447C186.807 68.1247 186.912 67.7088 187.129 67.349C187.346 66.9893 187.664 66.7019 188.043 66.5228C188.422 66.3437 188.846 66.281 189.26 66.3426C189.539 66.384 189.807 66.4807 190.048 66.627C190.29 66.7733 190.5 66.9663 190.666 67.1948C190.832 67.4233 190.951 67.6826 191.017 67.9578C191.082 68.233 191.092 68.5184 191.047 68.7976Z" fill="#EF8216"/>
<path d="M201.98 148.934L223.615 110.98C224.604 109.412 225.91 108.069 227.448 107.038C228.987 106.007 230.724 105.311 232.547 104.995C239.087 104.367 245.682 105.332 251.77 107.809C257.439 110.199 262.031 114.601 264.669 120.173C265.902 122.789 262.882 127.126 258.273 129.33L207.733 153.898C202.444 156.496 199.282 153.665 201.98 148.934Z" fill="#FDB527"/>
<path d="M224.061 110.281C221.917 110.281 220.988 108.239 223.293 106.214C225.771 104.388 228.776 103.425 231.85 103.472C239.139 103.032 246.433 104.257 253.181 107.056C259.607 109.741 264.835 114.685 267.884 120.962C268.192 121.925 268.236 122.953 268.013 123.94C267.79 124.926 267.307 125.834 266.616 126.57C264.597 129.33 260.22 130.495 258.88 128.739C254.45 122.987 241.908 110.228 224.061 110.281Z" fill="#EF8216"/>
<path d="M242.659 121.678C246.571 121.212 248.429 123.685 246.678 127.287C245.597 129.226 244.089 130.89 242.268 132.155C240.448 133.419 238.363 134.248 236.174 134.58C232.261 134.921 230.671 132.269 232.511 128.739C233.588 126.892 235.054 125.303 236.807 124.084C238.56 122.864 240.557 122.043 242.659 121.678Z" fill="#A62017"/>
<path d="M230.189 117.611C233.244 117.198 234.548 119.134 233.047 121.965C232.145 123.489 230.926 124.801 229.475 125.812C228.023 126.823 226.372 127.509 224.633 127.825C221.596 128.165 220.435 126.122 222.007 123.309C222.904 121.843 224.094 120.58 225.502 119.599C226.911 118.619 228.506 117.941 230.189 117.611Z" fill="#A62017"/>
<path d="M219.56 132.609C222.936 132.287 224.294 134.706 222.489 137.985C221.494 139.749 220.114 141.265 218.453 142.419C216.792 143.574 214.892 144.337 212.896 144.651C209.537 144.884 208.394 142.322 210.252 138.989C211.267 137.327 212.621 135.9 214.225 134.8C215.829 133.701 217.647 132.954 219.56 132.609Z" fill="#A62017"/>
<path d="M225.133 139.401C222.275 137.34 226.259 133.38 227.063 130.441C227.063 130.459 233.066 132.143 225.133 139.401Z" fill="#09C8B1"/>
<path d="M240.551 118.345C239.943 121.176 236.442 122.503 234.316 124.474C234.316 124.474 234.191 120.424 240.551 118.345Z" fill="#09C8B1"/>
<path d="M214.932 129.402C218.505 127.61 218.809 129.796 220.613 130.154C220.613 130.154 214.968 133.738 214.932 129.402Z" fill="#09C8B1"/>
<path d="M204.838 147.268C208.518 145.476 208.751 147.931 210.537 148.432C210.537 148.432 204.677 152.178 204.838 147.268Z" fill="#09C8B1"/>
<path d="M229.563 113.202C228.599 116.929 223.99 118.721 221.113 121.356C221.113 121.356 221.256 116.034 229.563 113.202Z" fill="#09C8B1"/>
<path d="M233.226 129.384C233.887 127.592 232.654 126.445 230.492 126.965C229.383 127.253 228.349 127.781 227.463 128.511C226.578 129.241 225.862 130.157 225.365 131.194L224.4 131.409C225.021 130.117 225.915 128.977 227.019 128.068C228.124 127.158 229.413 126.5 230.796 126.14C233.494 125.495 235.048 126.839 234.226 129.169L233.226 129.384Z" fill="#BBDFFD"/>
<path d="M226.419 120.818C227.152 122.108 229.707 121.84 232.136 120.191C234.566 118.542 235.87 116.159 235.066 114.923L236.138 114.188C237.156 115.747 235.531 118.704 232.565 120.782C229.599 122.861 226.312 123.184 225.419 121.553L226.419 120.818Z" fill="#BBDFFD"/>
<path d="M218.058 131.265C215.575 132.681 213.771 135.172 214.057 136.838C214.342 138.505 216.647 138.756 219.22 137.304L219.362 138.075C216.147 139.867 213.271 139.616 212.931 137.483C212.592 135.351 214.825 132.305 217.915 130.531L218.058 131.265Z" fill="#BBDFFD"/>
<path d="M5 166C9.5 169 58 194 80.7289 169.148C86.2671 161.137 86.9103 150.708 85.9813 141.014C85.8406 137.323 84.8304 133.718 83.0335 130.495C82.116 128.899 80.7517 127.609 79.1098 126.784C77.4679 125.959 75.6207 125.635 73.7972 125.854C68.3126 126.965 66.2046 134.276 68.1876 139.508C69.7914 143.238 72.7392 146.223 76.442 147.868C80.1448 149.512 84.3298 149.695 88.1608 148.379C96.6825 145.028 100.398 135.136 102.614 126.23C104.829 117.324 107.098 107.414 114.601 102.164" stroke="#F4C785" stroke-width="0.75" stroke-miterlimit="10" stroke-dasharray="3 3"/>
<path d="M138.862 98.3829L286.911 97.4869C287.148 97.4869 287.375 97.5813 287.543 97.7493C287.71 97.9173 287.804 98.1452 287.804 98.3829C287.807 98.4997 287.786 98.6158 287.743 98.7244C287.7 98.833 287.636 98.9319 287.554 99.0154C287.473 99.0988 287.375 99.1651 287.268 99.2103C287.161 99.2556 287.045 99.2789 286.929 99.2788L138.862 98.3829Z" fill="#BBDFFD"/>
<path d="M237.424 129.975L286.911 129.079C287.029 129.074 287.146 129.093 287.257 129.135C287.367 129.177 287.468 129.241 287.553 129.323C287.638 129.405 287.706 129.504 287.752 129.613C287.798 129.722 287.822 129.839 287.822 129.957C287.824 130.075 287.804 130.192 287.761 130.301C287.718 130.411 287.654 130.511 287.573 130.596C287.492 130.681 287.395 130.749 287.287 130.796C287.18 130.843 287.064 130.869 286.947 130.871L237.424 129.975Z" fill="#BBDFFD"/>
<path d="M126.821 110.443L271.994 109.547C272.231 109.547 272.458 109.641 272.625 109.809C272.793 109.977 272.887 110.205 272.887 110.443C272.887 110.68 272.793 110.908 272.625 111.076C272.458 111.244 272.231 111.339 271.994 111.339L126.821 110.443Z" fill="#BBDFFD"/>
<path d="M190.403 106.465L299.559 105.569C299.676 105.566 299.792 105.587 299.9 105.63C300.008 105.673 300.107 105.738 300.19 105.819C300.273 105.901 300.339 105.999 300.384 106.106C300.43 106.214 300.453 106.33 300.453 106.447C300.453 106.686 300.359 106.916 300.192 107.087C300.025 107.258 299.798 107.356 299.559 107.361L190.403 106.465Z" fill="#BBDFFD"/>
</g>
<defs>
<filter id="filter0_d_1811_1135" x="0.791992" y="0.326416" width="346.581" height="226.674" filterUnits="userSpaceOnUse" color-interpolation-filters="sRGB">
<feFlood flood-opacity="0" result="BackgroundImageFix"/>
<feColorMatrix in="SourceAlpha" type="matrix" values="0 0 0 0 0 0 0 0 0 0 0 0 0 0 0 0 0 0 127 0" result="hardAlpha"/>
<feOffset dy="4"/>
<feGaussianBlur stdDeviation="2"/>
<feComposite in2="hardAlpha" operator="out"/>
<feColorMatrix type="matrix" values="0 0 0 0 0 0 0 0 0 0 0 0 0 0 0 0 0 0 0.25 0"/>
<feBlend mode="normal" in2="BackgroundImageFix" result="effect1_dropShadow_1811_1135"/>
<feBlend mode="normal" in="SourceGraphic" in2="effect1_dropShadow_1811_1135" result="shape"/>
</filter>
</defs>
</svg>
