<svg width="332" height="216" viewBox="0 0 332 216" fill="none" xmlns="http://www.w3.org/2000/svg">
<path d="M273.373 208.384C273.373 212.584 212.185 216 136.686 216C61.1882 216 0 212.584 0 208.384C0 204.185 61.2061 200.733 136.686 200.733C212.167 200.733 273.373 204.185 273.373 208.384Z" fill="#E4EAF8"/>
<path d="M213.355 183.028C216.661 181.249 222.395 187.815 225.861 190.537C229.327 193.259 235.187 194.754 240.368 194.754C245.549 194.754 248.764 194.754 249.8 197.85C249.8 197.85 251.301 197.583 251.873 200.306C252.444 203.028 247.442 208.384 235.294 208.384H190.631L186.611 187.992L213.355 183.028Z" fill="#A62017"/>
<path d="M69.4873 204.665H84.6191C88.9603 204.665 120.582 198.758 145.557 167.049L185.486 191.693L202.44 175.038L156.312 125.856C152.817 122.131 147.986 119.93 142.871 119.733C137.755 119.537 132.769 121.36 128.996 124.806L94.3377 156.515L69.4873 204.665Z" fill="#BC7B1A"/>
<path d="M202.368 175.038C205.941 179.665 213.355 183.028 213.355 183.028C213.355 183.028 198.402 190.75 189.487 187.69L202.368 175.038Z" fill="#FFCAC5"/>
<path d="M128.549 133.828C128.549 133.828 101.269 134.984 101.269 133.828V108.08L109.701 93.4181L112.024 89.3611C114.328 93.4893 119.688 108.312 123.69 119.7C126.53 127.564 128.549 133.828 128.549 133.828Z" fill="#A62017"/>
<path d="M123.065 117.902C115.4 117.902 105.557 112.457 108.772 104.539L109.648 93.4181L111.97 89.3611C114.328 93.4893 119.063 106.425 123.065 117.902Z" fill="#DE3F2C"/>
<path d="M157.562 141.782C157.562 141.782 140.287 154.238 140.394 153.917C140.501 153.597 126.388 139.184 126.388 139.184L149.863 129.326L157.562 141.782Z" fill="#A62017"/>
<path d="M164.423 138.081C163.476 138.081 159.617 142.209 154.758 142.209C149.898 142.209 147.147 137.618 147.808 132.084C148.719 124.415 161.707 120.091 161.707 120.091L164.423 138.081Z" fill="#FFCAC5"/>
<path d="M155.115 88.0444L130.104 132.832C130.049 132.933 130.021 133.046 130.023 133.161C130.024 133.276 130.055 133.388 130.112 133.488C130.169 133.587 130.251 133.671 130.349 133.731C130.448 133.79 130.56 133.824 130.675 133.828H154.311C154.956 133.835 155.592 133.674 156.155 133.362C156.719 133.05 157.192 132.598 157.527 132.049L180.305 93.4004C180.492 93.0846 180.6 92.7288 180.62 92.3629C180.641 91.997 180.573 91.6315 180.422 91.297C180.272 90.9625 180.043 90.6688 179.756 90.4403C179.468 90.2119 179.129 90.0554 178.768 89.9839L159.117 86.2294C158.343 86.0796 157.542 86.1739 156.824 86.4993C156.107 86.8246 155.509 87.3648 155.115 88.0444Z" fill="#09C8B1"/>
<path d="M113.56 94.5392C113.494 96.3375 112.912 98.0791 111.881 99.557C94.0157 127.031 98.1247 147.938 102.359 158.277C102.672 159.054 102.789 159.896 102.699 160.729C102.608 161.562 102.314 162.36 101.841 163.053C101.368 163.746 100.731 164.312 99.986 164.702C99.2414 165.091 98.412 165.292 97.5709 165.287H50.0674C36.9008 165.287 31.434 174.967 31.0767 186.765C30.8541 189.872 31.3285 192.99 32.4657 195.892C33.6028 198.794 35.3741 201.408 37.6511 203.544C27.7538 197.138 23.9306 178.277 22.8945 162.351V162.245C20.965 131.586 28.9329 99.3257 38.8123 89.7171C38.8123 89.7171 51.318 78.0087 78.9197 78.0087C100.108 77.9553 113.56 85.3932 113.56 94.5392Z" fill="#DE3F2C"/>
<path d="M102.895 117.102C77.5798 120.162 65.7709 109.112 62.323 100.625L59.3037 93.2047C31.6306 109.041 22.9303 146.586 22.8945 162.28V162.387C23.9307 178.402 27.6645 198.099 37.6512 203.58C35.3812 201.439 33.6147 198.824 32.4781 195.923C31.3415 193.022 30.863 189.907 31.0768 186.8C31.4341 175.003 36.9008 165.323 50.0675 165.323H97.5173C98.3704 165.331 99.2121 165.127 99.9666 164.731C100.721 164.334 101.365 163.757 101.84 163.051C102.314 162.345 102.606 161.533 102.687 160.687C102.768 159.841 102.637 158.988 102.305 158.206C99.0359 150.234 95.8202 135.874 102.895 117.102Z" fill="#A62017"/>
<path d="M92.1756 79.0585C94.1587 82.6172 90.2283 93.8629 79.67 91.1049C75.0868 89.9251 71.0921 87.1228 68.4328 83.2222C68.1694 82.8651 67.9307 82.4906 67.7182 82.1012C67.6205 81.9365 67.5368 81.7639 67.4681 81.5852C67.1601 80.8298 67.0806 80.0012 67.2393 79.2013C67.398 78.4015 67.788 77.6653 68.3614 77.0833C74.507 70.6064 81.1707 55.108 81.1707 55.108L94.516 70.9267C92.39 70.9267 91.1752 73.1509 91.3002 75.7132C91.3351 76.8798 91.6344 78.0234 92.1756 79.0585Z" fill="#FFE1CB"/>
<path d="M94.4627 70.8377C92.3367 70.8377 91.1219 73.0619 91.2469 75.6243C87.6739 74.094 75.8293 70.2861 77.598 78.5247C79.3666 86.7632 71.8454 87.5995 68.4153 83.2044C68.1322 82.8611 67.8922 82.4846 67.7007 82.0834C67.6029 81.9187 67.5192 81.7461 67.4505 81.5674C67.1426 80.812 67.063 79.9834 67.2218 79.1835C67.3805 78.3837 67.7705 77.6475 68.3438 77.0655C74.4894 70.5886 81.1531 55.0901 81.1531 55.0901L94.4627 70.8377Z" fill="#FFCAC5"/>
<path d="M76.0079 59.8769C76.3473 59.3431 77.0977 59.0406 77.4014 58.5068C77.6309 57.9299 77.7214 57.3074 77.6655 56.6893C77.6097 56.0713 77.4091 55.4749 77.0798 54.9481C76.387 53.8688 75.9304 52.6562 75.7399 51.3893C75.7106 51.0703 75.7462 50.7488 75.8444 50.4438C75.9426 50.1388 76.1015 49.8567 76.3116 49.6142C76.5216 49.3718 76.7786 49.1739 77.0672 49.0326C77.3557 48.8912 77.6699 48.8092 77.9909 48.7914C77.4969 48.5082 77.0998 48.0836 76.8513 47.5727C76.6028 47.0618 76.5143 46.4882 76.5975 45.9266C76.8056 44.8222 77.2438 43.7736 77.8837 42.8482C78.5313 41.9231 78.9813 40.8753 79.2058 39.7699C79.3487 38.5777 78.9556 37.3499 79.2058 36.2111C79.3349 35.5802 79.6198 34.9911 80.0346 34.4972C80.4494 34.0033 80.9811 33.62 81.5818 33.3819C82.2071 33.1283 82.8815 33.0174 83.5555 33.0575C84.2294 33.0975 84.8858 33.2874 85.4764 33.6132C86.6759 32.3507 88.1957 31.4344 89.875 30.9615C91.5543 30.4885 93.3308 30.4764 95.0164 30.9264C96.803 31.4068 98.3036 32.3499 100.019 32.8837C101.412 33.2929 102.895 33.4353 104.306 33.7556C105.74 33.9917 107.061 34.6774 108.076 35.7129C108.534 36.2247 108.787 36.8865 108.787 37.5723C108.787 38.2581 108.534 38.92 108.076 39.4318C108.329 39.2807 108.613 39.1877 108.907 39.1597C109.2 39.1318 109.497 39.1694 109.774 39.27C110.051 39.3706 110.303 39.5316 110.51 39.7412C110.716 39.9508 110.874 40.2038 110.97 40.4817C111.452 41.9585 110.791 44.6988 106.933 46.4604C106.522 47.9373 105.378 48.4889 103.913 49.2006C102.41 49.912 100.689 50.0203 99.1076 49.5031C97.7855 49.0761 96.3206 48.2042 95.1058 48.8448C94.7182 49.0955 94.4112 49.4518 94.2212 49.8714C94.0311 50.291 93.9661 50.756 94.0338 51.2113C94.0338 52.1188 94.409 52.9907 94.409 53.916C94.3842 54.6094 94.1805 55.2847 93.8175 55.8768C93.4545 56.469 92.9445 56.958 92.3367 57.2968C91.697 57.651 90.9844 57.8544 90.2535 57.8914C89.5226 57.9284 88.7929 57.7981 88.1205 57.5103C87.2851 57.0674 86.4849 56.5618 85.7266 55.9979C84.9511 55.4273 83.9863 55.1727 83.0289 55.2861C82.0614 55.5926 81.2289 56.2208 80.6707 57.0655C79.7953 58.1865 78.1339 62.2257 77.7051 62.2079C77.2763 62.1901 75.1504 61.1759 76.0079 59.8769Z" fill="#844635"/>
<path d="M84.3509 52.7593C84.3509 52.7593 82.5644 47.7592 79.7596 48.3998C75.2218 49.4497 78.5269 58.2576 82.8324 58.4533C82.923 60.6559 83.5696 62.8003 84.7125 64.6881C85.8553 66.5759 87.4575 68.1463 89.371 69.2542C96.0705 73.3824 103.163 69.4499 105.61 59.1295C108.058 48.8091 106.879 45.9265 106.879 45.9265C106.879 45.9265 104.36 47.7058 97.9463 43.9691C91.0325 39.9299 89.4604 46.229 89.9606 50.2326C90.6573 55.7131 84.3509 52.7593 84.3509 52.7593Z" fill="#FFE1CB"/>
<path d="M160.26 124.433H160.153C159.841 124.554 159.494 124.555 159.181 124.437C158.868 124.318 158.609 124.089 158.456 123.792C158.294 123.495 158.249 123.149 158.328 122.821C158.407 122.493 158.605 122.205 158.885 122.013L165.78 117.209C165.985 117.064 166.216 116.962 166.46 116.907C166.705 116.853 166.958 116.848 167.204 116.893C167.451 116.938 167.686 117.032 167.895 117.168C168.105 117.305 168.285 117.482 168.425 117.689L168.907 118.401C169.168 118.785 169.277 119.251 169.215 119.711C169.152 120.17 168.922 120.591 168.567 120.892L166.584 122.547V123.881L168.371 124.664C168.509 124.726 168.626 124.826 168.708 124.952C168.791 125.078 168.835 125.225 168.835 125.376V126.639C168.842 126.827 168.778 127.011 168.657 127.155L168.174 127.689C168.106 127.767 168.055 127.859 168.025 127.958C167.995 128.057 167.986 128.161 168 128.264C168.013 128.367 168.049 128.465 168.103 128.553C168.158 128.641 168.231 128.717 168.317 128.775L168.55 128.953C168.69 129.047 168.806 129.174 168.887 129.323C168.968 129.472 169.011 129.638 169.014 129.807V131.088C169.011 131.277 168.958 131.461 168.861 131.624C168.763 131.786 168.625 131.92 168.46 132.013L167.228 132.689H167.496C167.664 132.742 167.811 132.845 167.917 132.986C168.023 133.126 168.082 133.297 168.085 133.472V135.358C168.081 135.57 167.999 135.773 167.853 135.928L166.852 136.924C166.187 137.582 165.289 137.952 164.351 137.956H157.473C157.002 137.967 156.536 137.854 156.123 137.629C155.709 137.404 155.361 137.075 155.115 136.675L154.793 136.017L152.828 136.8C152.396 136.959 151.919 136.947 151.496 136.764C151.074 136.582 150.738 136.244 150.559 135.821C150.405 135.439 150.388 135.016 150.512 134.624C150.636 134.231 150.893 133.893 151.238 133.668L155.204 131.266L154.454 131.586C154.253 131.679 154.037 131.731 153.816 131.74C153.595 131.749 153.374 131.715 153.167 131.639C152.959 131.563 152.769 131.447 152.607 131.297C152.444 131.148 152.313 130.968 152.221 130.768C152.051 130.404 152.025 129.99 152.148 129.607C152.27 129.225 152.532 128.903 152.882 128.703L160.26 124.433Z" fill="#FFE1CB"/>
<path d="M168.567 120.945L164.297 123.436L166.584 123.917V122.6L168.567 120.945Z" fill="#FFCAC5"/>
<path d="M143.109 183.722L158.581 193.9C158.581 193.9 165.834 197.032 174.141 181.035L163.797 170.216L143.109 183.722Z" fill="#FFE1CB"/>
<path d="M36.651 170.483C33.078 174.416 31.2914 180.234 31.077 186.676C31.045 188.036 31.0927 189.396 31.22 190.75C31.6574 195.558 33.8857 200.029 37.4665 203.283C41.0472 206.536 45.721 208.337 50.568 208.331H69.4872C87.9776 208.331 93.3729 190.395 103.788 161.373L143.092 183.669L168.55 168.437L121.171 123.436C115.756 118.294 108.515 115.498 101.035 115.661C93.5544 115.825 86.4438 118.934 81.2603 124.308L36.6867 170.572L36.651 170.483Z" fill="#EEA840"/>
<path d="M103.788 161.426L94.2661 156.515C94.2661 156.515 101.984 166.497 97.9463 177.583L103.788 161.426Z" fill="#BC7B1A"/>
<path d="M163.744 191.409C161.616 192.738 159.046 193.174 156.598 192.619L148.523 187.281C148.523 187.281 146.2 192.512 147.326 203.153C147.326 203.153 144.86 203.349 148.076 208.349H216.75C218.786 203.135 216.75 203.438 216.75 203.438C216.208 201.48 215.01 199.766 213.355 198.58C213.355 198.58 189.773 192.548 187.879 189.683C184.95 185.323 178.5 179.007 175.91 178.206C171.89 176.889 171.211 186.16 163.779 191.32L163.744 191.409Z" fill="#DE3F2C"/>
<path d="M143.092 183.722L167.549 174.131L164.476 170.928L143.092 183.722Z" fill="#FFCAC5"/>
<path d="M142.484 133.259L140.698 131.764H134.32L138.143 129.326L138.858 130.287V131.764H140.644L141.68 129.486C141.707 129.369 141.707 129.247 141.68 129.13V127.671C141.68 127.548 141.655 127.426 141.605 127.313C141.556 127.2 141.485 127.098 141.394 127.013L138.447 124.451C138.174 124.214 137.84 124.059 137.483 124.002C137.126 123.946 136.761 123.99 136.428 124.13L132.212 125.999L130.104 123.935C129.774 123.605 129.343 123.396 128.879 123.341C128.415 123.286 127.947 123.388 127.549 123.632L123.136 126.283C122.189 126.848 121.378 127.614 120.76 128.525L118.116 132.404H110.22C113.578 132.404 116.526 150.43 110.22 150.43H123.994C127.031 150.43 131.64 146.995 133.802 145.269C134.164 144.973 134.455 144.601 134.656 144.18C134.857 143.758 134.962 143.298 134.963 142.832V140.892H138.536C138.929 140.892 139.306 140.736 139.585 140.46C139.863 140.183 140.019 139.807 140.019 139.415V138.205C140.021 137.842 139.886 137.491 139.641 137.221C139.397 136.951 139.06 136.782 138.697 136.746L136.66 136.533H140.019L141.359 136.408C141.716 136.385 142.058 136.255 142.34 136.036C142.623 135.816 142.833 135.517 142.942 135.178C143.052 134.838 143.057 134.474 142.956 134.132C142.855 133.789 142.654 133.485 142.377 133.259H142.484Z" fill="#FFE1CB"/>
<path d="M132.212 125.999L124.887 129.059L130.14 123.935L132.212 125.999Z" fill="#FFCAC5"/>
<path d="M110.256 132.405L74.5253 130.429L59.3577 93.0624C58.358 90.1365 56.2322 87.726 53.448 86.3611C50.6639 84.9963 47.4494 84.789 44.5118 85.7847C41.5741 86.7805 39.154 88.8978 37.7837 91.6708C36.4134 94.4438 36.2052 97.6455 37.2049 100.571L51.8722 139.718C53.0442 142.857 55.1536 145.563 57.9165 147.472C60.6794 149.381 63.9631 150.401 67.3256 150.394H110.202C116.562 150.43 113.614 132.405 110.256 132.405Z" fill="#DE3F2C"/>
<path d="M177.268 10.0541C176.857 7.88409 175.723 5.91543 174.051 4.46585C172.378 3.01627 170.264 2.17035 168.049 2.06464C165.638 2.20137 163.356 3.19964 161.624 4.87631C159.891 6.55298 158.823 8.79563 158.617 11.1929C157.226 9.54363 155.494 8.21289 153.539 7.2916C151.584 6.37032 149.453 5.8802 147.29 5.85473C138.465 5.85473 131.211 13.9687 131.211 23.9866C131.184 27.8445 132.296 31.6252 134.409 34.8587C131.569 36.8144 129.241 39.4204 127.622 42.4578C126.002 45.4952 125.138 48.8754 125.102 52.3144C125.102 64.4676 135.678 74.3254 148.719 74.3254C151.6 74.3393 154.461 73.8453 157.17 72.8663C162.531 78.1054 169.722 81.0711 177.232 81.1404C194.543 81.1404 208.568 65.2327 208.585 45.5528C208.603 25.8728 194.579 10.0719 177.268 10.0541Z" fill="#96BCF4"/>
<path d="M177.268 8.27471C176.857 6.10474 175.723 4.13608 174.051 2.68649C172.378 1.23691 170.264 0.390992 168.049 0.285278C165.638 0.422016 163.356 1.42029 161.624 3.09695C159.891 4.77362 158.823 7.01627 158.617 9.41353C157.226 7.76427 155.494 6.43353 153.539 5.51225C151.584 4.59096 149.453 4.10084 147.29 4.07537C138.465 4.07537 131.211 12.1894 131.211 22.2073C131.193 26.064 132.304 29.8423 134.409 33.0793C131.569 35.035 129.241 37.641 127.622 40.6785C126.002 43.7159 125.138 47.096 125.102 50.5351C125.102 62.6883 135.678 72.5461 148.719 72.5461C151.6 72.5511 154.459 72.0574 157.17 71.087C162.531 76.326 169.722 79.2917 177.232 79.3611C194.543 79.3611 208.568 63.4534 208.585 43.7734C208.603 24.0934 194.579 8.2925 177.268 8.27471Z" fill="#E4EAF8"/>
<path d="M143.485 42.7414L169.746 18.9511C170.28 18.4627 170.91 18.0916 171.597 17.862C172.284 17.6323 173.012 17.5492 173.733 17.618C174.454 17.6868 175.153 17.906 175.783 18.2614C176.414 18.6167 176.962 19.1003 177.393 19.6806C181.414 25.2316 184.24 31.5512 185.691 38.2421C187.142 44.9331 187.188 51.8507 185.825 58.5602C185.667 59.2591 185.363 59.9173 184.935 60.4927C184.506 61.0681 183.962 61.5479 183.336 61.9014C182.71 62.2549 182.017 62.4743 181.301 62.5454C180.586 62.6166 179.863 62.538 179.179 62.3147L145.378 51.4604C144.516 51.1817 143.742 50.6824 143.134 50.0126C142.526 49.3428 142.106 48.5258 141.914 47.6433C141.722 46.7608 141.767 45.8437 142.042 44.9835C142.318 44.1233 142.815 43.3502 143.485 42.7414Z" fill="#FDB527"/>
<path d="M170.783 19.7696C170.504 19.3412 170.342 18.8474 170.315 18.3374C170.287 17.8275 170.395 17.3193 170.626 16.8636C170.858 16.4079 171.205 16.0207 171.634 15.7407C172.063 15.4606 172.558 15.2976 173.07 15.2678C173.954 15.2836 174.818 15.5303 175.577 15.983C176.336 16.4357 176.962 17.0788 177.393 17.8479C181.773 24.0934 184.909 31.1187 186.629 38.5421C188.254 46.0244 188.309 53.7605 186.79 61.2648C186.622 62.0788 186.271 62.8443 185.764 63.5038C185.257 64.1634 184.606 64.6998 183.86 65.0727C183.395 65.2948 182.88 65.3917 182.366 65.3536C181.852 65.3156 181.357 65.1439 180.931 64.8559C180.504 64.5678 180.161 64.1733 179.935 63.7118C179.709 63.2503 179.609 62.7379 179.644 62.2257C180.126 54.4676 180.126 34.2716 170.783 19.7696Z" fill="#EF8216"/>
<path d="M175.017 46.5671C175.76 47.3781 176.244 48.3902 176.41 49.4756C176.575 50.5609 176.414 51.6708 175.946 52.6648C175.479 53.6588 174.725 54.4924 173.782 55.0602C172.839 55.628 171.748 55.9045 170.647 55.8548C169.546 55.8051 168.484 55.4313 167.596 54.7808C166.708 54.1303 166.034 53.2322 165.659 52.2001C165.283 51.168 165.223 50.0482 165.487 48.9822C165.75 47.9162 166.325 46.9519 167.138 46.2112C168.232 45.2216 169.675 44.7035 171.151 44.7702C172.628 44.8369 174.017 45.4829 175.017 46.5671Z" fill="#A62017"/>
<path d="M170.479 31.8337C171.115 32.5319 171.529 33.4022 171.668 34.3346C171.808 35.267 171.667 36.2197 171.263 37.0724C170.86 37.925 170.211 38.6393 169.4 39.1251C168.589 39.6108 167.651 39.8462 166.706 39.8015C165.76 39.7567 164.849 39.4339 164.088 38.8738C163.327 38.3137 162.749 37.5413 162.428 36.6544C162.108 35.7675 162.058 34.8058 162.286 33.8907C162.513 32.9757 163.008 32.1484 163.708 31.5134C164.173 31.091 164.718 30.7642 165.31 30.5516C165.902 30.3391 166.531 30.245 167.16 30.2747C167.789 30.3045 168.406 30.4575 168.975 30.725C169.545 30.9925 170.056 31.3693 170.479 31.8337Z" fill="#A62017"/>
<path d="M158.849 39.7697C159.579 40.545 160.06 41.5199 160.23 42.5692C160.401 43.6186 160.253 44.6947 159.805 45.6598C159.358 46.6248 158.631 47.4348 157.719 47.9859C156.806 48.5371 155.749 48.8043 154.683 48.7534C153.617 48.7025 152.59 48.3357 151.735 47.7001C150.879 47.0645 150.234 46.189 149.881 45.1857C149.529 44.1824 149.485 43.0971 149.755 42.0688C150.025 41.0405 150.598 40.116 151.399 39.4138C152.444 38.4979 153.806 38.023 155.196 38.0894C156.587 38.1558 157.897 38.7584 158.849 39.7697Z" fill="#A62017"/>
<path d="M159.456 51.4782C158.67 47.6347 162.189 46.6561 163.69 44.3607C163.69 44.414 166.119 50.1614 159.456 51.4782Z" fill="#09C8B1"/>
<path d="M175.445 40.4816C173.945 42.8482 171.658 41.6204 169.764 42.0297C169.955 41.4843 170.276 40.9933 170.699 40.5991C171.123 40.2048 171.637 39.9192 172.196 39.7668C172.755 39.6144 173.343 39.5999 173.909 39.7244C174.475 39.849 175.003 40.1088 175.445 40.4816Z" fill="#09C8B1"/>
<path d="M157.419 32.5099C160.081 33.3818 159.456 35.8907 160.313 37.6167C159.736 37.5656 159.18 37.3755 158.693 37.0627C158.206 36.7499 157.803 36.3238 157.518 35.8213C157.233 35.3187 157.075 34.7546 157.058 34.1777C157.041 33.6009 157.165 33.0285 157.419 32.5099Z" fill="#09C8B1"/>
<path d="M145.664 43.1684C148.326 44.0403 147.683 46.5492 148.558 48.2752C147.981 48.2242 147.425 48.034 146.938 47.7212C146.451 47.4084 146.048 46.9824 145.763 46.4798C145.478 45.9772 145.321 45.4131 145.303 44.8362C145.286 44.2594 145.41 43.687 145.664 43.1684Z" fill="#09C8B1"/>
<path d="M172.033 26.5311C169.907 29.8586 166.674 28.1326 163.976 28.702C164.048 28.702 166.245 22.7944 172.033 26.5311Z" fill="#09C8B1"/>
<path d="M167.263 46.7628C167.518 46.4536 167.709 46.097 167.823 45.7136C167.938 45.3303 167.975 44.928 167.932 44.5303C167.889 44.1326 167.766 43.7475 167.572 43.3975C167.377 43.0476 167.114 42.7398 166.799 42.4922C166.487 42.2391 166.128 42.0498 165.743 41.9352C165.358 41.8205 164.953 41.7828 164.553 41.8241C164.153 41.8654 163.765 41.985 163.412 42.176C163.058 42.367 162.746 42.6257 162.493 42.9371L161.904 42.4744C162.208 42.0563 162.594 41.7042 163.039 41.4394C163.484 41.1746 163.979 41.0027 164.493 40.9342C165.006 40.8657 165.529 40.9019 166.028 41.0408C166.527 41.1796 166.993 41.4182 167.397 41.7419C167.801 42.0656 168.134 42.4678 168.377 42.9239C168.62 43.38 168.767 43.8805 168.81 44.3951C168.853 44.9096 168.79 45.4275 168.625 45.9171C168.461 46.4067 168.198 46.8579 167.853 47.2432L167.263 46.7628Z" fill="#BBDFFD"/>
<path d="M167.103 32.3143C167.039 33.2581 167.354 34.1886 167.979 34.901C168.603 35.6135 169.487 36.0495 170.434 36.1132C171.382 36.177 172.316 35.8631 173.032 35.2408C173.747 34.6184 174.185 33.7385 174.249 32.7947H175.124C174.981 33.9118 174.415 34.9323 173.541 35.6472C172.668 36.3621 171.553 36.7172 170.425 36.6399C169.297 36.5625 168.241 36.0586 167.474 35.2313C166.707 34.4039 166.286 33.3158 166.299 32.1897L167.103 32.3143Z" fill="#BBDFFD"/>
<path d="M158.491 36.8517C157.633 36.7897 156.781 37.0382 156.092 37.5516C155.403 38.065 154.923 38.8088 154.741 39.6463C154.558 40.4838 154.686 41.3587 155.099 42.1104C155.512 42.8621 156.184 43.44 156.991 43.7379L156.794 44.592C156.227 44.4682 155.691 44.2344 155.215 43.904C154.739 43.5736 154.333 43.1531 154.021 42.6665C153.708 42.1799 153.494 41.6368 153.392 41.068C153.291 40.4992 153.302 39.916 153.426 39.3517C153.551 38.7874 153.785 38.253 154.117 37.779C154.449 37.3051 154.871 36.9008 155.36 36.5893C155.848 36.2779 156.394 36.0653 156.965 35.9638C157.536 35.8623 158.121 35.8737 158.688 35.9976L158.491 36.8517Z" fill="#BBDFFD"/>
<path d="M120.403 44.9657C120.249 45.5137 119.936 46.0042 119.504 46.3754C119.071 46.7466 118.537 46.9819 117.97 47.0517C117.403 47.1214 116.828 47.0226 116.318 46.7675C115.807 46.5124 115.384 46.1126 115.101 45.6183C114.818 45.124 114.688 44.5574 114.728 43.9899C114.768 43.4223 114.976 42.8792 115.325 42.4289C115.674 41.9786 116.149 41.6413 116.69 41.4595C117.232 41.2776 117.815 41.2593 118.366 41.407C118.74 41.4992 119.09 41.666 119.397 41.8972C119.703 42.1283 119.96 42.4191 120.15 42.7518C120.34 43.0846 120.461 43.4524 120.505 43.8329C120.548 44.2135 120.513 44.5989 120.403 44.9657Z" fill="#96BCF4"/>
<path d="M126.906 39.0403C126.739 39.7312 126.368 40.3563 125.841 40.8354C125.314 41.3144 124.655 41.6254 123.949 41.7282C123.243 41.831 122.522 41.721 121.88 41.4123C121.237 41.1036 120.702 40.6103 120.343 39.996C119.985 39.3818 119.819 38.6746 119.867 37.9657C119.915 37.2567 120.176 36.5784 120.615 36.0181C121.053 35.4578 121.651 35.0412 122.329 34.8218C123.008 34.6025 123.737 34.5906 124.422 34.7876C124.868 34.9012 125.286 35.102 125.652 35.3781C126.019 35.6542 126.327 36.0003 126.558 36.3961C126.789 36.7918 126.939 37.2294 126.999 37.6834C127.058 38.1374 127.027 38.5986 126.906 39.0403Z" fill="#96BCF4"/>
<path d="M137.107 35.0189C136.901 35.8076 136.465 36.5176 135.853 37.0587C135.241 37.5998 134.482 37.9476 133.671 38.0579C132.86 38.1682 132.035 38.0359 131.3 37.678C130.565 37.3201 129.953 36.7527 129.543 36.0477C129.132 35.3428 128.942 34.5323 128.995 33.7191C129.047 32.9059 129.342 32.1268 129.841 31.4806C130.339 30.8345 131.019 30.3505 131.795 30.0903C132.57 29.83 133.405 29.8051 134.195 30.0188C135.243 30.3026 136.137 30.9868 136.682 31.9229C137.228 32.859 137.38 33.9714 137.107 35.0189Z" fill="#96BCF4"/>
<path d="M120.403 43.1863C120.249 43.7343 119.936 44.2248 119.504 44.596C119.071 44.9672 118.537 45.2025 117.97 45.2722C117.403 45.342 116.828 45.2431 116.318 44.9881C115.807 44.733 115.384 44.3331 115.101 43.8389C114.818 43.3446 114.688 42.778 114.728 42.2104C114.768 41.6429 114.976 41.0998 115.325 40.6495C115.674 40.1992 116.149 39.8619 116.69 39.68C117.232 39.4982 117.815 39.4799 118.366 39.6275C118.74 39.7198 119.09 39.8866 119.397 40.1177C119.703 40.3489 119.96 40.6397 120.15 40.9724C120.34 41.3052 120.461 41.673 120.505 42.0535C120.548 42.4341 120.513 42.8195 120.403 43.1863Z" fill="#E4EAF8"/>
<path d="M126.906 37.2609C126.739 37.9517 126.368 38.5769 125.841 39.056C125.314 39.535 124.655 39.846 123.949 39.9488C123.243 40.0516 122.522 39.9416 121.88 39.6329C121.237 39.3241 120.702 38.8309 120.343 38.2166C119.985 37.6023 119.819 36.8952 119.867 36.1862C119.915 35.4773 120.176 34.799 120.615 34.2387C121.053 33.6784 121.651 33.2617 122.329 33.0424C123.008 32.8231 123.737 32.8112 124.422 33.0082C124.868 33.1218 125.286 33.3225 125.652 33.5987C126.019 33.8748 126.327 34.2209 126.558 34.6166C126.789 35.0124 126.939 35.45 126.999 35.904C127.058 36.3579 127.027 36.8192 126.906 37.2609Z" fill="#E4EAF8"/>
<path d="M137.107 33.2394C136.901 34.0282 136.465 34.7382 135.853 35.2793C135.241 35.8204 134.482 36.1682 133.671 36.2785C132.86 36.3887 132.035 36.2565 131.3 35.8986C130.565 35.5407 129.953 34.9732 129.543 34.2683C129.132 33.5634 128.942 32.7529 128.995 31.9397C129.047 31.1265 129.342 30.3473 129.841 29.7012C130.339 29.0551 131.019 28.5711 131.795 28.3108C132.57 28.0505 133.405 28.0257 134.195 28.2394C135.243 28.5232 136.137 29.2074 136.682 30.1435C137.228 31.0796 137.38 32.192 137.107 33.2394Z" fill="#E4EAF8"/>
<path d="M207.388 81.8522C223.608 94.1556 236.723 110.057 245.691 128.294C248.889 134.789 251.64 141.889 251.14 149.184C250.64 156.48 246.066 163.917 239.206 165.287C230.524 167.067 222.752 157.583 222.895 148.312C223.163 128.952 255.5 99 331 131.5" stroke="#F4C785" stroke-width="0.75" stroke-miterlimit="10" stroke-dasharray="3 3"/>
</svg>
