<svg width="389" height="222" viewBox="0 0 389 222" fill="none" xmlns="http://www.w3.org/2000/svg">
<path d="M335.404 214.331C335.404 218.56 274.208 222 198.702 222C123.195 222 62 218.56 62 214.331C62 210.103 123.195 206.627 198.702 206.627C274.208 206.627 335.404 210.103 335.404 214.331Z" fill="#E4EAF8"/>
<path d="M157.887 96.58C156.976 93.122 141.003 99.8589 132.177 112.508C131.895 112.95 131.449 113.262 130.938 113.374C130.427 113.487 129.892 113.391 129.452 113.109C129.011 112.826 128.7 112.379 128.588 111.867C128.476 111.354 128.571 110.818 128.853 110.376C129.3 109.66 129.836 108.817 130.515 107.814C136.983 97.673 146.774 93.767 149.508 91.9395C157.083 87.1198 140.574 87.0839 130.872 100.719C130.612 101.094 130.231 101.368 129.793 101.494C129.356 101.621 128.888 101.592 128.468 101.414C128.049 101.235 127.704 100.917 127.491 100.513C127.278 100.109 127.21 99.644 127.299 99.1959C127.763 96.9563 128.853 96.3471 131.176 94.3045C138.126 88.0156 144.88 86.7973 147.256 85.4356C149.132 84.5039 149.222 82.6763 146.738 82.318C130.443 80.7054 125.298 103.675 129.103 87.3169C129.318 86.3673 135.768 82.4793 142.361 79.7917C145.202 77.8566 142.003 75.3661 137.001 77.122C136.598 77.2691 136.159 77.2828 135.748 77.1609C135.337 77.039 134.976 76.7881 134.718 76.4451C134.46 76.1021 134.319 75.685 134.315 75.2553C134.311 74.8256 134.444 74.406 134.696 74.0582C137.555 70.2239 140.27 67.5005 138.359 65.7446C135.446 63.0212 130.39 72.3381 130.318 76.6024C130.325 76.8606 130.277 77.1174 130.175 77.355C130.027 77.726 129.78 78.0494 129.462 78.2906C129.143 78.5317 128.766 78.6815 128.369 78.7239C127.973 78.7662 127.572 78.6995 127.21 78.531C126.849 78.3624 126.54 78.0983 126.316 77.767C122.743 72.3919 116.882 72.7681 118.937 76.2978C119.026 76.4591 127.37 85.4356 127.031 86.7973C124.404 97.225 128.067 91.169 120.992 82.963C119.098 80.7413 114.274 76.5487 112.88 78.7346C111.879 80.2933 114.22 81.9238 117.579 85.9014C122.653 91.8141 124.226 96.365 124.726 100.235C124.749 100.663 124.633 101.087 124.394 101.442C124.156 101.798 123.808 102.066 123.404 102.206C123.001 102.345 122.562 102.349 122.156 102.217C121.749 102.084 121.397 101.823 121.152 101.471C113.738 90.0223 101.659 84.1276 100.444 86.7077C99.6583 88.4098 103.41 90.1478 109.503 95.0571C115.53 100.12 120.649 106.18 124.637 112.974C124.836 113.279 124.953 113.631 124.976 113.995C125.673 124.083 127.12 122.954 123.189 117.579C109.664 98.5151 90.2422 96.795 98.1753 102.528C101.248 104.894 114.756 111.702 122.635 121.951C122.929 122.323 123.081 122.788 123.063 123.262C123.044 123.736 122.858 124.188 122.536 124.536C122.215 124.885 121.78 125.106 121.31 125.161C120.84 125.216 120.366 125.1 119.973 124.835C107.466 116.773 94.1909 121.019 112.219 128.419C121.313 132.11 126.352 136.84 128.907 138.327C129.331 138.591 129.647 138.997 129.8 139.474C133.374 150.905 133.481 145.44 125.423 140.997C110.2 132.504 98.4612 141.749 106.734 143.505C109.432 144.15 115.667 143.72 122.707 146.569C129.336 149.221 133.159 153.521 135.107 154.829C135.41 155.057 135.649 155.359 135.804 155.707C139.913 165.256 140.127 162.712 134.946 159.899C115.292 148.862 97.6214 161.691 108.306 162.605C112.022 163.088 121.063 160.938 133.159 164.396C143.093 167.012 139.377 164.916 149.365 182.923C163.265 207.827 140.092 165.167 132.623 141.91C132.542 141.642 132.52 141.359 132.557 141.081C132.594 140.803 132.69 140.536 132.838 140.298C135.516 135.346 138.839 130.773 142.718 126.699C149.258 120.123 155.922 117.328 158.531 115.232C165.677 109.749 150.794 106.9 138.108 122.56C128.907 133.866 132.159 145.852 128.639 126.143C128.567 125.759 128.604 125.361 128.746 124.997C135.911 106.596 158.638 99.1243 157.887 96.58Z" fill="#09C8B1"/>
<path d="M265.233 114.891C266.323 112.275 278.133 119.263 283.726 130.139C283.922 130.482 284.239 130.739 284.614 130.858C284.99 130.978 285.397 130.952 285.754 130.785C286.111 130.618 286.393 130.323 286.544 129.958C286.694 129.593 286.702 129.184 286.567 128.813C286.299 128.204 285.959 127.487 285.53 126.627C281.528 117.973 274.256 113.87 272.309 112.15C266.859 107.545 279.902 109.283 286.013 121.019C286.172 121.35 286.442 121.615 286.775 121.768C287.108 121.921 287.484 121.952 287.838 121.856C288.192 121.761 288.501 121.544 288.713 121.244C288.924 120.944 289.025 120.579 288.997 120.213C288.854 118.421 288.068 117.812 286.459 115.949C281.671 110.269 276.49 108.602 274.739 107.277C273.345 106.345 273.47 104.894 275.471 104.876C288.443 105.342 290.015 123.922 288.782 110.681C288.782 109.91 284.065 106.166 279.17 103.353C277.151 101.561 279.92 99.9306 283.601 101.812C283.9 101.975 284.244 102.036 284.58 101.987C284.917 101.937 285.229 101.779 285.469 101.537C285.708 101.295 285.863 100.981 285.91 100.643C285.956 100.305 285.892 99.9603 285.727 99.6618C283.94 96.3472 282.046 93.9104 283.726 92.7458C286.317 90.9541 289.3 98.766 288.889 102.134C288.854 102.33 288.854 102.53 288.889 102.726C288.978 103.027 289.144 103.299 289.37 103.515C289.596 103.732 289.876 103.885 290.179 103.959C290.483 104.034 290.801 104.027 291.102 103.939C291.402 103.851 291.674 103.686 291.891 103.46C295.322 99.6977 299.842 100.54 297.841 103.084C297.752 103.209 290.247 109.373 290.372 110.466C291.337 118.941 289.086 113.798 295.518 108.119C297.305 106.56 301.468 103.783 302.343 105.646C302.969 106.972 300.95 108.011 297.894 110.735C293.285 114.838 291.569 118.242 290.748 121.288C290.677 121.63 290.723 121.986 290.876 122.3C291.03 122.613 291.283 122.867 291.596 123.021C291.909 123.175 292.264 123.22 292.605 123.15C292.946 123.079 293.254 122.897 293.481 122.632C300.521 114.443 310.616 111.093 311.348 113.261C311.795 114.676 308.668 115.644 303.362 118.833C298.095 122.166 293.436 126.377 289.586 131.286C289.394 131.506 289.259 131.771 289.193 132.056C287.585 139.904 286.567 138.882 290.176 135.084C302.826 121.557 318.245 122.273 311.366 125.91C308.722 127.451 297.376 131.286 290.104 138.578C289.838 138.84 289.674 139.188 289.64 139.56C289.606 139.933 289.706 140.305 289.92 140.611C290.135 140.917 290.451 141.136 290.812 141.229C291.173 141.323 291.555 141.285 291.891 141.122C302.504 136.105 312.546 140.853 297.626 144.705C292.684 146.122 287.932 148.137 283.476 150.708C283.105 150.862 282.806 151.15 282.636 151.514C278.669 160.114 279.062 155.814 285.923 153.18C298.77 148.128 307.007 156.638 300.324 157.14C298.145 157.355 293.178 156.334 287.46 157.839C283.67 158.986 280.086 160.734 276.847 163.017C276.576 163.15 276.352 163.363 276.204 163.626C271.969 170.685 272.076 168.661 276.436 167.012C293.088 160.437 305.542 172.387 297.073 171.957C294.089 171.957 287.228 169.306 277.419 170.649C269.343 171.653 272.487 170.399 262.75 183.478C249.189 201.539 271.898 170.524 280.224 153.019C280.32 152.818 280.371 152.597 280.371 152.374C280.371 152.151 280.32 151.93 280.224 151.729C278.645 147.556 276.524 143.61 273.917 139.993C269.468 134.134 264.536 131.232 262.714 129.243C257.64 124.172 269.664 123.51 277.955 137.18C283.994 147.017 280.17 156.119 285.012 141.032C285.101 140.734 285.101 140.417 285.012 140.119C281.457 125.104 264.393 116.862 265.233 114.891Z" fill="#09C8B1"/>
<path d="M74.9302 158.681C75.0948 159.711 75.4605 160.699 76.0062 161.587C76.5519 162.476 77.267 163.248 78.1105 163.859C79.8932 165.008 81.9178 165.725 84.0246 165.955C88.7058 166.708 94.9592 166.743 102.035 167.747C109.417 168.757 116.579 170.997 123.225 174.376C128.512 176.968 133.129 180.751 136.715 185.431C130.084 175.474 120.724 167.651 109.762 162.905C98.8005 158.159 86.7042 156.692 74.9302 158.681Z" fill="#09C8B1"/>
<path d="M74.9305 158.681C74.6767 157.646 74.693 156.564 74.9778 155.538C75.2626 154.511 75.8063 153.576 76.5564 152.822C78.5094 151.03 80.9693 149.89 83.5961 149.561C89.796 148.414 98.533 149.991 106.538 153.915C114.333 157.783 121.211 163.282 126.71 170.04C130.376 174.902 133.718 180.002 136.715 185.306C130.068 175.371 120.701 167.574 109.741 162.851C98.78 158.127 86.6922 156.679 74.9305 158.681Z" fill="#72D6C1"/>
<path d="M82.7202 183.783C84.7035 186.721 87.5265 186.865 90.8676 185.951C94.2088 185.037 98.4255 183.12 103.375 181.525C108.5 179.79 113.852 178.824 119.259 178.659C123.533 178.466 127.799 179.199 131.766 180.809C124.026 177.031 115.445 175.321 106.854 175.842C98.2619 176.363 89.9495 179.098 82.7202 183.783Z" fill="#09C8B1"/>
<path d="M82.7203 183.783C80.7727 180.934 82.0592 177.852 85.7756 175.272C90.6411 172.402 96.2133 170.962 101.856 171.115C108.082 171.118 114.247 172.335 120.009 174.699C125.262 176.867 129.157 179.501 131.676 180.719C123.941 176.971 115.373 175.285 106.798 175.821C98.2236 176.358 89.9314 179.1 82.7203 183.783Z" fill="#72D6C1"/>
<path d="M289.104 191.756H108.86C105.874 191.756 103.011 192.945 100.9 195.062C98.7894 197.179 97.6035 200.05 97.6035 203.044C97.6035 204.526 97.8947 205.994 98.4603 207.363C99.026 208.733 99.8551 209.977 100.9 211.025C101.946 212.073 103.187 212.905 104.552 213.472C105.918 214.039 107.382 214.331 108.86 214.331H289.104C290.582 214.331 292.046 214.039 293.411 213.472C294.777 212.905 296.018 212.073 297.063 211.025C298.109 209.977 298.938 208.733 299.503 207.363C300.069 205.994 300.36 204.526 300.36 203.044C300.36 200.05 299.174 197.179 297.063 195.062C294.952 192.945 292.089 191.756 289.104 191.756Z" fill="#BC7B1A"/>
<path d="M286.531 193.906H111.433C109.94 193.906 108.509 194.5 107.453 195.559C106.398 196.617 105.805 198.053 105.805 199.55C105.805 201.046 106.398 202.482 107.453 203.54C108.509 204.599 109.94 205.193 111.433 205.193H286.531C288.024 205.193 289.455 204.599 290.511 203.54C291.566 202.482 292.159 201.046 292.159 199.55C292.159 198.053 291.566 196.617 290.511 195.559C289.455 194.5 288.024 193.906 286.531 193.906Z" fill="#EEA840"/>
<path d="M205.736 104.679C205.739 106.009 205.349 107.311 204.614 108.418C203.879 109.526 202.833 110.39 201.608 110.901C200.383 111.411 199.034 111.546 197.733 111.287C196.431 111.029 195.236 110.388 194.298 109.448C193.36 108.507 192.721 107.308 192.463 106.003C192.205 104.698 192.34 103.346 192.849 102.117C193.358 100.889 194.22 99.8395 195.324 99.1026C196.429 98.3656 197.727 97.9741 199.053 97.9777C200.824 97.9824 202.521 98.6899 203.773 99.9456C205.026 101.201 205.731 102.903 205.736 104.679Z" fill="#BC7B1A"/>
<path d="M285.87 191.756H112.219C112.187 168.777 121.24 146.723 137.394 130.425C149.222 118.487 164.247 110.241 180.65 106.686C197.054 103.131 214.133 104.418 229.822 110.393C245.511 116.368 259.138 126.773 269.053 140.351C278.968 153.929 284.747 170.098 285.691 186.9C285.834 188.513 285.87 190.125 285.87 191.756Z" fill="#EEA840"/>
<path d="M285.87 191.756H112.219C112.187 168.777 121.24 146.723 137.394 130.425C124.708 146.73 139.591 186.9 194.747 186.9H285.727C285.834 188.513 285.87 190.125 285.87 191.756Z" fill="#BC7B1A"/>
<path d="M260.544 151.224C263.679 146.517 255.648 135.623 242.608 126.892C229.567 118.161 216.455 114.899 213.321 119.606C210.187 124.313 218.217 135.207 231.258 143.938C244.298 152.669 257.41 155.931 260.544 151.224Z" fill="#F4C785"/>
<path d="M198.982 89.3774L197.196 61.4984C197.179 61.2615 197.209 61.0237 197.284 60.7987C197.36 60.5736 197.479 60.3659 197.635 60.1875C197.792 60.0091 197.982 59.8636 198.194 59.7596C198.407 59.6555 198.639 59.5949 198.875 59.5812C199.11 59.5667 199.345 59.5988 199.567 59.6756C199.79 59.7524 199.995 59.8725 200.171 60.029C200.347 60.1855 200.49 60.3753 200.593 60.5874C200.695 60.7996 200.755 61.03 200.769 61.2654V61.4984L198.982 89.3774Z" fill="#FDB527"/>
<path d="M176.237 93.9641L162.997 79.6303C162.838 79.4574 162.714 79.2547 162.632 79.0337C162.551 78.8127 162.514 78.5777 162.523 78.3423C162.532 78.1069 162.587 77.8756 162.685 77.6616C162.784 77.4476 162.923 77.2551 163.096 77.0951C163.268 76.9351 163.47 76.8107 163.691 76.7291C163.911 76.6474 164.145 76.6101 164.38 76.6193C164.615 76.6284 164.845 76.6839 165.059 76.7824C165.272 76.881 165.464 77.0207 165.624 77.1936C165.705 77.2688 165.776 77.3529 165.838 77.4445L176.237 93.9641Z" fill="#FDB527"/>
<path d="M221.852 93.964L232.269 77.4802C232.525 77.0763 232.93 76.7909 233.396 76.6867C233.861 76.5825 234.349 76.6682 234.752 76.9248C235.155 77.1814 235.44 77.5879 235.543 78.055C235.647 78.522 235.562 79.0113 235.306 79.4153C235.251 79.5063 235.185 79.5905 235.11 79.6661L221.852 93.964Z" fill="#FDB527"/>
<path d="M272.452 84.7905C292.039 84.7905 307.918 68.8673 307.918 49.225C307.918 29.5827 292.039 13.6595 272.452 13.6595C252.864 13.6595 236.985 29.5827 236.985 49.225C236.985 68.8673 252.864 84.7905 272.452 84.7905Z" fill="#96BCF4"/>
<path d="M306.559 55.7026C311.099 36.595 299.332 17.4151 280.278 12.8631C261.223 8.311 242.097 20.1106 237.558 39.2181C233.018 58.3256 244.785 77.5055 263.839 82.0576C282.893 86.6097 302.02 74.8101 306.559 55.7026Z" fill="#E4EAF8"/>
<path d="M266.877 55.9441C266.877 43.5633 273.595 44.7996 277.508 39.317C281.082 34.1748 276.454 28.7459 265.001 33.2968C259.427 35.5006 253.388 23.6574 273.47 23.6574C288.443 23.6574 293.696 37.7044 280.224 47.3618C268.432 55.9978 283.887 55.9441 266.877 55.9441ZM265.841 66.999C265.841 59.5096 277.133 59.5454 277.133 66.999C277.133 74.4525 265.752 74.4704 265.752 66.999H265.841Z" fill="#A62017"/>
<path d="M216.247 24.676C218.355 15.7602 212.857 6.81851 203.966 4.70432C195.075 2.59012 186.158 8.10398 184.05 17.0198C181.942 25.9357 187.44 34.8773 196.331 36.9915C205.222 39.1057 214.139 33.5919 216.247 24.676Z" fill="#09C8B1"/>
<path d="M200.108 31.8274C197.938 31.8274 195.817 31.1822 194.013 29.9734C192.209 28.7646 190.803 27.0464 189.972 25.0363C189.142 23.0261 188.925 20.8141 189.348 18.6801C189.771 16.5461 190.816 14.5859 192.35 13.0474C193.885 11.5088 195.839 10.4611 197.967 10.0366C200.096 9.6121 202.301 9.82996 204.306 10.6626C206.31 11.4953 208.024 12.9053 209.229 14.7144C210.435 16.5236 211.078 18.6505 211.078 20.8263C211.078 23.744 209.922 26.5422 207.865 28.6053C205.808 30.6684 203.017 31.8274 200.108 31.8274ZM200.108 10.5061C198.068 10.5061 196.074 11.1128 194.378 12.2496C192.682 13.3864 191.361 15.002 190.581 16.8921C189.802 18.7822 189.599 20.8618 189.998 22.8677C190.397 24.8736 191.381 26.7157 192.824 28.1608C194.268 29.6059 196.106 30.5891 198.107 30.9859C200.108 31.3828 202.182 31.1755 204.065 30.3903C205.949 29.6051 207.558 28.2772 208.688 26.5748C209.819 24.8723 210.421 22.8718 210.417 20.8263C210.417 19.4695 210.15 18.1261 209.632 16.8728C209.114 15.6195 208.354 14.481 207.396 13.5224C206.439 12.5639 205.302 11.8041 204.052 11.2865C202.801 10.7689 201.461 10.5037 200.108 10.5061Z" fill="white"/>
<path d="M194.73 13.3013C195.884 12.477 197.21 11.9257 198.607 11.6887C198.728 11.665 198.854 11.6684 198.973 11.6988C199.093 11.7292 199.205 11.7858 199.301 11.8645C199.396 11.9433 199.473 12.0423 199.526 12.1543C199.58 12.2664 199.607 12.3889 199.608 12.5129V17.6014C199.607 17.7654 199.558 17.9256 199.467 18.0615C199.376 18.1974 199.246 18.3029 199.094 18.3645C198.943 18.426 198.776 18.4408 198.616 18.407C198.456 18.3733 198.31 18.2924 198.196 18.1747L194.623 14.5913C194.532 14.5063 194.461 14.4018 194.417 14.2855C194.372 14.1693 194.354 14.0444 194.364 13.9202C194.374 13.7961 194.413 13.6759 194.476 13.5687C194.539 13.4614 194.626 13.37 194.73 13.3013Z" fill="white"/>
<path d="M190.996 19.3213C191.232 17.9202 191.782 16.5909 192.604 15.4333C192.671 15.3313 192.76 15.2455 192.865 15.1824C192.97 15.1193 193.087 15.0803 193.208 15.0682C193.33 15.0562 193.452 15.0715 193.567 15.113C193.682 15.1544 193.786 15.221 193.872 15.3079L197.446 18.8913C197.563 19.0055 197.644 19.1523 197.677 19.3127C197.711 19.4732 197.696 19.64 197.635 19.792C197.574 19.944 197.468 20.0741 197.333 20.1658C197.197 20.2575 197.037 20.3066 196.874 20.3068H191.835C191.712 20.3086 191.59 20.2831 191.477 20.2321C191.365 20.1811 191.265 20.1059 191.185 20.0118C191.105 19.9177 191.046 19.8071 191.013 19.6877C190.981 19.5684 190.975 19.4433 190.996 19.3213Z" fill="white"/>
<path d="M201.608 11.6887C203.012 11.9224 204.344 12.4739 205.503 13.3012C205.603 13.3708 205.686 13.4612 205.747 13.566C205.808 13.6708 205.846 13.7876 205.858 13.9084C205.869 14.0293 205.855 14.1512 205.816 14.266C205.776 14.3808 205.712 14.4856 205.629 14.5733L202.055 18.1567C201.941 18.2744 201.795 18.3553 201.635 18.3891C201.475 18.4228 201.308 18.408 201.157 18.3465C201.005 18.2849 200.876 18.1794 200.784 18.0435C200.693 17.9076 200.644 17.7474 200.644 17.5834V12.4949C200.647 12.376 200.676 12.2592 200.728 12.1522C200.78 12.0453 200.854 11.9506 200.945 11.8744C201.036 11.7982 201.143 11.7423 201.257 11.7102C201.371 11.6782 201.491 11.6709 201.608 11.6887Z" fill="white"/>
<path d="M202.77 18.9094L206.343 15.326C206.431 15.2388 206.537 15.1721 206.653 15.1306C206.769 15.0891 206.893 15.0738 207.016 15.0857C207.139 15.0977 207.258 15.1367 207.364 15.1999C207.47 15.2631 207.561 15.349 207.63 15.4514C208.452 16.609 209.002 17.9382 209.238 19.3394C209.258 19.4608 209.253 19.5851 209.221 19.7041C209.19 19.8231 209.133 19.9338 209.055 20.029C208.977 20.1241 208.88 20.2013 208.77 20.2554C208.659 20.3096 208.539 20.3394 208.416 20.3428H203.342C203.174 20.3465 203.01 20.2989 202.87 20.2064C202.731 20.1138 202.622 19.9807 202.56 19.8249C202.498 19.669 202.485 19.4978 202.522 19.3342C202.56 19.1706 202.646 19.0224 202.77 18.9094Z" fill="white"/>
<path d="M202.037 23.496L205.611 27.0795C205.694 27.1672 205.758 27.272 205.798 27.3868C205.837 27.5015 205.852 27.6235 205.84 27.7443C205.828 27.8652 205.79 27.982 205.729 28.0868C205.668 28.1916 205.585 28.2819 205.486 28.3516C204.326 29.1789 202.994 29.7304 201.591 29.9641C201.471 29.9819 201.349 29.974 201.232 29.9411C201.116 29.9082 201.008 29.8509 200.915 29.7731C200.822 29.6952 200.747 29.5986 200.694 29.4894C200.641 29.3803 200.612 29.2612 200.608 29.1399V24.0515C200.608 23.8852 200.658 23.7228 200.752 23.5855C200.845 23.4483 200.978 23.3428 201.133 23.2827C201.287 23.2226 201.457 23.2108 201.618 23.2489C201.779 23.287 201.926 23.3731 202.037 23.496Z" fill="white"/>
<path d="M203.342 21.346H208.416C208.539 21.3494 208.659 21.3792 208.77 21.4334C208.88 21.4875 208.977 21.5647 209.055 21.6598C209.133 21.755 209.19 21.8657 209.221 21.9847C209.253 22.1037 209.258 22.228 209.238 22.3494C209.002 23.7506 208.452 25.0799 207.63 26.2374C207.559 26.3373 207.467 26.4208 207.361 26.4822C207.255 26.5436 207.137 26.5815 207.015 26.5934C206.893 26.6053 206.77 26.5908 206.654 26.5511C206.538 26.5113 206.432 26.4471 206.343 26.3628L202.77 22.7794C202.646 22.6664 202.56 22.5182 202.522 22.3546C202.485 22.191 202.498 22.0198 202.56 21.8639C202.622 21.7081 202.731 21.575 202.87 21.4824C203.01 21.3899 203.174 21.3423 203.342 21.346Z" fill="white"/>
<path d="M198.607 29.982C197.21 29.7451 195.884 29.1938 194.73 28.3695C194.628 28.3019 194.543 28.2124 194.48 28.1075C194.417 28.0027 194.378 27.885 194.366 27.7632C194.354 27.6414 194.369 27.5184 194.41 27.4033C194.452 27.2881 194.518 27.1836 194.605 27.0974L198.178 23.5139C198.292 23.3963 198.438 23.3154 198.598 23.2816C198.758 23.2478 198.925 23.2626 199.076 23.3242C199.228 23.3858 199.358 23.4913 199.449 23.6272C199.541 23.7631 199.59 23.9233 199.59 24.0873V29.2474C199.574 29.3609 199.537 29.4701 199.479 29.5688C199.421 29.6674 199.344 29.7535 199.252 29.8219C199.161 29.8903 199.057 29.9397 198.946 29.9672C198.835 29.9947 198.72 29.9997 198.607 29.982Z" fill="white"/>
<path d="M192.604 26.2373C191.782 25.0798 191.232 23.7505 190.996 22.3493C190.972 22.229 190.975 22.105 191.004 21.986C191.034 21.867 191.089 21.7559 191.165 21.6603C191.242 21.5648 191.338 21.4871 191.448 21.4328C191.557 21.3785 191.677 21.3489 191.8 21.3459H196.892C197.055 21.3461 197.215 21.3952 197.351 21.4869C197.486 21.5786 197.591 21.7087 197.653 21.8607C197.714 22.0127 197.729 22.1796 197.695 22.34C197.661 22.5005 197.581 22.6472 197.463 22.7614L193.89 26.3448C193.804 26.4329 193.699 26.5008 193.583 26.5438C193.468 26.5867 193.344 26.6037 193.222 26.5934C193.099 26.5832 192.98 26.5459 192.873 26.4844C192.766 26.4229 192.674 26.3385 192.604 26.2373Z" fill="white"/>
<path d="M200.108 21.8478C200.67 21.8478 201.126 21.3905 201.126 20.8265C201.126 20.2625 200.67 19.8052 200.108 19.8052C199.545 19.8052 199.089 20.2625 199.089 20.8265C199.089 21.3905 199.545 21.8478 200.108 21.8478Z" fill="white"/>
<path d="M226.351 53.7531C231.696 48.3933 231.696 39.7035 226.351 34.3437C221.006 28.9839 212.341 28.9839 206.996 34.3437C201.651 39.7035 201.651 48.3933 206.996 53.7531C212.341 59.1129 221.006 59.1128 226.351 53.7531Z" fill="#EEA840"/>
<path d="M222.674 43.9934C222.626 43.8895 222.601 43.7764 222.601 43.6619C222.601 43.5474 222.626 43.4343 222.674 43.3305C222.927 42.5941 223.03 41.8142 222.978 41.0371C222.878 39.4412 222.18 37.9423 221.023 36.8419C219.866 35.7416 218.336 35.1215 216.742 35.1065C215.093 35.1207 213.516 35.7876 212.355 36.9621C211.193 38.1366 210.542 39.7236 210.542 41.3775C210.539 42.0611 210.654 42.74 210.882 43.3842C210.909 43.4885 210.912 43.5978 210.89 43.7035C210.869 43.8092 210.823 43.9084 210.756 43.9934C210.614 44.2575 210.541 44.5533 210.542 44.8534C210.542 45.3001 210.719 45.7285 211.034 46.0443C211.349 46.3602 211.776 46.5376 212.222 46.5376C212.352 46.5562 212.484 46.5562 212.615 46.5376L215.152 52.8803C215.3 53.1784 215.528 53.4293 215.811 53.6046C216.093 53.7799 216.419 53.8728 216.751 53.8728C217.083 53.8728 217.409 53.7799 217.691 53.6046C217.974 53.4293 218.202 53.1784 218.35 52.8803L220.887 46.5197C221.041 46.5458 221.198 46.5458 221.352 46.5197C221.792 46.4984 222.209 46.3146 222.522 46.0037C222.835 45.6928 223.023 45.2767 223.049 44.8355C223.008 44.5241 222.878 44.2315 222.674 43.9934ZM220.137 45.3372C220.116 45.2933 220.083 45.2564 220.042 45.231C220.001 45.2055 219.953 45.1926 219.904 45.1938C219.856 45.1952 219.81 45.2115 219.772 45.2403C219.733 45.2692 219.705 45.3093 219.69 45.3551C219.529 45.7473 219.25 46.0794 218.892 46.3055C218.535 46.5316 218.115 46.6403 217.693 46.6167C217.271 46.5931 216.866 46.4382 216.536 46.1736C216.205 45.909 215.965 45.5478 215.849 45.1401C215.838 45.0936 215.814 45.0516 215.778 45.0195C215.743 44.9875 215.699 44.9671 215.652 44.9609C215.61 44.9594 215.569 44.9684 215.531 44.9872C215.494 45.006 215.462 45.0339 215.438 45.0684C215.356 45.21 215.239 45.3275 215.098 45.4093C214.957 45.4911 214.797 45.5342 214.634 45.5343C214.452 45.5277 214.275 45.4706 214.124 45.3694C213.972 45.2682 213.852 45.1268 213.776 44.9609C213.756 44.9123 213.721 44.8717 213.676 44.8457C213.63 44.8197 213.578 44.8098 213.526 44.8176C213.473 44.8275 213.424 44.8534 213.385 44.8918C213.347 44.9301 213.321 44.9792 213.311 45.0326C213.261 45.3265 213.103 45.591 212.868 45.7744C212.633 45.9578 212.339 46.047 212.042 46.0246C211.746 46.0023 211.468 45.8699 211.263 45.6534C211.058 45.4369 210.942 45.1517 210.935 44.8534C210.935 44.6398 210.991 44.4299 211.096 44.2442C211.198 44.0973 211.266 43.9291 211.294 43.7521C211.321 43.5752 211.309 43.3943 211.257 43.223C211.049 42.6484 210.94 42.0425 210.935 41.4312C210.94 39.904 211.544 38.4401 212.618 37.3568C213.692 36.2735 215.148 35.6582 216.67 35.644C218.142 35.6635 219.551 36.239 220.618 37.2554C221.685 38.2717 222.329 39.6543 222.424 41.1267C222.453 41.8428 222.356 42.5585 222.138 43.2409C222.079 43.4153 222.059 43.6007 222.081 43.7836C222.103 43.9665 222.165 44.1422 222.263 44.298C222.366 44.4802 222.419 44.6862 222.418 44.8956C222.417 45.105 222.361 45.3104 222.257 45.4916C222.152 45.6727 222.002 45.8232 221.821 45.9281C221.64 46.033 221.435 46.0887 221.227 46.0897C220.996 46.0864 220.771 46.0172 220.578 45.8903C220.385 45.7634 220.232 45.584 220.137 45.373V45.3372Z" fill="white"/>
<path d="M181.608 61.1665C188.069 54.6872 188.069 44.1823 181.607 37.703C175.146 31.2237 164.671 31.2237 158.209 37.7029C151.748 44.1822 151.748 54.6873 158.209 61.1665C164.671 67.6458 175.146 67.6458 181.608 61.1665Z" fill="#FDB527"/>
<path d="M178.917 53.9015C178.529 53.512 178.002 53.2932 177.452 53.2932C176.903 53.2932 176.376 53.512 175.987 53.9015C175.895 53.9885 175.811 54.0845 175.737 54.1881L174.29 52.7369C174.449 52.5799 174.581 52.3984 174.683 52.1993C175.63 50.4076 174.29 45.4446 171.109 42.1837C170.515 41.5884 169.809 41.1164 169.032 40.7947C168.255 40.473 167.423 40.3078 166.583 40.3087C165.742 40.3095 164.91 40.4763 164.134 40.7995C163.358 41.1228 162.653 41.5962 162.06 42.1926C161.466 42.7891 160.995 43.497 160.675 44.2758C160.354 45.0547 160.189 45.8893 160.19 46.732C160.191 47.5747 160.357 48.409 160.679 49.1872C161.002 49.9654 161.474 50.6724 162.069 51.2676C165.303 54.5106 170.198 55.8544 172.056 54.8511C172.249 54.7402 172.429 54.608 172.592 54.4569L173.772 55.6394C173.865 55.7302 173.932 55.8455 173.963 55.9722C173.995 56.0988 173.99 56.2319 173.95 56.3561C173.787 56.7102 173.736 57.1058 173.803 57.4899C173.87 57.8741 174.052 58.2286 174.326 58.5062C174.501 58.6833 174.71 58.8236 174.94 58.919C175.17 59.0143 175.417 59.0628 175.666 59.0616C175.915 59.0681 176.163 59.022 176.394 58.9263C176.625 58.8307 176.833 58.6875 177.006 58.5062C177.223 58.252 177.366 57.9416 177.417 57.6103C177.441 57.5133 177.471 57.4176 177.506 57.3236C177.624 57.3049 177.745 57.3049 177.863 57.3236C178.247 57.3036 178.616 57.1681 178.922 56.9347C179.227 56.7013 179.456 56.3809 179.577 56.0154C179.699 55.6498 179.708 55.256 179.603 54.8853C179.498 54.5146 179.284 54.1842 178.989 53.9373L178.917 53.9015ZM177.702 56.7503C177.463 56.7554 177.231 56.837 177.041 56.9832C176.915 57.1438 176.835 57.3358 176.809 57.5386C176.773 57.7636 176.688 57.9778 176.559 58.1657C176.34 58.4061 176.041 58.5585 175.718 58.5945C175.395 58.6305 175.07 58.5477 174.804 58.3615C174.537 58.1753 174.347 57.8984 174.269 57.5822C174.191 57.2661 174.23 56.9322 174.379 56.6428C174.47 56.4142 174.489 56.1635 174.435 55.9237C174.381 55.6839 174.255 55.4661 174.075 55.299L172.896 54.1165C173.111 53.8298 173.254 53.579 173.307 53.5252C173.361 53.4715 173.611 53.3461 173.879 53.1131L175.666 54.9048C175.705 54.9216 175.748 54.9302 175.791 54.9302C175.834 54.9302 175.876 54.9216 175.916 54.9048C175.96 54.898 176.001 54.8794 176.036 54.8511C176.07 54.8227 176.097 54.7856 176.112 54.7436C176.181 54.5651 176.292 54.4055 176.434 54.2777C176.572 54.1325 176.739 54.0169 176.923 53.9379C177.107 53.8589 177.306 53.8182 177.506 53.8182C177.706 53.8182 177.905 53.8589 178.089 53.9379C178.273 54.0169 178.439 54.1325 178.578 54.2777C178.862 54.5632 179.021 54.9498 179.021 55.3528C179.021 55.7558 178.862 56.1423 178.578 56.4278C178.322 56.616 178.019 56.7278 177.702 56.7503Z" fill="white"/>
<path d="M129.39 50.8376C147.471 35.5005 135.5 27.2407 129.479 33.9238C129.348 34.0587 129.191 34.1659 129.017 34.2391C128.844 34.3123 128.658 34.35 128.47 34.35C128.281 34.35 128.095 34.3123 127.922 34.2391C127.749 34.1659 127.591 34.0587 127.46 33.9238C121.439 27.2407 109.468 35.5005 127.46 50.8376C127.724 51.0793 128.068 51.2134 128.425 51.2134C128.782 51.2134 129.126 51.0793 129.39 50.8376Z" fill="#A62017"/>
<path d="M246.223 105.073C256.371 96.4545 249.653 91.8318 246.223 95.5765C246.151 95.6541 246.064 95.716 245.967 95.7583C245.87 95.8007 245.766 95.8225 245.66 95.8225C245.554 95.8225 245.45 95.8007 245.353 95.7583C245.256 95.716 245.169 95.6541 245.097 95.5765C241.72 91.8318 235.002 96.4545 245.097 105.073C245.248 105.22 245.45 105.303 245.66 105.303C245.871 105.303 246.073 105.22 246.223 105.073Z" fill="#A62017"/>
<path d="M1 137.5C47 157 61.8158 147.321 74.2156 141.14C108.914 123.796 107.591 79.5767 98.1933 44.5846C90.6176 16.383 72.7505 24.7503 73.3044 37.4177C74.287 60.3875 116.65 69.2744 141.2 57.1266" stroke="#F4C785" stroke-width="0.75" stroke-miterlimit="10" stroke-dasharray="3 3"/>
<path d="M311.545 72.8039C325.464 80.5441 324.374 98.73 311.188 100.54C305.738 101.292 299.235 97.4758 300.664 92.1544C301.032 90.8749 301.716 89.7094 302.653 88.7661C303.59 87.8228 304.75 87.1323 306.025 86.7587C307.299 86.3851 308.647 86.3406 309.943 86.6292C311.24 86.9179 312.442 87.5303 313.439 88.4097C329.287 101.704 351 143.5 388 169" stroke="#F4C785" stroke-width="0.75" stroke-miterlimit="10" stroke-dasharray="3 3"/>
</svg>
