<svg preserveAspectRatio="none" viewBox="0 0 1440 1173" fill="none" xmlns="http://www.w3.org/2000/svg">
<path d="M0 1132.5V127.336C267 211.198 437 227.557 825 270.101C1213 312.644 1440 28 1440 28V1099.5C1440 1099.5 1366.5 965.998 752.5 918.5C138.5 871.002 0 1132.5 0 1132.5Z" fill="white"/>
<path fill-rule="evenodd" clip-rule="evenodd" d="M-156.488 51.0614C-158.326 56.093 -159.071 61.4585 -158.672 66.7995C-158.097 75.4736 -155.583 83.9063 -151.316 91.4762C-147.049 99.046 -141.138 105.56 -134.018 110.537C-122.452 118.456 -108.521 122.173 -94.5445 121.07C-93.5927 126.326 -92.1101 131.471 -90.1194 136.427C-87.6303 142.603 -84.4096 148.457 -80.5265 153.864C-69.1786 167.02 -54.1503 176.471 -37.379 180.997C-37.1179 181.056 -36.8489 181.118 -36.5722 181.182C-27.7686 183.205 -11.2318 187.006 3.48391 178.74C9.34596 175.335 14.2841 170.543 17.8649 164.785C20.7472 159.975 22.1735 154.433 21.971 148.83C29.9256 157.116 41.012 162.216 50.8793 155.609C53.4939 153.847 55.7136 151.56 57.3967 148.893C67.6065 162.439 79.8749 174.299 93.7561 184.043C109.071 195.072 135.706 208.26 155.164 200.609C159.777 208.638 165.347 216.077 171.753 222.761C175.229 227.425 179.697 231.259 184.834 233.985C189.971 236.71 195.65 238.261 201.461 238.524C210.594 238.639 221.776 231.406 223.241 221.69C226.044 222.727 228.873 223.554 231.489 224.037C240.012 226.934 248.601 227.435 253.76 223.004C260.11 229.889 272.529 232.662 281.274 234.615C282.001 234.778 282.703 234.934 283.374 235.087C287.669 235.969 292.116 235.769 296.315 234.503C304.693 231.99 305.167 232.787 307.197 236.201C308.023 237.591 309.108 239.414 311.088 241.624C319.702 250.89 329.794 258.659 340.952 264.616C369.101 279.561 400.283 287.89 432.133 288.971C453.945 290.168 493.179 288.491 499.434 261.784C509.117 266.831 526.557 274.587 534.838 268.325C543.116 282.764 560.132 289.093 577.588 290.367C579.83 290.573 582.078 290.655 584.323 290.614C593.221 290.627 601.956 289.424 609.423 287.413C611.79 291.267 614.484 294.912 617.477 298.306C621.886 303.296 626.877 307.738 632.343 311.538C647.434 320.147 664.756 324.035 682.075 322.698L682.287 322.674L682.898 322.603C691.871 321.57 708.728 319.628 719.837 306.922C724.225 301.755 727.279 295.588 728.731 288.965C729.841 283.468 729.334 277.768 727.271 272.554C737.537 277.707 755.468 275.443 755.468 275.443C755.468 275.443 769.313 270.982 770.009 267.906C781.096 275.239 787.302 276.798 797.33 279.317C800.1 280.013 803.16 280.782 806.696 281.766C824.815 287.046 854.325 290.579 870.11 276.868C873.853 280.078 877.797 283.039 881.914 285.734C883.692 288.576 885.801 291.215 888.208 293.592C893.905 299.22 901.048 303.16 908.843 304.974C933.069 310.654 971.072 307.255 983.675 282.517C992.255 288.363 1009.29 279.756 1018.71 274.237C1026.28 300.603 1065.55 300.341 1087.27 298.07C1119.03 295.418 1149.76 285.56 1177.14 269.244C1187.99 262.744 1197.69 254.486 1205.83 244.807C1207.7 242.502 1208.7 240.627 1209.45 239.198C1211.31 235.688 1211.75 234.868 1220.24 236.965C1224.49 238.022 1228.95 238.003 1233.19 236.91C1233.5 236.824 1233.81 236.738 1234.13 236.649C1234.49 236.55 1234.85 236.449 1235.23 236.346L1235.27 236.335C1243.9 233.953 1256.17 230.57 1262.17 223.38C1267.55 227.551 1276.1 226.627 1284.47 223.313C1294.67 220.901 1307.92 212.999 1309.94 208.464C1314.01 199.056 1309.5 184.185 1298.59 180.606C1292.02 178.807 1285.02 179.509 1278.94 182.579C1279.98 180.595 1280.66 178.447 1280.97 176.23C1282.38 165.875 1272.2 155.874 1262.76 154.241C1257 153.437 1251.13 153.923 1245.58 155.664C1240.03 157.404 1234.94 160.356 1230.67 164.306C1223.15 169.706 1216.31 176.001 1210.31 183.051C1192.58 171.972 1163.98 180.066 1146.91 188.11C1131.48 195.151 1117.25 204.568 1104.73 216.019C1103.57 213.089 1101.8 210.434 1099.55 208.224C1091.06 199.924 1079.23 202.911 1069.89 209.603C1071.12 204.132 1070.73 198.422 1068.77 193.166C1066.31 186.85 1062.33 181.236 1057.19 176.817C1044.23 165.999 1027.28 166.712 1018.25 167.092L1018.24 167.092C1017.96 167.104 1017.69 167.115 1017.43 167.126C1000.11 168.509 983.607 175.052 970.045 185.911C965.238 190.517 961.001 195.684 957.425 201.3C954.562 205.808 952.163 210.596 950.266 215.59C936.727 211.949 922.352 213.056 909.532 218.727C906.916 219.915 904.399 221.292 901.999 222.845C896.676 221.497 891.06 220.864 886.447 220.343C886.025 220.295 885.611 220.249 885.207 220.202C884.902 220.168 884.602 220.133 884.308 220.098C879.943 219.682 875.543 220.358 871.504 222.065C863.444 225.462 862.887 224.72 860.503 221.543C859.532 220.25 858.259 218.553 856.053 216.567C846.496 208.278 835.63 201.635 823.899 196.908C794.311 185.064 762.415 180.122 730.633 182.459C708.818 183.606 669.99 189.475 666.631 216.699C656.463 212.718 638.293 206.875 630.73 213.988C620.129 199.382 600.333 195.359 581.446 196.911C576.673 197.089 571.912 197.825 567.261 199.121C566.45 199.308 565.645 199.504 564.849 199.708C562.718 194.859 560.104 190.237 557.047 185.912C553.198 180.478 548.712 175.527 543.684 171.164C529.602 160.987 512.796 155.267 495.433 154.74C495.167 154.742 494.893 154.744 494.611 154.746L494.606 154.747C485.573 154.813 468.605 154.938 456.199 166.381C451.282 171.048 447.585 176.852 445.433 183.282C443.74 188.628 443.634 194.35 445.126 199.754C435.471 193.531 423.506 191.132 415.433 199.841C415.196 200.099 414.961 200.351 414.728 200.6C412.868 202.593 411.201 204.379 410.293 207.032C397.229 196.213 382.903 188.359 367.145 182.088C349.696 174.897 320.734 168.224 303.571 180.165C297.227 173.419 290.088 167.47 282.311 162.447C277.851 158.713 272.618 156.016 266.99 154.551C261.362 153.087 255.478 152.891 249.764 153.978C241.622 155.804 233.234 163.993 232.47 172.862C225.73 169.255 218.795 167.726 213.529 170.444C208.941 162.277 197.501 156.709 189.444 152.787C188.773 152.461 188.127 152.146 187.509 151.842C183.534 149.992 179.161 149.159 174.784 149.42C166.052 149.928 165.775 149.043 164.589 145.252C164.106 143.709 163.473 141.685 162.057 139.076C155.818 128.071 147.795 118.179 138.317 109.805C114.385 88.758 85.9716 73.4463 55.2341 65.0321C34.2893 58.8262 -4.26933 51.3888 -16.5288 75.9268C-24.7828 68.7777 -39.957 57.2009 -49.4615 61.3793C-57.3286 34.7536 -94.0694 24.4639 -118.925 25.618C-126.921 25.9764 -134.663 28.5434 -141.293 33.0344C-147.924 37.5254 -153.183 43.7648 -156.488 51.0614Z" fill="white"/>
<path d="M1367.45 65.6536C1367.45 65.6536 1314.88 41.5968 1247 122.109L1249.19 123.971L1313.14 120.247L1324.63 128.998L1367.45 65.6536Z" fill="#EB5542"/>
<path d="M1367.45 65.6536C1367.45 65.6536 1314.88 41.5968 1247 122.109L1249.19 123.971L1313.14 120.247L1324.63 128.998L1367.45 65.6536Z" fill="#EB5542"/>
<g style="mix-blend-mode:multiply">
<path d="M1367.45 65.6536C1367.45 65.6536 1353.18 59.0994 1329.94 64.2012C1332.43 64.4992 1337.64 67.6645 1334.92 68.3348C1286 80.9591 1248.45 123.04 1248.26 123.189L1313.14 120.135L1324.63 128.887L1367.45 65.6536Z" fill="#9D3728"/>
</g>
<path d="M1387.49 82.5604C1387.49 82.5604 1420.17 130.413 1352.32 211.037L1350.13 209.175L1343.07 145.421L1332.51 135.552L1387.49 82.5604Z" fill="#EB5542"/>
<path d="M1388.05 125.088C1388.97 118.543 1391.31 112.278 1394.89 106.729C1394.28 98.2111 1391.74 89.945 1387.45 82.5604L1332.51 135.552L1343.07 145.421L1350.13 209.175L1351.69 210.479C1353.81 206.01 1384.03 162.477 1388.05 125.088Z" fill="#9D3728"/>
<path d="M1442.4 6.0329C1441.18 3.89094 1439.36 2.1557 1437.16 1.04278C1436.39 0.668333 1435.6 0.356975 1434.78 0.111787C1424.33 -0.633006 1402.99 1.93653 1377.04 27.9298L1288.86 133.542L1337.19 174.133L1425.23 68.5211C1446.9 37.6494 1445 15.9014 1442.4 6.0329Z" fill="#FBFBFB"/>
<g style="mix-blend-mode:color-dodge">
<path d="M1425.3 21.115C1424.93 20.4795 1424.33 20.0121 1423.63 19.8116C1417.12 18.4337 1395.89 16.7579 1369.13 43.6077L1292.02 136.074L1334.51 171.6L1411.54 79.1344C1421.58 64.6481 1429.61 47.071 1427.27 28.9353C1427.13 26.2246 1426.46 23.5678 1425.3 21.115Z" fill="white"/>
</g>
<path d="M1316.7 100.404L1314.13 103.491L1362.62 144.042L1365.19 140.955L1316.7 100.404Z" fill="#079BD7"/>
<path d="M1369.83 135.18L1321.35 94.6261L1322.65 93.0992L1371.13 133.616L1369.83 135.18Z" fill="#079BD7"/>
<g opacity="0.4">
<path d="M1442.4 6.0329C1441.18 3.89094 1439.36 2.1557 1437.16 1.04278C1436.39 0.668333 1435.6 0.356975 1434.78 0.111787C1424.33 -0.633006 1402.99 1.93653 1377.04 27.9298L1288.86 133.542L1337.19 174.133L1425.23 68.5211C1446.9 37.6494 1445 15.9014 1442.4 6.0329ZM1313.73 112.762L1381.39 31.5793C1392.92 17.8006 1417.38 6.21909 1425.08 6.59149C1432.77 6.96389 1435.26 26.254 1435.26 26.254L1333.92 129.631L1313.73 112.762Z" fill="#FF0000"/>
</g>
<path d="M1295.66 164.488C1300.79 157.84 1305.19 150.661 1308.79 143.075L1291.72 128.849C1284.95 133.746 1278.72 139.351 1273.14 145.57C1275.66 149.923 1279.04 153.722 1283.06 156.742C1286.72 160.122 1291 162.754 1295.66 164.488Z" fill="white"/>
<path d="M1303.73 152.385C1305.53 149.408 1307.17 146.338 1308.64 143.187L1291.58 128.961C1288.8 130.927 1286.13 133.04 1283.58 135.292C1288.49 142.834 1295.5 148.775 1303.73 152.385Z" fill="#ADAFB2"/>
<path d="M1276.15 142.405L1273.06 145.682C1275.59 150.034 1278.96 153.833 1282.99 156.854C1286.66 160.269 1290.97 162.927 1295.66 164.674C1296.59 163.482 1297.41 162.328 1298.23 161.173C1289.06 157.433 1281.32 150.857 1276.15 142.405Z" fill="#ADAFB2"/>
<path d="M1281.43 137.34L1278.34 140.245C1283.47 148.473 1291.05 154.882 1300.01 158.567C1300.83 157.338 1301.61 156.109 1302.32 154.843C1293.77 151.228 1286.49 145.132 1281.43 137.34Z" fill="#ADAFB2"/>
<g style="mix-blend-mode:screen" opacity="0.5">
<path d="M1296 132.536L1294.77 131.493C1291.05 134.398 1286.97 136.67 1283.62 139.686C1280.27 142.702 1277.56 145.16 1274.66 148.028L1276.18 150.001C1282.35 143.695 1288.97 137.857 1296 132.536Z" fill="white"/>
</g>
<g style="mix-blend-mode:multiply">
<path d="M1285.14 158.567C1288.3 161.111 1291.85 163.112 1295.66 164.488C1300.79 157.84 1305.19 150.661 1308.79 143.075L1301.98 137.414C1296.82 144.812 1291.19 151.876 1285.14 158.567Z" fill="#B3B5B8"/>
</g>
<path d="M1327.41 191.114C1332.53 184.481 1336.92 177.314 1340.5 169.739L1323.47 155.476C1316.7 160.375 1310.47 165.98 1304.88 172.196C1307.4 176.545 1310.76 180.344 1314.77 183.368C1318.44 186.758 1322.73 189.39 1327.41 191.114Z" fill="white"/>
<path d="M1335.63 178.899C1337.42 175.938 1339.05 172.88 1340.5 169.739L1323.47 155.476C1320.68 157.441 1317.99 159.567 1315.44 161.844C1320.38 169.365 1327.4 175.289 1335.63 178.899Z" fill="#ADAFB2"/>
<path d="M1307.9 168.956C1306.89 169.999 1305.85 171.042 1304.81 172.196C1307.33 176.545 1310.69 180.344 1314.7 183.368C1318.38 186.779 1322.7 189.425 1327.41 191.151L1329.94 187.688C1320.78 183.971 1313.05 177.405 1307.9 168.956Z" fill="#ADAFB2"/>
<path d="M1313.17 163.855C1312.17 164.748 1311.13 165.717 1310.09 166.759C1315.19 174.995 1322.75 181.417 1331.69 185.118C1332.54 183.852 1333.29 182.661 1334.03 181.394C1325.47 177.785 1318.2 171.672 1313.17 163.855Z" fill="#ADAFB2"/>
<g style="mix-blend-mode:screen" opacity="0.5">
<path d="M1327.75 159.051L1326.48 158.008C1322.77 160.95 1318.71 163.184 1315.33 166.238C1311.95 169.292 1309.27 171.675 1306.37 174.542C1306.78 175.138 1307.3 175.809 1307.9 176.553C1314.06 170.226 1320.7 164.375 1327.75 159.051Z" fill="white"/>
</g>
<g style="mix-blend-mode:multiply">
<path d="M1316.82 185.081C1319.97 187.692 1323.56 189.733 1327.41 191.114C1332.53 184.481 1336.92 177.314 1340.5 169.739L1333.73 164.078C1328.53 171.421 1322.88 178.435 1316.82 185.081Z" fill="#B3B5B8"/>
</g>
<path d="M1344.63 181.543C1349.82 173.379 1352.97 164.079 1353.81 154.433L1305.48 114.028C1296.16 116.575 1287.59 121.341 1280.5 127.918C1289.95 138.246 1300.21 147.809 1311.17 156.518C1321.65 165.72 1332.84 174.087 1344.63 181.543Z" fill="#3B3D3F"/>
<g style="mix-blend-mode:multiply">
<path d="M1308.12 116.262L1305.44 114.028C1296.12 116.575 1287.55 121.341 1280.46 127.918C1280.46 127.918 1281.35 128.961 1283.06 130.786C1290.49 124.499 1298.97 119.582 1308.12 116.262Z" fill="#B3B5B8"/>
</g>
<g style="mix-blend-mode:multiply">
<path d="M1326.3 168.845C1332.18 173.395 1338.3 177.634 1344.63 181.543C1349.82 173.379 1352.97 164.079 1353.81 154.433L1340.91 143.782C1337.37 152.845 1332.44 161.3 1326.3 168.845Z" fill="#B3B5B8"/>
</g>
<path d="M1360.2 100.696C1359.86 100.082 1359.45 99.5079 1358.98 98.9831C1358.38 98.6266 1357.74 98.3393 1357.08 98.1266C1353.81 97.0467 1347.82 97.0467 1338.01 103.191L1305.74 157.673C1304.23 160.274 1303.29 163.169 1302.99 166.163C1305.87 165.337 1308.55 163.902 1310.83 161.955L1358.57 120.433C1362.88 109.634 1361.84 103.75 1360.2 100.696Z" fill="#EB5542"/>
<g style="mix-blend-mode:multiply" opacity="0.4">
<path d="M1360.2 100.696C1359.86 100.082 1359.45 99.5079 1358.98 98.9831L1303.21 166.015C1303.19 166.113 1303.19 166.214 1303.21 166.312C1306.1 165.486 1308.77 164.051 1311.06 162.104L1358.79 120.582C1362.88 109.634 1361.84 103.75 1360.2 100.696Z" fill="#575A5C"/>
</g>
<g style="mix-blend-mode:color-dodge" opacity="0.4">
<path d="M1424.67 12.736C1424.67 12.736 1406.67 10.7251 1389.09 29.1587L1333.96 94.7005L1337.19 97.4563C1337.19 97.4563 1378.09 44.5759 1391.39 43.9801L1397.42 45.0973L1424.67 12.736Z" fill="#FBFBFB"/>
</g>
<g style="mix-blend-mode:multiply" opacity="0.7">
<path d="M1417.68 68.1859C1414.59 71.8658 1410.48 74.5445 1405.86 75.8833C1401.25 77.2222 1396.35 77.161 1391.77 75.7076C1387.19 74.2541 1383.15 71.4736 1380.15 67.7178C1377.15 63.962 1375.33 59.3995 1374.92 54.6074C1374.51 49.8153 1375.52 45.0088 1377.84 40.7957C1380.16 36.5826 1383.67 33.1523 1387.93 30.9384C1392.19 28.7246 1397.02 27.8268 1401.79 28.3585C1406.56 28.8901 1411.07 30.8275 1414.74 33.9254C1419.67 38.0789 1422.74 44.0216 1423.29 50.4465C1423.84 56.8714 1421.82 63.2523 1417.68 68.1859Z" fill="#898B8E"/>
</g>
<path d="M1417.46 65.9515C1414.56 69.3836 1410.72 71.8795 1406.41 73.1237C1402.1 74.368 1397.52 74.3046 1393.25 72.9418C1388.98 71.5789 1385.2 68.9777 1382.4 65.467C1379.61 61.9562 1377.91 57.6935 1377.53 53.2177C1377.15 48.7419 1378.11 44.254 1380.27 40.3211C1382.44 36.3883 1385.72 33.1872 1389.7 31.1224C1393.69 29.0576 1398.19 28.2218 1402.65 28.7207C1407.1 29.2197 1411.31 31.0309 1414.74 33.9254C1417.02 35.8489 1418.9 38.2035 1420.27 40.8544C1421.64 43.5054 1422.47 46.4007 1422.73 49.3751C1422.98 52.3494 1422.64 55.3443 1421.74 58.1886C1420.83 61.0329 1419.38 63.6708 1417.46 65.9515Z" fill="#EB5542"/>
<path d="M1413.92 63.531C1411.57 66.3068 1408.45 68.3234 1404.96 69.3263C1401.47 70.3293 1397.76 70.2738 1394.29 69.1668C1390.83 68.0598 1387.78 65.9508 1385.51 63.1059C1383.24 60.2609 1381.87 56.8073 1381.56 53.1805C1381.25 49.5536 1382.01 45.9159 1383.76 42.726C1385.52 39.5361 1388.17 36.9368 1391.39 35.2558C1394.62 33.5748 1398.26 32.8874 1401.88 33.2802C1405.49 33.673 1408.91 35.1285 1411.69 37.4632C1415.41 40.6414 1417.73 45.1594 1418.15 50.0385C1418.57 54.9176 1417.05 59.7651 1413.92 63.531Z" fill="white"/>
<g style="mix-blend-mode:multiply">
<path d="M1411.54 37.5376C1408.74 35.1409 1405.29 33.6337 1401.63 33.2076C1397.96 32.7815 1394.26 33.4558 1390.98 35.1447C1387.7 36.8335 1385 39.4608 1383.21 42.6924C1381.43 45.924 1380.65 49.6139 1380.96 53.2933C1381.27 56.9726 1382.67 60.475 1384.98 63.3554C1387.29 66.2357 1390.4 68.3638 1393.92 69.4692C1397.43 70.5746 1401.2 70.6073 1404.74 69.5632C1408.27 68.519 1411.42 66.4452 1413.78 63.6054C1415.35 61.7509 1416.53 59.6033 1417.27 57.2865C1418.01 54.9697 1418.28 52.5295 1418.08 50.1064C1417.87 47.6833 1417.19 45.3253 1416.06 43.1681C1414.94 41.011 1413.41 39.0974 1411.54 37.5376ZM1390.43 62.6744C1388.04 60.6573 1386.31 57.9773 1385.44 54.9726C1384.57 51.968 1384.61 48.7735 1385.56 45.7924C1386.5 42.8114 1388.31 40.1774 1390.75 38.223C1393.18 36.2686 1396.14 35.0814 1399.25 34.8114C1402.37 34.5414 1405.49 35.2005 1408.22 36.7057C1410.96 38.2109 1413.19 40.4946 1414.63 43.2685C1416.07 46.0424 1416.66 49.1821 1416.33 52.2913C1415.99 55.4005 1414.74 58.3397 1412.73 60.738C1410.04 63.9125 1406.2 65.8955 1402.05 66.2579C1397.91 66.6203 1393.78 65.333 1390.58 62.6744H1390.43Z" fill="#C9CACC"/>
</g>
<g style="mix-blend-mode:screen">
<path d="M1394.52 30.7228C1391.58 31.3613 1388.85 32.7463 1386.6 34.7447C1386.79 35.2661 1387.01 35.8246 1387.23 36.346C1389.74 34.0615 1392.9 32.6167 1396.27 32.2124C1400.54 31.8034 1404.85 32.5233 1408.77 34.3003C1412.68 36.0774 1416.06 38.8497 1418.57 42.3416C1418.24 40.9637 1412.73 26.7009 1394.52 30.7228Z" fill="white"/>
</g>
<g style="mix-blend-mode:screen">
<path d="M1384.48 36.9791C1381.22 41.4832 1379.41 46.8728 1379.28 52.4335C1379.94 47.3568 1381.97 42.5566 1385.15 38.5431L1384.48 36.9791Z" fill="white"/>
</g>
<path fill-rule="evenodd" clip-rule="evenodd" d="M1598.11 1144.07C1600.03 1139.07 1600.87 1133.72 1600.57 1128.38C1600.14 1119.69 1597.78 1111.22 1593.64 1103.57C1589.51 1095.93 1583.71 1089.31 1576.68 1084.21C1565.26 1076.09 1551.39 1072.13 1537.4 1072.99C1536.54 1067.72 1535.15 1062.55 1533.24 1057.56C1530.86 1051.34 1527.74 1045.43 1523.96 1039.96C1512.84 1026.61 1497.98 1016.9 1481.29 1012.08C1481.03 1012.01 1480.76 1011.95 1480.49 1011.88C1471.72 1009.7 1455.25 1005.61 1440.39 1013.62C1434.47 1016.92 1429.45 1021.63 1425.77 1027.32C1422.8 1032.08 1421.28 1037.6 1421.39 1043.2C1413.58 1034.78 1402.58 1029.48 1392.6 1035.92C1389.96 1037.63 1387.7 1039.88 1385.97 1042.52C1375.99 1028.8 1363.94 1016.72 1350.23 1006.74C1335.11 995.445 1308.71 981.794 1289.12 989.104C1284.65 980.995 1279.21 973.461 1272.92 966.665C1269.52 961.941 1265.12 958.03 1260.04 955.215C1254.95 952.4 1249.3 950.75 1243.49 950.386C1234.36 950.111 1223.05 957.148 1221.42 966.837C1218.64 965.751 1215.82 964.875 1213.21 964.346C1204.74 961.301 1196.16 960.65 1190.93 964.99C1184.7 957.995 1172.33 955.005 1163.62 952.9C1162.9 952.725 1162.2 952.556 1161.53 952.391C1157.25 951.434 1152.8 951.557 1148.58 952.749C1140.16 955.116 1139.7 954.31 1137.73 950.861C1136.93 949.457 1135.88 947.615 1133.93 945.371C1125.48 935.956 1115.53 928.012 1104.48 921.861C1076.59 906.427 1045.56 897.554 1013.73 895.916C991.946 894.339 952.69 895.33 945.968 921.924C936.375 916.708 919.074 908.649 910.685 914.765C902.661 900.185 885.76 893.56 868.331 891.98C866.09 891.735 863.84 891.613 861.592 891.615C852.696 891.448 843.944 892.497 836.444 894.377C834.145 890.482 831.515 886.791 828.582 883.345C824.261 878.279 819.348 873.75 813.949 869.856C799.011 860.984 781.76 856.794 764.42 857.828L764.223 857.847C764.019 857.867 763.809 857.887 763.596 857.908C754.605 858.785 737.717 860.432 726.388 872.942C721.91 878.032 718.749 884.144 717.182 890.741C715.976 896.217 716.383 901.926 718.354 907.175C708.18 901.843 690.212 903.793 690.212 903.793C690.212 903.793 676.291 908.012 675.542 911.075C664.585 903.55 658.407 901.883 648.424 899.189C645.668 898.445 642.621 897.622 639.103 896.577C621.079 890.981 591.635 886.933 575.613 900.366C571.926 897.092 568.035 894.062 563.965 891.296C562.237 888.423 560.175 885.747 557.81 883.328C552.212 877.602 545.139 873.538 537.377 871.588C513.254 865.486 475.198 868.219 462.164 892.734C453.688 886.739 436.505 895.047 426.987 900.401C419.883 873.907 380.616 873.482 358.853 875.373C327.054 877.47 296.153 886.79 268.495 902.625C257.533 908.934 247.694 917.022 239.38 926.557C237.471 928.829 236.446 930.686 235.664 932.102C233.744 935.579 233.295 936.391 224.842 934.146C220.605 933.015 216.153 932.956 211.889 933.975C211.231 934.147 210.543 934.324 209.83 934.507L209.815 934.511L209.804 934.514C201.126 936.744 188.803 939.912 182.675 946.996C177.377 942.732 168.809 943.507 160.382 946.674C150.137 948.907 136.756 956.577 134.651 961.076C130.417 970.411 134.673 985.359 145.513 989.127C152.05 991.041 159.064 990.461 165.197 987.499C164.127 989.464 163.404 991.599 163.058 993.811C161.463 1004.14 171.469 1014.32 180.883 1016.11C186.629 1017.02 192.503 1016.64 198.081 1014.99C203.66 1013.35 208.804 1010.49 213.143 1006.61C220.756 1001.34 227.702 995.169 233.827 988.225C251.362 999.613 280.097 992.019 297.308 984.275C312.857 977.505 327.25 968.337 339.962 957.107C341.078 960.057 342.795 962.742 345.005 964.991C353.351 973.438 365.234 970.658 374.685 964.131C373.366 969.58 373.655 975.295 375.517 980.585C377.874 986.943 381.754 992.626 386.816 997.134C399.582 1008.18 416.544 1007.76 425.575 1007.54L425.584 1007.54L425.997 1007.53L426.402 1007.52C443.74 1006.44 460.355 1000.18 474.105 989.563C478.991 985.042 483.317 979.95 486.991 974.397C489.933 969.939 492.415 965.194 494.398 960.235C507.872 964.111 522.264 963.255 535.181 957.81C537.818 956.668 540.359 955.334 542.785 953.824C548.083 955.264 553.688 955.996 558.291 956.597C558.773 956.66 559.245 956.722 559.703 956.782C559.948 956.815 560.189 956.847 560.426 956.879C564.782 957.372 569.194 956.773 573.262 955.136C581.38 951.881 581.924 952.632 584.252 955.85C585.2 957.16 586.444 958.879 588.614 960.903C598.025 969.358 608.773 976.19 620.42 981.122C649.797 993.481 681.601 998.978 713.42 997.197C735.251 996.432 774.176 991.241 778.01 964.081C788.107 968.239 806.171 974.399 813.857 967.419C824.202 982.207 843.924 986.576 862.834 985.354C867.611 985.26 872.385 984.607 877.059 983.391C877.873 983.219 878.68 983.037 879.479 982.847C881.526 987.733 884.058 992.4 887.039 996.778C890.792 1002.28 895.192 1007.31 900.143 1011.76C914.044 1022.18 930.747 1028.19 948.099 1029.02C948.367 1029.02 948.643 1029.03 948.927 1029.03C957.959 1029.12 974.926 1029.29 987.531 1018.07C992.528 1013.49 996.326 1007.75 998.59 1001.36C1000.38 996.041 1000.58 990.322 999.185 984.893C1008.73 991.283 1020.65 993.892 1028.87 985.325C1029.12 985.071 1029.36 984.823 1029.59 984.578C1031.49 982.618 1033.19 980.861 1034.14 978.225C1047.01 989.271 1061.2 997.373 1076.84 1003.92C1094.17 1011.41 1123.01 1018.59 1140.38 1006.95C1146.6 1013.81 1153.63 1019.88 1161.32 1025.04C1165.72 1028.85 1170.9 1031.64 1176.5 1033.2C1182.11 1034.76 1187.98 1035.06 1193.72 1034.08C1201.89 1032.39 1210.42 1024.35 1211.34 1015.5C1218.01 1019.22 1224.92 1020.87 1230.23 1018.24C1234.68 1026.49 1246.02 1032.26 1254.01 1036.32C1254.67 1036.66 1255.31 1036.98 1255.93 1037.3C1259.87 1039.22 1264.23 1040.13 1268.61 1039.94C1277.35 1039.59 1277.61 1040.48 1278.73 1044.29C1279.18 1045.84 1279.78 1047.87 1281.15 1050.51C1287.2 1061.62 1295.05 1071.65 1304.38 1080.19C1327.94 1101.65 1356.08 1117.46 1386.66 1126.41C1407.5 1132.98 1445.92 1141.09 1458.61 1116.77C1466.73 1124.06 1481.7 1135.9 1491.28 1131.89C1498.68 1158.65 1535.24 1169.58 1560.11 1168.86C1568.11 1168.64 1575.89 1166.21 1582.6 1161.83C1589.31 1157.46 1594.68 1151.31 1598.11 1144.07Z" fill="white"/>
<path d="M74.6624 1103.05C74.6624 1103.05 126.703 1128 196.064 1048.34L193.909 1046.44L129.969 1049.16L118.664 1040.2L74.6624 1103.05Z" fill="#EB5542"/>
<path d="M74.6624 1103.05C74.6624 1103.05 126.703 1128 196.064 1048.34L193.909 1046.44L129.969 1049.16L118.664 1040.2L74.6624 1103.05Z" fill="#EB5542"/>
<g style="mix-blend-mode:multiply">
<path d="M74.6691 1103.21C74.6691 1103.21 88.7732 1110.01 112.064 1105.21C109.585 1104.88 104.46 1101.62 107.182 1100.98C156.264 1088.99 194.622 1047.22 194.81 1047.08L130.02 1049.21L118.744 1040.25L74.6691 1103.21Z" fill="#9D3728"/>
</g>
<path d="M54.8868 1085.7C54.8868 1085.7 23.2568 1037.3 92.3977 957.69L94.5467 959.588L100.354 1023.5L110.681 1033.54L54.8868 1085.7Z" fill="#EB5542"/>
<path d="M55.1533 1043.13C54.1086 1049.67 51.6625 1055.9 47.9852 1061.4C48.4291 1069.93 50.8029 1078.24 54.9259 1085.7L110.683 1033.54L100.356 1023.5L94.5484 959.588L93.0181 958.259C90.8211 962.697 59.8738 1005.78 55.1533 1043.13Z" fill="#9D3728"/>
<path d="M-1.31466 1161.41C-0.137317 1163.57 1.64795 1165.34 3.81929 1166.49C4.57695 1166.88 5.36489 1167.2 6.17535 1167.46C16.5845 1168.37 37.9262 1166.13 64.32 1140.52L154.347 1036.16L106.908 994.747L17.0296 1099.11C-5.19251 1129.68 -3.7207 1151.49 -1.31466 1161.41Z" fill="#FBFBFB"/>
<g style="mix-blend-mode:color-dodge">
<path d="M16.0381 1146.6C16.3927 1147.24 16.9822 1147.72 17.6821 1147.93C24.147 1149.41 45.2955 1151.43 72.5219 1124.97L151.241 1033.59L109.528 997.348L30.8833 1088.72C20.5882 1103.07 12.2364 1120.54 14.2231 1138.74C14.311 1141.46 14.9276 1144.13 16.0381 1146.6Z" fill="white"/>
</g>
<path d="M125.994 1069L128.63 1065.95L80.8707 1024.57L78.2343 1027.62L125.994 1069Z" fill="#079BD7"/>
<path d="M73.5675 1033.3L121.179 1074.69L119.851 1076.2L72.2384 1034.85L73.5675 1033.3Z" fill="#079BD7"/>
<g opacity="0.4">
<path d="M-1.30655 1161.63C-0.135954 1163.79 1.64206 1165.56 3.80654 1166.71C4.56182 1167.09 5.34744 1167.42 6.15567 1167.68C16.5408 1168.57 37.8415 1166.3 64.2293 1140.61L154.269 1035.98L107.012 994.588L17.1207 1099.22C-5.11399 1129.86 -3.68802 1151.7 -1.30655 1161.63ZM129.065 1056.46L59.9761 1136.89C48.2092 1150.54 23.608 1161.8 15.9539 1161.32C8.29991 1160.83 6.22948 1141.46 6.22948 1141.46L109.325 1039.25L129.065 1056.46Z" fill="#FF0000"/>
</g>
<path d="M148.202 1005.27C142.959 1011.85 138.429 1018.97 134.691 1026.51L151.446 1041.03C158.298 1036.23 164.625 1030.71 170.321 1024.58C167.882 1020.18 164.586 1016.32 160.63 1013.23C157.046 1009.79 152.824 1007.08 148.202 1005.27Z" fill="white"/>
<path d="M139.917 1017.25C138.064 1020.2 136.37 1023.25 134.841 1026.38L151.598 1040.9C154.406 1038.98 157.11 1036.9 159.699 1034.69C154.943 1027.05 148.067 1020.99 139.917 1017.25Z" fill="#ADAFB2"/>
<path d="M167.253 1027.72L170.397 1024.49C167.957 1020.09 164.661 1016.23 160.704 1013.14C157.104 1009.66 152.856 1006.93 148.2 1005.1C147.249 1006.28 146.41 1007.43 145.572 1008.57C154.652 1012.46 162.248 1019.17 167.253 1027.72Z" fill="#ADAFB2"/>
<path d="M161.888 1032.69L165.024 1029.83C160.06 1021.51 152.616 1014.97 143.742 1011.14C142.902 1012.35 142.099 1013.57 141.37 1014.83C149.837 1018.59 156.983 1024.81 161.888 1032.69Z" fill="#ADAFB2"/>
<g style="mix-blend-mode:screen" opacity="0.5">
<path d="M147.269 1037.27L148.473 1038.33C152.241 1035.48 156.367 1033.27 159.765 1030.3C163.164 1027.33 165.921 1024.91 168.871 1022.09L167.387 1020.09C161.113 1026.31 154.388 1032.05 147.269 1037.27Z" fill="white"/>
</g>
<g style="mix-blend-mode:multiply">
<path d="M158.565 1011.37C155.467 1008.77 151.957 1006.71 148.182 1005.27C142.94 1011.85 138.412 1018.97 134.674 1026.51L141.353 1032.28C146.65 1024.96 152.399 1017.97 158.565 1011.37Z" fill="#B3B5B8"/>
</g>
<path d="M116.923 978.096C111.688 984.658 107.171 991.766 103.45 999.297L120.167 1013.85C127.017 1009.05 133.344 1003.54 139.042 997.398C136.614 993.003 133.331 989.145 129.388 986.053C125.797 982.601 121.561 979.897 116.923 978.096Z" fill="white"/>
<path d="M108.487 990.179C106.642 993.117 104.96 996.154 103.449 999.278L120.169 1013.83C122.999 1011.91 125.717 1009.82 128.308 1007.58C123.521 999.97 116.636 993.925 108.487 990.179Z" fill="#ADAFB2"/>
<path d="M135.973 1000.62C136.995 999.589 138.054 998.561 139.116 997.421C136.687 993.025 133.404 989.166 129.46 986.074C125.85 982.599 121.587 979.881 116.918 978.077L114.328 981.506C123.402 985.374 130.99 992.074 135.973 1000.62Z" fill="#ADAFB2"/>
<path d="M130.607 1005.63C131.627 1004.75 132.684 1003.79 133.744 1002.77C128.81 994.436 121.392 987.883 112.537 984.034C111.659 985.289 110.893 986.471 110.127 987.728C118.599 991.478 125.737 997.717 130.607 1005.63Z" fill="#ADAFB2"/>
<g style="mix-blend-mode:screen" opacity="0.5">
<path d="M115.988 1010.2L117.23 1011.27C120.998 1008.38 125.086 1006.21 128.522 1003.2C131.959 1000.19 134.677 997.85 137.627 995.023C137.23 994.42 136.724 993.74 136.144 992.985C129.866 999.226 123.128 1004.98 115.988 1010.2Z" fill="white"/>
</g>
<g style="mix-blend-mode:multiply">
<path d="M127.359 984.304C124.26 981.64 120.722 979.54 116.903 978.096C111.67 984.657 107.153 991.764 103.433 999.293L110.075 1005.07C115.408 997.797 121.18 990.863 127.359 984.304Z" fill="#B3B5B8"/>
</g>
<path d="M99.6129 987.371C94.2687 995.466 90.9447 1004.73 89.9236 1014.38L137.383 1055.62C146.738 1053.21 155.385 1048.57 162.588 1042.1C153.349 1031.6 143.298 1021.86 132.527 1012.97C122.238 1003.58 111.234 995.026 99.6129 987.371Z" fill="#3B3D3F"/>
<g style="mix-blend-mode:multiply">
<path d="M134.869 1053.33L137.499 1055.62C146.86 1053.21 155.511 1048.57 162.719 1042.09C162.719 1042.09 161.848 1041.03 160.175 1039.17C152.634 1045.36 144.066 1050.15 134.869 1053.33Z" fill="#B3B5B8"/>
</g>
<g style="mix-blend-mode:multiply">
<path d="M117.584 1000.37C111.804 995.724 105.784 991.384 99.5497 987.371C94.2098 995.461 90.8885 1004.72 89.8682 1014.37L102.529 1025.23C106.237 1016.21 111.316 1007.83 117.584 1000.37Z" fill="#B3B5B8"/>
</g>
<path d="M82.5192 1068.04C82.8523 1068.66 83.2517 1069.24 83.7102 1069.77C84.2995 1070.14 84.9286 1070.44 85.5853 1070.66C88.8285 1071.8 94.8001 1071.89 104.711 1065.89L137.958 1011.85C139.516 1009.27 140.508 1006.39 140.867 1003.39C137.973 1004.18 135.277 1005.57 132.959 1007.48L84.5324 1048.3C80.0213 1059.05 80.9462 1064.96 82.5192 1068.04Z" fill="#EB5542"/>
<g style="mix-blend-mode:multiply" opacity="0.4">
<path d="M82.5167 1068.04C82.8498 1068.66 83.2491 1069.24 83.7077 1069.78L140.641 1003.54C140.661 1003.44 140.663 1003.34 140.646 1003.24C137.753 1004.02 135.056 1005.42 132.739 1007.33L84.3102 1048.15C80.0187 1059.05 80.9436 1064.96 82.5167 1068.04Z" fill="#575A5C"/>
</g>
<g style="mix-blend-mode:color-dodge" opacity="0.4">
<path d="M16.5252 1154.92C16.5252 1154.92 34.4461 1157.22 52.3537 1139.03L108.65 1074.26L105.474 1071.44C105.474 1071.44 63.6352 1123.76 50.3394 1124.15L44.3497 1122.94L16.5252 1154.92Z" fill="#FBFBFB"/>
</g>
<g style="mix-blend-mode:multiply" opacity="0.7">
<path d="M24.5451 1099.45C27.702 1095.82 31.8574 1093.2 36.4859 1091.93C41.1144 1090.66 46.0081 1090.8 50.548 1092.33C55.0879 1093.86 59.0702 1096.71 61.9912 1100.52C64.9122 1104.33 66.6407 1108.92 66.9581 1113.73C67.2756 1118.54 66.1676 1123.33 63.7745 1127.52C61.3813 1131.7 57.8105 1135.08 53.5134 1137.23C49.2164 1139.38 44.3863 1140.2 39.6339 1139.59C34.8815 1138.99 30.4203 1136.97 26.8145 1133.81C21.9801 1129.58 19.0252 1123.58 18.5996 1117.13C18.1741 1110.69 20.3127 1104.33 24.5451 1099.45Z" fill="#898B8E"/>
</g>
<path d="M24.7249 1101.69C27.6784 1098.3 31.5627 1095.86 35.887 1094.68C40.2113 1093.51 44.7813 1093.64 49.0193 1095.07C53.2574 1096.51 56.9733 1099.17 59.6972 1102.73C62.4212 1106.29 64.0309 1110.59 64.323 1115.08C64.6151 1119.56 63.5763 1124.04 61.3381 1127.95C59.0999 1131.85 55.7627 1135.01 51.7483 1137.01C47.7339 1139.02 43.2226 1139.78 38.7846 1139.21C34.3466 1138.64 30.1811 1136.76 26.8147 1133.81C24.5777 1131.85 22.7489 1129.46 21.4331 1126.78C20.1172 1124.11 19.34 1121.19 19.1459 1118.21C18.9518 1115.23 19.3447 1112.23 20.3019 1109.4C21.2592 1106.57 22.7621 1103.95 24.7249 1101.69Z" fill="#EB5542"/>
<path d="M28.2029 1104.17C30.6026 1101.43 33.754 1099.46 37.2597 1098.51C40.7654 1097.56 44.4685 1097.68 47.9021 1098.84C51.3356 1100 54.3459 1102.16 56.5535 1105.05C58.761 1107.93 60.067 1111.41 60.3066 1115.05C60.5463 1118.69 59.709 1122.32 57.9003 1125.49C56.0915 1128.65 53.3923 1131.21 50.143 1132.85C46.8937 1134.48 43.2397 1135.11 39.6417 1134.66C36.0438 1134.21 32.663 1132.7 29.9255 1130.32C26.2752 1127.07 24.0475 1122.51 23.7251 1117.62C23.4026 1112.73 25.0114 1107.9 28.2029 1104.17Z" fill="white"/>
<g style="mix-blend-mode:multiply">
<path d="M30.0761 1130.24C32.8289 1132.69 36.2456 1134.25 39.892 1134.74C43.5385 1135.22 47.2498 1134.61 50.5543 1132.97C53.8588 1131.33 56.6073 1128.74 58.4502 1125.53C60.2931 1122.32 61.1473 1118.64 60.9041 1114.95C60.661 1111.26 59.3315 1107.73 57.0847 1104.81C54.8379 1101.89 51.7752 1099.71 48.2861 1098.54C44.7969 1097.38 41.0388 1097.29 37.4895 1098.28C33.9403 1099.27 30.7602 1101.3 28.3535 1104.1C26.7502 1105.93 25.5224 1108.07 24.7408 1110.38C23.9591 1112.68 23.6392 1115.12 23.7993 1117.55C23.9594 1119.98 24.5965 1122.36 25.6738 1124.53C26.751 1126.71 28.2472 1128.65 30.0761 1130.24ZM51.6359 1105.4C53.9783 1107.46 55.6591 1110.17 56.466 1113.2C57.273 1116.22 57.17 1119.42 56.17 1122.39C55.17 1125.36 53.3179 1127.97 50.8474 1129.89C48.3769 1131.81 45.3989 1132.95 42.2893 1133.17C39.1797 1133.39 36.0779 1132.68 33.3755 1131.13C30.6731 1129.58 28.4914 1127.26 27.1056 1124.46C25.7198 1121.66 25.1922 1118.5 25.5893 1115.39C25.9865 1112.28 27.2905 1109.36 29.337 1106.99C32.0911 1103.85 35.9592 1101.93 40.1045 1101.63C44.2498 1101.33 48.3389 1102.69 51.4875 1105.4L51.6359 1105.4Z" fill="#C9CACC"/>
</g>
<g style="mix-blend-mode:screen">
<path d="M46.9691 1137.32C49.919 1136.73 52.6703 1135.38 54.9587 1133.41C54.7831 1132.88 54.571 1132.32 54.3582 1131.79C51.8067 1134.05 48.6239 1135.45 45.2521 1135.8C40.9706 1136.14 36.6786 1135.35 32.803 1133.5C28.9274 1131.66 25.6032 1128.82 23.161 1125.28C23.4687 1126.66 28.6904 1141.07 46.9691 1137.32Z" fill="white"/>
</g>
<g style="mix-blend-mode:screen">
<path d="M57.1273 1131.24C60.4567 1126.79 62.3669 1121.42 62.6048 1115.86C61.841 1120.93 59.7284 1125.7 56.4914 1129.67L57.1273 1131.24Z" fill="white"/>
</g>
</svg>
