<svg width="22" height="22" viewBox="0 0 22 22" fill="none" xmlns="http://www.w3.org/2000/svg">
<path fill-rule="evenodd" clip-rule="evenodd" d="M0.176739 0.183179C0.145863 0.215041 0.124699 0.255053 0.115732 0.298525C-0.576688 3.32041 1.91505 9.82376 5.52693 13.4207C6.16574 14.0638 6.85931 14.6499 7.59977 15.1725C7.50451 16.2784 7.58897 17.3844 8.00148 18.3315C9.16975 21.004 12.2415 21.782 13.558 21.9934C13.6302 22.0056 13.7042 22.0009 13.7743 21.9796C13.8443 21.9584 13.9085 21.9212 13.9618 21.8709C14.0151 21.8207 14.056 21.7588 14.0814 21.6901C14.1068 21.6213 14.1159 21.5477 14.108 21.4748L13.6376 17.1887C13.959 17.1855 14.2801 17.166 14.5996 17.1303C14.8227 17.1084 15.0311 17.0093 15.1889 16.8501L16.8492 15.1922C17.0085 15.0343 17.1076 14.8257 17.1292 14.6023C17.165 14.2808 17.1845 13.9576 17.1876 13.634L21.4752 14.1074C21.548 14.1153 21.6217 14.1063 21.6904 14.0809C21.7591 14.0556 21.821 14.0146 21.8712 13.9612C21.9214 13.9079 21.9586 13.8436 21.9798 13.7734C22.0009 13.7033 22.0056 13.6291 21.9933 13.5569C21.7767 12.2366 20.9994 9.16757 18.3294 7.99136C17.383 7.57848 16.2727 7.49639 15.1624 7.5947C14.6403 6.85536 14.0549 6.16297 13.4127 5.52538C9.81208 1.92301 3.16631 -0.585235 0.290066 0.118627C0.246927 0.128924 0.207615 0.151316 0.176739 0.183179ZM9.77601 7.92174C9.68493 8.37945 9.46028 8.79983 9.13047 9.12973C8.91177 9.34894 8.65203 9.52284 8.36613 9.6415C8.08022 9.76015 7.77375 9.82122 7.46424 9.82122C7.15473 9.82122 6.84825 9.76015 6.56235 9.6415C6.27644 9.52284 6.01671 9.34894 5.79801 9.12973C5.46819 8.79983 5.24354 8.37945 5.15246 7.92174C5.06139 7.46404 5.10798 6.98958 5.28634 6.55838C5.46471 6.12718 5.76683 5.75862 6.1545 5.4993C6.54217 5.23999 6.99796 5.10158 7.46424 5.10158C7.93051 5.10158 8.38631 5.23999 8.77397 5.4993C9.16164 5.75862 9.46377 6.12718 9.64213 6.55838C9.8205 6.98958 9.86709 7.46404 9.77601 7.92174ZM16.5222 18.5159C16.0026 18.4259 15.5709 18.3207 15.3018 18.0509C15.1604 17.903 14.9104 18.0253 14.9286 18.2308C15.0071 18.8851 15.3035 19.4938 15.7698 19.959C16.9244 21.1156 21.2144 21.2247 21.2144 21.2247C21.2144 21.2247 21.1054 16.9332 19.9509 15.7766C19.4858 15.3113 18.8785 15.0151 18.2257 14.9351C18.181 14.929 18.1355 14.9372 18.0958 14.9584C18.056 14.9797 18.0239 15.0129 18.004 15.0535C17.9842 15.094 17.9776 15.1398 17.9852 15.1843C17.9928 15.2288 18.0143 15.2697 18.0465 15.3013C18.1938 15.4488 18.4305 16.0765 18.5105 16.5242C18.7202 17.7054 17.6895 18.715 16.5222 18.5159Z" fill="#2C3D78"/>
</svg>
