<svg preserveAspectRatio="none" viewBox="0 0 1440 1473" fill="none" xmlns="http://www.w3.org/2000/svg">
<path d="M5.80157e-05 1447.55V127.336C267 211.198 437 227.557 825 270.1C1213 312.644 1440 28 1440 28V1392C1440 1392 1415.5 1284 705 1219.5C10.7493 1156.48 0.12298 1434.78 5.80157e-05 1447.55V1448C5.80157e-05 1448 -0.0028191 1447.85 5.80157e-05 1447.55Z" fill="white"/>
<path fill-rule="evenodd" clip-rule="evenodd" d="M-156.488 51.0614C-158.326 56.093 -159.071 61.4586 -158.672 66.7995C-158.097 75.4736 -155.583 83.9064 -151.316 91.4762C-147.049 99.0461 -141.138 105.56 -134.018 110.537C-122.452 118.456 -108.521 122.173 -94.5445 121.07C-93.5927 126.326 -92.1101 131.471 -90.1194 136.427C-87.6303 142.603 -84.4096 148.457 -80.5265 153.865C-69.1786 167.02 -54.1503 176.471 -37.379 180.997C-37.1179 181.056 -36.8489 181.118 -36.5722 181.182C-27.7686 183.205 -11.2318 187.006 3.48391 178.74C9.34596 175.335 14.2841 170.543 17.8649 164.785C20.7472 159.975 22.1735 154.433 21.971 148.83C29.9256 157.116 41.012 162.216 50.8793 155.609C53.4939 153.847 55.7136 151.56 57.3967 148.893C67.6065 162.439 79.8749 174.299 93.7561 184.043C109.071 195.072 135.706 208.26 155.164 200.609C159.777 208.638 165.347 216.077 171.753 222.761C175.229 227.425 179.697 231.259 184.834 233.985C189.971 236.71 195.65 238.261 201.461 238.524C210.594 238.639 221.776 231.406 223.241 221.69C226.044 222.727 228.873 223.554 231.489 224.037C240.012 226.934 248.601 227.435 253.76 223.004C260.111 229.889 272.529 232.662 281.274 234.615L281.277 234.616C282.003 234.778 282.704 234.935 283.374 235.087C287.669 235.969 292.117 235.769 296.315 234.503C304.693 231.99 305.167 232.787 307.197 236.201C308.024 237.591 309.108 239.414 311.088 241.624C319.702 250.89 329.794 258.659 340.952 264.616C369.101 279.561 400.284 287.89 432.133 288.971C453.946 290.168 493.179 288.491 499.435 261.784C509.118 266.831 526.557 274.587 534.838 268.325C543.116 282.765 560.134 289.093 577.589 290.367C579.83 290.573 582.078 290.655 584.321 290.614C593.22 290.627 601.956 289.424 609.423 287.413C611.79 291.267 614.484 294.912 617.477 298.306C621.886 303.296 626.877 307.738 632.343 311.538C647.434 320.147 664.756 324.035 682.075 322.698C682.341 322.667 682.616 322.636 682.898 322.603C691.871 321.57 708.728 319.628 719.837 306.922C724.225 301.755 727.279 295.588 728.731 288.965C729.841 283.468 729.334 277.768 727.272 272.554C737.537 277.707 755.468 275.443 755.468 275.443C755.468 275.443 769.313 270.982 770.009 267.906C781.096 275.239 787.302 276.798 797.33 279.317C800.1 280.013 803.16 280.782 806.696 281.766C824.815 287.046 854.325 290.579 870.11 276.868C873.853 280.078 877.797 283.039 881.915 285.734C883.692 288.576 885.801 291.215 888.208 293.593C893.905 299.22 901.048 303.16 908.844 304.974C933.069 310.654 971.072 307.256 983.675 282.517C992.255 288.363 1009.29 279.756 1018.71 274.237C1026.28 300.603 1065.55 300.341 1087.27 298.07C1119.03 295.418 1149.76 285.56 1177.14 269.244C1187.99 262.744 1197.69 254.486 1205.83 244.807C1207.7 242.502 1208.7 240.627 1209.45 239.198C1211.31 235.688 1211.75 234.869 1220.24 236.965C1224.49 238.022 1228.95 238.003 1233.19 236.91C1233.5 236.823 1233.82 236.736 1234.14 236.646C1234.5 236.546 1234.87 236.444 1235.25 236.34L1235.27 236.335C1243.9 233.953 1256.17 230.57 1262.17 223.38C1267.55 227.551 1276.1 226.627 1284.47 223.313C1294.67 220.901 1307.92 212.999 1309.94 208.464C1314.01 199.056 1309.5 184.185 1298.59 180.607C1292.02 178.807 1285.02 179.509 1278.94 182.579C1279.98 180.595 1280.66 178.447 1280.97 176.23C1282.38 165.875 1272.2 155.874 1262.76 154.241C1257 153.437 1251.13 153.923 1245.58 155.664C1240.03 157.404 1234.94 160.356 1230.67 164.306C1223.15 169.707 1216.31 176.001 1210.31 183.052C1192.58 171.972 1163.98 180.066 1146.91 188.11C1131.48 195.151 1117.25 204.568 1104.73 216.019C1103.57 213.089 1101.8 210.434 1099.55 208.224C1091.06 199.924 1079.23 202.911 1069.89 209.603C1071.12 204.132 1070.73 198.422 1068.77 193.166C1066.31 186.85 1062.33 181.236 1057.19 176.817C1044.23 165.999 1027.28 166.712 1018.25 167.092L1018.24 167.092C1017.96 167.104 1017.69 167.115 1017.43 167.126C1000.11 168.509 983.607 175.052 970.045 185.911C965.238 190.517 961.002 195.684 957.425 201.3C954.562 205.808 952.163 210.596 950.266 215.59C936.727 211.949 922.352 213.056 909.532 218.727C906.916 219.915 904.399 221.292 902 222.845C896.677 221.497 891.06 220.864 886.447 220.343L886.443 220.342C885.704 220.259 884.99 220.178 884.308 220.098C879.943 219.681 875.543 220.357 871.504 222.065C863.444 225.462 862.887 224.72 860.503 221.543C859.532 220.25 858.259 218.553 856.053 216.567C846.496 208.278 835.63 201.634 823.899 196.908C794.311 185.064 762.415 180.122 730.633 182.459C708.818 183.606 669.99 189.475 666.631 216.699C656.463 212.718 638.293 206.875 630.731 213.988C620.129 199.382 600.332 195.359 581.445 196.911C576.673 197.089 571.913 197.825 567.263 199.121C566.451 199.308 565.646 199.504 564.849 199.708C562.718 194.859 560.104 190.237 557.048 185.912C553.198 180.478 548.712 175.527 543.684 171.164C529.602 160.987 512.797 155.267 495.433 154.74C495.167 154.742 494.893 154.744 494.611 154.746L494.606 154.747C485.573 154.813 468.605 154.938 456.199 166.381C451.282 171.048 447.586 176.852 445.433 183.282C443.74 188.628 443.634 194.35 445.126 199.754C435.472 193.531 423.506 191.132 415.434 199.841C415.196 200.099 414.961 200.351 414.728 200.6C412.868 202.593 411.201 204.379 410.293 207.032C397.229 196.213 382.903 188.359 367.146 182.088C349.696 174.897 320.734 168.224 303.571 180.165C297.228 173.419 290.089 167.47 282.311 162.447C277.851 158.713 272.618 156.016 266.99 154.551C261.362 153.087 255.479 152.891 249.765 153.978C241.622 155.804 233.234 163.994 232.47 172.862C225.73 169.255 218.795 167.726 213.529 170.444C208.942 162.277 197.501 156.709 189.444 152.787C188.774 152.461 188.127 152.146 187.509 151.843C183.534 149.992 179.161 149.159 174.784 149.42C166.052 149.928 165.775 149.043 164.589 145.252C164.106 143.709 163.473 141.685 162.057 139.076C155.818 128.071 147.795 118.179 138.317 109.805C114.385 88.758 85.9716 73.4463 55.2341 65.0322C34.2893 58.8262 -4.26933 51.3888 -16.5288 75.9268C-24.7828 68.7777 -39.957 57.201 -49.4615 61.3793C-57.3286 34.7537 -94.0694 24.4639 -118.925 25.6181C-126.921 25.9765 -134.663 28.5435 -141.293 33.0345C-147.924 37.5255 -153.183 43.7649 -156.488 51.0614Z" fill="white"/>
<path d="M1367.45 65.6536C1367.45 65.6536 1314.88 41.5968 1247 122.109L1249.19 123.971L1313.14 120.247L1324.63 128.998L1367.45 65.6536Z" fill="#EB5542"/>
<path d="M1367.45 65.6536C1367.45 65.6536 1314.88 41.5968 1247 122.109L1249.19 123.971L1313.14 120.247L1324.63 128.998L1367.45 65.6536Z" fill="#EB5542"/>
<g style="mix-blend-mode:multiply">
<path d="M1367.45 65.6536C1367.45 65.6536 1353.18 59.0994 1329.94 64.2012C1332.43 64.4992 1337.64 67.6645 1334.92 68.3348C1286 80.9591 1248.45 123.04 1248.26 123.189L1313.14 120.135L1324.63 128.887L1367.45 65.6536Z" fill="#9D3728"/>
</g>
<path d="M1387.49 82.5604C1387.49 82.5604 1420.17 130.413 1352.32 211.037L1350.13 209.175L1343.07 145.421L1332.51 135.552L1387.49 82.5604Z" fill="#EB5542"/>
<path d="M1388.05 125.088C1388.97 118.543 1391.31 112.278 1394.89 106.729C1394.28 98.2111 1391.74 89.945 1387.45 82.5604L1332.51 135.552L1343.07 145.421L1350.13 209.175L1351.69 210.479C1353.81 206.01 1384.03 162.477 1388.05 125.088Z" fill="#9D3728"/>
<path d="M1442.4 6.0329C1441.18 3.89094 1439.36 2.1557 1437.16 1.04278C1436.39 0.668333 1435.6 0.356975 1434.78 0.111787C1424.33 -0.633006 1402.99 1.93653 1377.04 27.9298L1288.86 133.542L1337.19 174.133L1425.23 68.5211C1446.9 37.6494 1445 15.9014 1442.4 6.0329Z" fill="#FBFBFB"/>
<g style="mix-blend-mode:color-dodge">
<path d="M1425.3 21.115C1424.93 20.4796 1424.33 20.0122 1423.63 19.8116C1417.12 18.4338 1395.89 16.758 1369.13 43.6078L1292.02 136.074L1334.51 171.601L1411.54 79.1344C1421.58 64.6482 1429.61 47.0711 1427.27 28.9354C1427.13 26.2247 1426.46 23.5679 1425.3 21.115Z" fill="white"/>
</g>
<path d="M1316.7 100.404L1314.13 103.491L1362.62 144.042L1365.19 140.955L1316.7 100.404Z" fill="#079BD7"/>
<path d="M1369.83 135.18L1321.35 94.6261L1322.65 93.0992L1371.13 133.616L1369.83 135.18Z" fill="#079BD7"/>
<g opacity="0.4">
<path d="M1442.4 6.0329C1441.18 3.89094 1439.36 2.1557 1437.16 1.04278C1436.39 0.668333 1435.6 0.356975 1434.78 0.111787C1424.33 -0.633006 1402.99 1.93653 1377.04 27.9298L1288.86 133.542L1337.19 174.133L1425.23 68.5211C1446.9 37.6494 1445 15.9014 1442.4 6.0329ZM1313.73 112.762L1381.39 31.5793C1392.92 17.8006 1417.38 6.21909 1425.08 6.59149C1432.77 6.96389 1435.26 26.254 1435.26 26.254L1333.92 129.631L1313.73 112.762Z" fill="#FF0000"/>
</g>
<path d="M1295.66 164.488C1300.79 157.84 1305.19 150.661 1308.79 143.075L1291.72 128.849C1284.95 133.746 1278.72 139.351 1273.14 145.57C1275.66 149.923 1279.04 153.722 1283.06 156.742C1286.72 160.123 1291 162.754 1295.66 164.488Z" fill="white"/>
<path d="M1303.73 152.385C1305.53 149.408 1307.17 146.338 1308.64 143.187L1291.58 128.961C1288.8 130.927 1286.13 133.04 1283.58 135.292C1288.49 142.834 1295.5 148.775 1303.73 152.385Z" fill="#ADAFB2"/>
<path d="M1276.15 142.405L1273.06 145.682C1275.59 150.034 1278.96 153.833 1282.99 156.854C1286.66 160.269 1290.97 162.927 1295.66 164.674C1296.59 163.482 1297.41 162.328 1298.23 161.173C1289.06 157.433 1281.32 150.857 1276.15 142.405Z" fill="#ADAFB2"/>
<path d="M1281.43 137.34L1278.34 140.245C1283.47 148.473 1291.05 154.882 1300.01 158.567C1300.83 157.338 1301.61 156.109 1302.32 154.843C1293.77 151.228 1286.49 145.132 1281.43 137.34Z" fill="#ADAFB2"/>
<g style="mix-blend-mode:screen" opacity="0.5">
<path d="M1296 132.536L1294.77 131.493C1291.05 134.398 1286.97 136.67 1283.62 139.686C1280.27 142.703 1277.56 145.16 1274.66 148.028L1276.18 150.002C1282.35 143.695 1288.97 137.857 1296 132.536Z" fill="white"/>
</g>
<g style="mix-blend-mode:multiply">
<path d="M1285.14 158.567C1288.3 161.111 1291.85 163.112 1295.66 164.488C1300.79 157.84 1305.19 150.661 1308.79 143.075L1301.98 137.414C1296.82 144.812 1291.19 151.876 1285.14 158.567Z" fill="#B3B5B8"/>
</g>
<path d="M1327.41 191.114C1332.53 184.481 1336.92 177.314 1340.5 169.739L1323.47 155.476C1316.7 160.375 1310.47 165.98 1304.88 172.196C1307.4 176.545 1310.76 180.344 1314.77 183.368C1318.44 186.758 1322.73 189.39 1327.41 191.114Z" fill="white"/>
<path d="M1335.63 178.899C1337.42 175.938 1339.05 172.88 1340.5 169.739L1323.47 155.476C1320.68 157.441 1317.99 159.567 1315.44 161.844C1320.38 169.365 1327.4 175.289 1335.63 178.899Z" fill="#ADAFB2"/>
<path d="M1307.9 168.956C1306.89 169.999 1305.85 171.042 1304.81 172.196C1307.33 176.545 1310.69 180.344 1314.7 183.368C1318.38 186.779 1322.7 189.425 1327.41 191.151L1329.94 187.688C1320.78 183.971 1313.05 177.405 1307.9 168.956Z" fill="#ADAFB2"/>
<path d="M1313.17 163.855C1312.17 164.748 1311.13 165.717 1310.09 166.759C1315.19 174.995 1322.75 181.417 1331.69 185.118C1332.54 183.852 1333.29 182.661 1334.03 181.394C1325.47 177.785 1318.2 171.672 1313.17 163.855Z" fill="#ADAFB2"/>
<g style="mix-blend-mode:screen" opacity="0.5">
<path d="M1327.75 159.051L1326.48 158.008C1322.77 160.95 1318.71 163.184 1315.33 166.238C1311.95 169.292 1309.27 171.675 1306.37 174.542C1306.78 175.138 1307.3 175.809 1307.9 176.553C1314.06 170.226 1320.7 164.375 1327.75 159.051Z" fill="white"/>
</g>
<g style="mix-blend-mode:multiply">
<path d="M1316.82 185.081C1319.97 187.692 1323.56 189.733 1327.41 191.114C1332.53 184.481 1336.92 177.315 1340.5 169.739L1333.73 164.078C1328.53 171.421 1322.88 178.435 1316.82 185.081Z" fill="#B3B5B8"/>
</g>
<path d="M1344.63 181.543C1349.82 173.379 1352.97 164.079 1353.81 154.433L1305.48 114.028C1296.16 116.575 1287.59 121.341 1280.5 127.918C1289.95 138.246 1300.21 147.809 1311.17 156.518C1321.65 165.72 1332.84 174.087 1344.63 181.543Z" fill="#3B3D3F"/>
<g style="mix-blend-mode:multiply">
<path d="M1308.12 116.262L1305.44 114.028C1296.12 116.575 1287.55 121.341 1280.46 127.918C1280.46 127.918 1281.35 128.961 1283.06 130.786C1290.49 124.499 1298.97 119.582 1308.12 116.262Z" fill="#B3B5B8"/>
</g>
<g style="mix-blend-mode:multiply">
<path d="M1326.3 168.845C1332.18 173.395 1338.3 177.634 1344.63 181.544C1349.82 173.379 1352.97 164.079 1353.81 154.433L1340.91 143.782C1337.37 152.845 1332.44 161.3 1326.3 168.845Z" fill="#B3B5B8"/>
</g>
<path d="M1360.2 100.696C1359.86 100.082 1359.45 99.5078 1358.98 98.9831C1358.38 98.6266 1357.74 98.3392 1357.08 98.1266C1353.81 97.0466 1347.82 97.0466 1338.01 103.191L1305.74 157.673C1304.23 160.274 1303.29 163.169 1302.99 166.163C1305.87 165.337 1308.55 163.902 1310.83 161.955L1358.57 120.433C1362.88 109.634 1361.84 103.75 1360.2 100.696Z" fill="#EB5542"/>
<g style="mix-blend-mode:multiply" opacity="0.4">
<path d="M1360.2 100.696C1359.86 100.082 1359.45 99.5079 1358.98 98.9832L1303.21 166.015C1303.19 166.113 1303.19 166.214 1303.21 166.312C1306.1 165.486 1308.77 164.051 1311.06 162.104L1358.79 120.582C1362.88 109.634 1361.84 103.75 1360.2 100.696Z" fill="#575A5C"/>
</g>
<g style="mix-blend-mode:color-dodge" opacity="0.4">
<path d="M1424.67 12.736C1424.67 12.736 1406.67 10.7251 1389.09 29.1587L1333.96 94.7005L1337.19 97.4563C1337.19 97.4563 1378.09 44.5759 1391.39 43.9801L1397.42 45.0973L1424.67 12.736Z" fill="#FBFBFB"/>
</g>
<g style="mix-blend-mode:multiply" opacity="0.7">
<path d="M1417.68 68.1859C1414.59 71.8657 1410.48 74.5444 1405.86 75.8833C1401.25 77.2221 1396.35 77.161 1391.77 75.7075C1387.19 74.254 1383.15 71.4736 1380.15 67.7178C1377.15 63.962 1375.33 59.3995 1374.92 54.6074C1374.51 49.8152 1375.52 45.0087 1377.84 40.7956C1380.16 36.5826 1383.67 33.1522 1387.93 30.9384C1392.19 28.7246 1397.02 27.8267 1401.79 28.3584C1406.56 28.8901 1411.07 30.8274 1414.74 33.9254C1419.67 38.0788 1422.74 44.0215 1423.29 50.4464C1423.84 56.8713 1421.82 63.2522 1417.68 68.1859Z" fill="#898B8E"/>
</g>
<path d="M1417.46 65.9516C1414.56 69.3837 1410.72 71.8796 1406.41 73.1238C1402.1 74.368 1397.52 74.3047 1393.25 72.9418C1388.98 71.579 1385.2 68.9777 1382.4 65.467C1379.61 61.9562 1377.91 57.6935 1377.53 53.2177C1377.15 48.7419 1378.11 44.254 1380.27 40.3212C1382.44 36.3883 1385.72 33.1872 1389.7 31.1224C1393.69 29.0576 1398.19 28.2219 1402.65 28.7208C1407.1 29.2197 1411.31 31.0309 1414.74 33.9254C1417.02 35.849 1418.9 38.2035 1420.27 40.8544C1421.64 43.5054 1422.47 46.4008 1422.73 49.3751C1422.98 52.3494 1422.64 55.3443 1421.74 58.1886C1420.83 61.0329 1419.38 63.6708 1417.46 65.9516Z" fill="#EB5542"/>
<path d="M1413.92 63.5309C1411.57 66.3068 1408.45 68.3233 1404.96 69.3263C1401.47 70.3292 1397.76 70.2737 1394.29 69.1667C1390.83 68.0597 1387.78 65.9508 1385.51 63.1058C1383.24 60.2608 1381.87 56.8072 1381.56 53.1804C1381.25 49.5535 1382.01 45.9158 1383.76 42.7259C1385.52 39.536 1388.17 36.9367 1391.39 35.2557C1394.62 33.5747 1398.26 32.8873 1401.88 33.2802C1405.49 33.673 1408.91 35.1285 1411.69 37.4631C1415.41 40.6414 1417.73 45.1593 1418.15 50.0384C1418.57 54.9176 1417.05 59.765 1413.92 63.5309Z" fill="white"/>
<g style="mix-blend-mode:multiply">
<path d="M1411.54 37.5376C1408.74 35.1409 1405.29 33.6337 1401.63 33.2076C1397.96 32.7815 1394.26 33.4558 1390.98 35.1447C1387.7 36.8335 1385 39.4608 1383.21 42.6924C1381.43 45.9239 1380.65 49.6139 1380.96 53.2933C1381.27 56.9726 1382.67 60.475 1384.98 63.3554C1387.29 66.2357 1390.4 68.3638 1393.92 69.4692C1397.43 70.5746 1401.2 70.6073 1404.74 69.5632C1408.27 68.519 1411.42 66.4452 1413.78 63.6054C1415.35 61.7509 1416.53 59.6033 1417.27 57.2865C1418.01 54.9697 1418.28 52.5295 1418.08 50.1064C1417.87 47.6833 1417.19 45.3253 1416.06 43.1681C1414.94 41.011 1413.41 39.0974 1411.54 37.5376ZM1390.43 62.6744C1388.04 60.6573 1386.31 57.9773 1385.44 54.9726C1384.57 51.968 1384.61 48.7735 1385.56 45.7924C1386.5 42.8114 1388.31 40.1774 1390.75 38.223C1393.18 36.2686 1396.14 35.0814 1399.25 34.8114C1402.37 34.5414 1405.49 35.2005 1408.22 36.7057C1410.96 38.2109 1413.19 40.4946 1414.63 43.2685C1416.07 46.0424 1416.66 49.1821 1416.33 52.2913C1415.99 55.4005 1414.74 58.3397 1412.73 60.738C1410.04 63.9125 1406.2 65.8955 1402.05 66.2579C1397.91 66.6203 1393.78 65.333 1390.58 62.6744H1390.43Z" fill="#C9CACC"/>
</g>
<g style="mix-blend-mode:screen">
<path d="M1394.52 30.7228C1391.58 31.3613 1388.85 32.7463 1386.6 34.7447C1386.79 35.2661 1387.01 35.8246 1387.23 36.346C1389.74 34.0615 1392.9 32.6167 1396.27 32.2124C1400.54 31.8034 1404.85 32.5233 1408.77 34.3003C1412.68 36.0774 1416.06 38.8497 1418.57 42.3416C1418.24 40.9637 1412.73 26.7009 1394.52 30.7228Z" fill="white"/>
</g>
<g style="mix-blend-mode:screen">
<path d="M1384.48 36.979C1381.22 41.4832 1379.41 46.8727 1379.28 52.4335C1379.94 47.3568 1381.97 42.5566 1385.15 38.5431L1384.48 36.979Z" fill="white"/>
</g>
<path fill-rule="evenodd" clip-rule="evenodd" d="M1598.11 1444.07C1600.03 1439.07 1600.87 1433.72 1600.57 1428.38C1600.14 1419.69 1597.78 1411.22 1593.64 1403.57C1589.51 1395.93 1583.71 1389.32 1576.68 1384.21C1565.26 1376.09 1551.39 1372.13 1537.4 1372.99C1536.54 1367.72 1535.15 1362.55 1533.24 1357.56C1530.86 1351.34 1527.74 1345.43 1523.96 1339.96C1512.84 1326.61 1497.98 1316.9 1481.29 1312.08C1481.03 1312.01 1480.76 1311.95 1480.49 1311.88C1471.72 1309.7 1455.25 1305.61 1440.39 1313.62C1434.47 1316.92 1429.45 1321.63 1425.77 1327.32C1422.8 1332.08 1421.28 1337.6 1421.39 1343.2C1413.58 1334.78 1402.58 1329.49 1392.6 1335.92C1389.96 1337.64 1387.7 1339.88 1385.97 1342.52C1375.99 1328.8 1363.94 1316.73 1350.23 1306.74C1335.11 1295.45 1308.71 1281.79 1289.12 1289.1C1284.65 1281 1279.21 1273.46 1272.92 1266.67C1269.52 1261.94 1265.12 1258.03 1260.04 1255.22C1254.95 1252.4 1249.3 1250.75 1243.49 1250.39C1234.36 1250.11 1223.05 1257.15 1221.42 1266.84C1218.64 1265.75 1215.82 1264.88 1213.21 1264.35C1204.74 1261.3 1196.16 1260.65 1190.93 1264.99C1184.7 1257.99 1172.33 1255.01 1163.62 1252.9L1163.62 1252.9C1162.89 1252.72 1162.2 1252.56 1161.53 1252.39C1157.25 1251.43 1152.8 1251.56 1148.58 1252.75C1140.16 1255.12 1139.7 1254.31 1137.73 1250.86C1136.93 1249.46 1135.88 1247.62 1133.93 1245.37C1125.48 1235.96 1115.53 1228.01 1104.48 1221.86C1076.59 1206.43 1045.56 1197.55 1013.73 1195.92C991.946 1194.34 952.69 1195.33 945.968 1221.92C936.375 1216.71 919.074 1208.65 910.685 1214.77C902.66 1200.18 885.756 1193.56 868.325 1191.98C866.087 1191.73 863.842 1191.61 861.598 1191.62C852.7 1191.45 843.945 1192.5 836.444 1194.38C834.145 1190.48 831.515 1186.79 828.582 1183.34C824.261 1178.28 819.348 1173.75 813.949 1169.86C799.011 1160.98 781.76 1156.79 764.42 1157.83L764.21 1157.85L763.596 1157.91C754.605 1158.79 737.717 1160.43 726.388 1172.94C721.91 1178.03 718.749 1184.14 717.182 1190.74C715.976 1196.22 716.383 1201.93 718.354 1207.17C708.18 1201.84 690.212 1203.79 690.212 1203.79C690.212 1203.79 676.291 1208.01 675.542 1211.08C664.585 1203.55 658.407 1201.88 648.424 1199.19C645.668 1198.44 642.621 1197.62 639.103 1196.58C621.079 1190.98 591.635 1186.93 575.613 1200.37C571.926 1197.09 568.035 1194.06 563.965 1191.3C562.237 1188.42 560.175 1185.75 557.81 1183.33C552.212 1177.6 545.139 1173.54 537.376 1171.59C513.254 1165.49 475.198 1168.22 462.164 1192.73C453.687 1186.74 436.504 1195.05 426.987 1200.4C419.883 1173.91 380.616 1173.48 358.853 1175.37C327.054 1177.47 296.153 1186.79 268.495 1202.63C257.533 1208.93 247.694 1217.02 239.38 1226.56C237.471 1228.83 236.445 1230.69 235.664 1232.1C233.743 1235.58 233.295 1236.39 224.842 1234.15C220.604 1233.01 216.153 1232.96 211.889 1233.97C211.227 1234.15 210.535 1234.33 209.819 1234.51L209.804 1234.51C201.126 1236.74 188.802 1239.91 182.675 1247C177.377 1242.73 168.809 1243.51 160.382 1246.67C150.137 1248.91 136.756 1256.58 134.65 1261.08C130.417 1270.41 134.672 1285.36 145.513 1289.13C152.05 1291.04 159.064 1290.46 165.196 1287.5C164.127 1289.46 163.404 1291.6 163.058 1293.81C161.463 1304.14 171.469 1314.32 180.883 1316.11C186.628 1317.02 192.502 1316.64 198.081 1314.99C203.66 1313.35 208.804 1310.49 213.143 1306.61C220.756 1301.34 227.701 1295.17 233.827 1288.22C251.362 1299.61 280.096 1292.02 297.307 1284.28C312.857 1277.5 327.25 1268.34 339.962 1257.11C341.078 1260.06 342.795 1262.74 345.005 1264.99C353.351 1273.44 365.234 1270.66 374.685 1264.13C373.366 1269.58 373.655 1275.3 375.517 1280.58C377.874 1286.94 381.754 1292.63 386.816 1297.13C399.581 1308.18 416.544 1307.76 425.575 1307.54L425.584 1307.54L426.005 1307.53L426.402 1307.52C443.74 1306.44 460.355 1300.18 474.104 1289.56C478.991 1285.04 483.317 1279.95 486.991 1274.4C489.933 1269.94 492.414 1265.19 494.398 1260.23C507.872 1264.11 522.264 1263.26 535.181 1257.81C537.818 1256.67 540.359 1255.33 542.784 1253.82C548.083 1255.26 553.688 1256 558.291 1256.6L558.295 1256.6C559.033 1256.69 559.745 1256.79 560.426 1256.88C564.782 1257.37 569.194 1256.77 573.262 1255.14C581.38 1251.88 581.924 1252.63 584.252 1255.85C585.2 1257.16 586.444 1258.88 588.614 1260.9C598.025 1269.36 608.773 1276.19 620.42 1281.12C649.797 1293.48 681.601 1298.98 713.42 1297.2C735.251 1296.43 774.176 1291.24 778.01 1264.08C788.107 1268.24 806.171 1274.4 813.857 1267.42C824.202 1282.21 843.925 1286.58 862.836 1285.35C867.612 1285.26 872.385 1284.61 877.057 1283.39C877.872 1283.22 878.68 1283.04 879.479 1282.85C881.526 1287.73 884.058 1292.4 887.039 1296.78C890.792 1302.28 895.192 1307.31 900.143 1311.76C914.044 1322.18 930.747 1328.19 948.099 1329.02C948.367 1329.02 948.643 1329.03 948.927 1329.03C957.959 1329.12 974.926 1329.29 987.531 1318.07C992.528 1313.49 996.326 1307.75 998.59 1301.36C1000.38 1296.04 1000.58 1290.32 999.185 1284.89C1008.73 1291.28 1020.65 1293.89 1028.87 1285.32C1029.12 1285.07 1029.36 1284.82 1029.59 1284.58C1031.49 1282.62 1033.19 1280.86 1034.14 1278.22C1047.01 1289.27 1061.2 1297.37 1076.84 1303.92C1094.17 1311.41 1123.01 1318.59 1140.38 1306.95C1146.6 1313.81 1153.63 1319.88 1161.32 1325.04C1165.72 1328.85 1170.9 1331.64 1176.5 1333.2C1182.11 1334.76 1187.98 1335.06 1193.72 1334.08C1201.89 1332.39 1210.42 1324.35 1211.34 1315.5C1218.01 1319.22 1224.92 1320.87 1230.23 1318.25C1234.68 1326.49 1246.02 1332.26 1254.01 1336.32C1254.67 1336.66 1255.31 1336.98 1255.93 1337.3C1259.87 1339.22 1264.23 1340.13 1268.61 1339.94C1277.35 1339.59 1277.61 1340.48 1278.73 1344.29C1279.18 1345.84 1279.78 1347.87 1281.15 1350.51C1287.2 1361.62 1295.05 1371.65 1304.38 1380.19C1327.94 1401.65 1356.08 1417.46 1386.66 1426.41C1407.5 1432.98 1445.92 1441.09 1458.61 1416.77C1466.73 1424.06 1481.7 1435.9 1491.28 1431.89C1498.68 1458.65 1535.24 1469.58 1560.11 1468.86C1568.11 1468.64 1575.89 1466.21 1582.6 1461.83C1589.31 1457.46 1594.68 1451.31 1598.11 1444.07Z" fill="white"/>
<path d="M74.7086 1403.79C74.7086 1403.79 126.022 1428.68 195.97 1347.64L193.857 1345.73L130.35 1348.91L119.252 1339.93L74.7086 1403.79Z" fill="#EB5542"/>
<path d="M74.7086 1403.79C74.7086 1403.79 126.022 1428.68 195.97 1347.64L193.857 1345.73L130.35 1348.91L119.252 1339.93L74.7086 1403.79Z" fill="#EB5542"/>
<g style="mix-blend-mode:multiply">
<path d="M74.7913 1404.32C74.7913 1404.32 88.3729 1411.09 111.381 1405.97C108.962 1405.66 104.055 1402.4 106.747 1401.72C155.299 1389.03 194.416 1346.16 194.606 1346.01L131.009 1348.84L120.279 1339.83L74.7913 1404.32Z" fill="#9D3728"/>
</g>
<path d="M54.6778 1386.06C54.6778 1386.06 24.5418 1337.72 92.926 1257.41L94.9924 1259.3L99.7808 1323.36L109.698 1333.37L54.6778 1386.06Z" fill="#EB5542"/>
<path d="M55.5247 1343.36C54.4193 1349.92 51.954 1356.19 48.3001 1361.73C48.6167 1370.28 50.8149 1378.6 54.7273 1386.06L109.707 1333.37L99.7901 1323.37L95.0022 1259.3L93.5306 1257.98C91.3319 1262.44 60.6249 1305.86 55.5247 1343.36Z" fill="#9D3728"/>
<path d="M-1.25664 1462.37C-0.126417 1464.54 1.60813 1466.31 3.73145 1467.45C4.47254 1467.83 5.24433 1468.15 6.03919 1468.41C16.281 1469.25 37.3359 1466.87 63.6875 1440.93L153.803 1335.38L107.637 1294.05L17.6671 1399.6C-4.64272 1430.49 -3.49114 1452.41 -1.25664 1462.37Z" fill="#FBFBFB"/>
<g style="mix-blend-mode:color-dodge">
<path d="M16.029 1447.46C16.3695 1448.1 16.9438 1448.58 17.6304 1448.78C23.9787 1450.23 44.7849 1452.12 71.9679 1425.33L150.765 1332.92L110.169 1296.74L31.4451 1389.15C21.1069 1403.65 12.6404 1421.28 14.3486 1439.56C14.3981 1442.29 14.9689 1444.98 16.029 1447.46Z" fill="white"/>
</g>
<path d="M125.924 1369L128.631 1365.91L80.9417 1324.57L78.2345 1327.66L125.924 1369Z" fill="#079BD7"/>
<path d="M74.1225 1333.29L120.631 1374.68L119.296 1376.21L72.787 1334.86L74.1225 1333.29Z" fill="#079BD7"/>
<g opacity="0.4">
<path d="M-1.15694 1463.08C-0.108216 1465.25 1.53861 1467.01 3.57887 1468.15C4.29131 1468.53 5.03514 1468.85 5.80303 1469.1C15.7555 1469.9 36.3141 1467.4 62.5928 1441.23L152.861 1334.82L108.895 1293.55L18.7689 1399.96C-3.69245 1431.08 -3.09473 1453.08 -1.15694 1463.08ZM127.906 1355.72L58.6357 1437.52C46.8397 1451.4 22.7895 1463 15.4481 1462.59C8.10677 1462.18 6.80251 1442.66 6.80251 1442.66L109.537 1338.57L127.906 1355.72Z" fill="#FF0000"/>
</g>
<path d="M148.505 1305.19C143.242 1311.84 138.675 1319.04 134.883 1326.65L151.217 1341.15C158.044 1336.28 164.362 1330.68 170.066 1324.47C167.72 1320.06 164.521 1316.19 160.66 1313.11C157.171 1309.67 153.042 1306.98 148.505 1305.19Z" fill="white"/>
<path d="M140.171 1317.22C138.302 1320.2 136.587 1323.28 135.033 1326.45L151.384 1340.95C154.183 1339 156.882 1336.89 159.469 1334.64C154.877 1326.99 148.169 1320.93 140.171 1317.22Z" fill="#ADAFB2"/>
<path d="M166.989 1327.74L170.14 1324.46C167.79 1320.05 164.585 1316.18 160.717 1313.1C157.208 1309.62 153.046 1306.9 148.47 1305.09C147.515 1306.28 146.67 1307.44 145.825 1308.6C154.746 1312.46 162.16 1319.16 166.989 1327.74Z" fill="#ADAFB2"/>
<path d="M161.639 1332.71L164.777 1329.81C159.985 1321.46 152.719 1314.92 144.002 1311.12C143.155 1312.35 142.345 1313.59 141.607 1314.86C149.923 1318.58 156.899 1324.8 161.639 1332.71Z" fill="#ADAFB2"/>
<g style="mix-blend-mode:screen" opacity="0.5">
<path d="M147.283 1337.4L148.459 1338.46C152.222 1335.57 156.331 1333.31 159.731 1330.3C163.131 1327.29 165.889 1324.83 168.844 1321.96L167.405 1319.96C161.118 1326.26 154.392 1332.1 147.283 1337.4Z" fill="white"/>
</g>
<g style="mix-blend-mode:multiply">
<path d="M158.486 1311.25C155.47 1308.66 152.043 1306.61 148.344 1305.19C143.092 1311.83 138.535 1319.02 134.751 1326.63L141.249 1332.39C146.566 1324.99 152.323 1317.93 158.486 1311.25Z" fill="#B3B5B8"/>
</g>
<path d="M117.227 1278.01C111.971 1284.65 107.417 1291.83 103.642 1299.44L119.938 1313.97C126.763 1309.1 133.081 1303.5 138.787 1297.29C136.452 1292.88 133.265 1289.02 129.417 1285.94C125.921 1282.49 121.779 1279.79 117.227 1278.01Z" fill="white"/>
<path d="M108.742 1290.15C106.88 1293.12 105.177 1296.19 103.642 1299.34L119.955 1313.88C122.776 1311.93 125.488 1309.81 128.078 1307.54C123.455 1299.91 116.739 1293.87 108.742 1290.15Z" fill="#ADAFB2"/>
<path d="M135.71 1300.64C136.734 1299.6 137.795 1298.55 138.86 1297.4C136.52 1292.99 133.328 1289.12 129.473 1286.03C125.953 1282.56 121.777 1279.85 117.188 1278.06L114.581 1281.53C123.496 1285.37 130.902 1292.07 135.71 1300.64Z" fill="#ADAFB2"/>
<path d="M130.357 1305.65C131.376 1304.75 132.435 1303.79 133.496 1302.74C128.735 1294.39 121.494 1287.84 112.796 1284.02C111.911 1285.29 111.139 1286.48 110.364 1287.75C118.685 1291.48 125.653 1297.71 130.357 1305.65Z" fill="#ADAFB2"/>
<g style="mix-blend-mode:screen" opacity="0.5">
<path d="M116.002 1310.33L117.215 1311.4C120.979 1308.46 125.05 1306.25 128.488 1303.2C131.926 1300.15 134.645 1297.77 137.6 1294.9C137.216 1294.29 136.725 1293.61 136.162 1292.86C129.87 1299.18 123.131 1305.03 116.002 1310.33Z" fill="white"/>
</g>
<g style="mix-blend-mode:multiply">
<path d="M127.278 1284.18C124.262 1281.53 120.807 1279.44 117.065 1278.01C111.821 1284.64 107.276 1291.82 103.509 1299.41L109.972 1305.18C115.323 1297.83 121.103 1290.82 127.278 1284.18Z" fill="#B3B5B8"/>
</g>
<path d="M100.41 1287.31C95.0206 1295.5 91.6102 1304.85 90.4692 1314.57L136.783 1355.78C146.056 1353.3 154.66 1348.57 161.864 1342C152.883 1331.49 143.087 1321.75 132.57 1312.87C122.537 1303.49 111.784 1294.94 100.41 1287.31Z" fill="#3B3D3F"/>
<g style="mix-blend-mode:multiply">
<path d="M134.9 1353.49L137.477 1355.78C146.795 1353.28 155.441 1348.54 162.68 1341.94C162.68 1341.94 161.831 1340.87 160.197 1339.01C152.631 1345.31 144.066 1350.21 134.9 1353.49Z" fill="#B3B5B8"/>
</g>
<g style="mix-blend-mode:multiply">
<path d="M117.415 1300.25C111.803 1295.62 105.952 1291.3 99.8848 1287.31C94.5312 1295.47 91.1437 1304.8 90.0103 1314.49L102.293 1325.33C106.058 1316.24 111.159 1307.78 117.415 1300.25Z" fill="#B3B5B8"/>
</g>
<path d="M82.5391 1368.4C82.8585 1369.02 83.2437 1369.6 83.6879 1370.13C84.2631 1370.5 84.8783 1370.79 85.5218 1371.01C88.6993 1372.13 94.5772 1372.18 104.417 1366.09L137.888 1311.53C139.457 1308.93 140.473 1306.02 140.867 1303.01C138.008 1303.82 135.334 1305.24 133.026 1307.18L84.7909 1348.54C80.2027 1359.37 81.0326 1365.31 82.5391 1368.4Z" fill="#EB5542"/>
<g style="mix-blend-mode:multiply" opacity="0.4">
<path d="M82.5177 1368.4C82.8372 1369.02 83.2225 1369.61 83.6667 1370.14L140.637 1303.16C140.658 1303.06 140.661 1302.96 140.647 1302.86C137.787 1303.67 135.112 1305.09 132.804 1307.02L84.5558 1348.39C80.1807 1359.38 81.0107 1365.31 82.5177 1368.4Z" fill="#575A5C"/>
</g>
<g style="mix-blend-mode:color-dodge" opacity="0.4">
<path d="M16.5264 1455.51C16.5264 1455.51 34.1932 1457.71 52.1278 1439.28L108.613 1373.69L105.516 1370.88C105.516 1370.88 63.4786 1423.83 50.3426 1424.31L44.4439 1423.12L16.5264 1455.51Z" fill="#FBFBFB"/>
</g>
<g style="mix-blend-mode:multiply" opacity="0.7">
<path d="M25.007 1399.47C28.1717 1395.79 32.3078 1393.13 36.8921 1391.82C41.4764 1390.52 46.3031 1390.63 50.7617 1392.13C55.2204 1393.64 59.1106 1396.48 61.9406 1400.29C64.7706 1404.11 66.4131 1408.72 66.6605 1413.56C66.9078 1418.39 65.7489 1423.23 63.3303 1427.45C60.9116 1431.68 57.3419 1435.1 53.0726 1437.3C48.8033 1439.49 44.0261 1440.35 39.3452 1439.77C34.6643 1439.19 30.29 1437.19 26.7754 1434.04C22.0634 1429.8 19.2301 1423.78 18.8984 1417.3C18.5668 1410.82 20.7641 1404.41 25.007 1399.47Z" fill="#898B8E"/>
</g>
<path d="M25.1565 1401.71C28.1172 1398.28 31.9834 1395.8 36.2663 1394.58C40.5492 1393.37 45.0565 1393.48 49.2186 1394.89C53.3807 1396.3 57.0107 1398.96 59.6496 1402.52C62.2885 1406.09 63.818 1410.4 64.0447 1414.92C64.2714 1419.43 63.1851 1423.95 60.9232 1427.89C58.6613 1431.84 55.3252 1435.03 51.3367 1437.08C47.3483 1439.12 42.8864 1439.92 38.5152 1439.38C34.144 1438.83 30.0597 1436.97 26.7786 1434.02C24.5982 1432.06 22.8265 1429.67 21.5648 1426.98C20.3031 1424.3 19.5761 1421.37 19.4255 1418.37C19.2748 1415.37 19.7035 1412.35 20.6868 1409.5C21.6702 1406.64 23.189 1403.99 25.1565 1401.71Z" fill="#EB5542"/>
<path d="M28.5541 1404.19C30.9595 1401.41 34.0958 1399.41 37.5678 1398.43C41.0398 1397.45 44.692 1397.54 48.0639 1398.69C51.4358 1399.84 54.3764 1401.99 56.515 1404.88C58.6536 1407.77 59.8944 1411.26 60.0811 1414.92C60.2677 1418.58 59.3918 1422.24 57.5638 1425.44C55.7358 1428.64 53.0374 1431.23 49.8091 1432.9C46.5807 1434.56 42.9667 1435.22 39.4229 1434.79C35.879 1434.36 32.564 1432.86 29.8957 1430.48C26.3383 1427.25 24.2028 1422.67 23.9517 1417.75C23.7006 1412.83 25.3541 1407.95 28.5541 1404.19Z" fill="white"/>
<g style="mix-blend-mode:multiply">
<path d="M30.0473 1430.41C32.73 1432.86 36.08 1434.41 39.6713 1434.87C43.2627 1435.34 46.9333 1434.69 50.2164 1433.02C53.4995 1431.35 56.2469 1428.72 58.1093 1425.48C59.9718 1422.24 60.8651 1418.53 60.6757 1414.82C60.4863 1411.11 59.2229 1407.56 57.0459 1404.64C54.8689 1401.71 51.8768 1399.54 48.4499 1398.39C45.0229 1397.24 41.316 1397.18 37.8003 1398.2C34.2846 1399.22 31.1189 1401.28 28.7056 1404.12C27.0985 1405.97 25.8578 1408.13 25.0549 1410.45C24.2521 1412.78 23.9029 1415.24 24.0276 1417.68C24.1523 1420.13 24.7484 1422.51 25.7816 1424.7C26.8147 1426.88 28.2644 1428.83 30.0473 1430.41ZM51.6613 1405.27C53.9444 1407.33 55.5657 1410.05 56.3205 1413.08C57.0754 1416.12 56.9299 1419.34 55.9025 1422.34C54.875 1425.33 53.0117 1427.97 50.5478 1429.92C48.0838 1431.86 45.1296 1433.03 42.0582 1433.28C38.9869 1433.52 35.936 1432.83 33.2907 1431.28C30.6455 1429.74 28.5245 1427.42 27.1955 1424.61C25.8665 1421.8 25.389 1418.63 25.8235 1415.5C26.258 1412.37 27.5848 1409.42 29.6365 1407.02C32.3971 1403.84 36.2403 1401.88 40.3346 1401.55C44.4289 1401.23 48.4453 1402.56 51.5149 1405.27L51.6613 1405.27Z" fill="#C9CACC"/>
</g>
<g style="mix-blend-mode:screen">
<path d="M46.8513 1437.36C49.7945 1436.74 52.5504 1435.35 54.8545 1433.33C54.687 1432.8 54.4838 1432.22 54.2793 1431.69C51.7096 1434 48.5237 1435.44 45.1641 1435.82C40.8996 1436.2 36.6403 1435.43 32.8098 1433.58C28.9793 1431.73 25.7112 1428.86 23.3304 1425.28C23.6173 1426.69 28.6135 1441.29 46.8513 1437.36Z" fill="white"/>
</g>
<g style="mix-blend-mode:screen">
<path d="M57.1048 1431.27C60.3822 1426.79 62.3002 1421.4 62.6049 1415.82C61.7987 1420.91 59.693 1425.7 56.5115 1429.7L57.1048 1431.27Z" fill="white"/>
</g>
</svg>
